<svg xmlns="http://www.w3.org/2000/svg" viewBox="0 0 26.33 31.36"><defs><style>.cls-1{fill:#423e3f;}</style></defs><title>Artboard 42 copy 2</title><g id="מקלדת_נפתחת" data-name="מקלדת נפתחת"><path class="cls-1" d="M18.84,20.63a3,3,0,0,1-.67,2,2.35,2.35,0,0,1-1.9.77H10.11c-1.74,0-2.62-.78-2.62-2.36v-2h3.72v1.6H15.1V17.17H10.74V14.33h4.09V10.68H11.47v1.86H7.76v-2a2.32,2.32,0,0,1,2.62-2.63h5.36a2.86,2.86,0,0,1,2,.74,2.71,2.71,0,0,1,.78,2.05v2.53c0,.82-.74,1.64-2.24,2.47,1.67.71,2.51,1.56,2.51,2.54Z"/></g></svg>