<svg xmlns="http://www.w3.org/2000/svg" viewBox="0 0 26.33 31.36"><defs><style>.cls-1{fill:#423e3f;}</style></defs><title>Artboard 42 copy 11</title><g id="מקלדת_נפתחת" data-name="מקלדת נפתחת"><path class="cls-1" d="M19.11,20.63a3,3,0,0,1-.67,2,2.35,2.35,0,0,1-1.89.77H9.78a2.35,2.35,0,0,1-1.89-.77,3,3,0,0,1-.67-2V17.89a2.31,2.31,0,0,1,.45-1.46,4.08,4.08,0,0,1,1.65-1.07,2.8,2.8,0,0,1-1.23-1.17,3.35,3.35,0,0,1-.19-1.3V10.73a2.71,2.71,0,0,1,.78-2.05,2.86,2.86,0,0,1,2.06-.74h4.85a2.86,2.86,0,0,1,2.06.74,2.71,2.71,0,0,1,.78,2.05v2.16a3.35,3.35,0,0,1-.19,1.3A2.8,2.8,0,0,1,17,15.36a4.08,4.08,0,0,1,1.65,1.07,2.31,2.31,0,0,1,.45,1.46Zm-3.73.05V16.82H11v3.86ZM15,14.08v-3.4H11.37v3.4Z"/></g></svg>