<?xml version="1.0" encoding="utf-8"?>
<!-- Generator: Adobe Illustrator 22.0.1, SVG Export Plug-In . SVG Version: 6.00 Build 0)  -->
<svg version="1.1" id="Layer_1" xmlns="http://www.w3.org/2000/svg" xmlns:xlink="http://www.w3.org/1999/xlink" x="0px" y="0px"
	 viewBox="0 0 33.8 28.2" style="enable-background:new 0 0 33.8 28.2;" xml:space="preserve">
<title>back2</title>
<path d="M31.3,25.2H20.5l0.5-0.5l0,0l9.1-9.1c1.3-1.3,1.4-3.4,0.1-4.7c0,0,0,0-0.1-0.1l-8.4-8.5c-1.3-1.3-3.5-1.3-4.8,0l-9.2,9.2
	l0,0l-5.3,5.3c-1.3,1.3-1.4,3.4-0.1,4.7c0,0,0.1,0.1,0.1,0.1l5.2,5.2C7.9,26.9,8.1,27,8.4,27h23c0.5,0.1,0.9-0.3,1-0.8
	c0.1-0.5-0.3-0.9-0.8-1C31.5,25.2,31.4,25.2,31.3,25.2z M18.2,3.5c0.6-0.6,1.6-0.6,2.2,0l8.5,8.4c0.6,0.6,0.6,1.6,0,2.2l-8.5,8.5
	L9.7,12L18.2,3.5z M3.8,20.2c-0.6-0.6-0.6-1.6,0-2.2l4.7-4.7l10.7,10.7L18,25.2H8.7L3.8,20.2z"/>
</svg>
