<svg xmlns="http://www.w3.org/2000/svg" xmlns:xlink="http://www.w3.org/1999/xlink" viewBox="0 0 166.57 150.64"><defs><style>.cls-1{fill:none;}.cls-2{clip-path:url(#clip-path);}.cls-3{fill:#edac80;}.cls-4{fill:#ffc396;}.cls-5{fill:#8a3514;}.cls-6{fill:#fff;}.cls-7{fill:#bc4d3e;}.cls-8{fill:#fdf9f4;}.cls-9{fill:#db5e52;}.cls-10{fill:#d88d5b;}.cls-11{fill:#507b8e;}.cls-12{fill:#6296a8;}.cls-13{fill:#3f6977;}</style><clipPath id="clip-path"><circle class="cls-1" cx="83.28" cy="75.32" r="69.97"/></clipPath></defs><title>Artboard 41 copy 35</title><g id="מסך_רצונות" data-name="מסך רצונות"><g class="cls-2"><path class="cls-3" d="M99.24,98.37H74.62c-.41,12.58-5.66,15.5-15,16.85,2,11.09,16,12.11,26.66,11.59l.68,0,.67,0c10.67.52,24.69-.5,26.67-11.59C104.9,113.87,98.13,111.33,99.24,98.37Z"/><path class="cls-3" d="M43,60.39A5.8,5.8,0,0,0,43,59.21c-14.85-6-13.65,18.08,1.32,16.61Z"/><path class="cls-3" d="M126.27,60.39a5.17,5.17,0,0,1,.08-1.18c14.85-6,13.65,18.08-1.33,16.61Z"/><ellipse class="cls-4" cx="84.65" cy="66.02" rx="43.81" ry="38.38"/><path class="cls-5" d="M41.06,59.21A57.7,57.7,0,0,0,57,43.91s42.56,14.18,60.5,0c0,0,5.89,5.42,9.41,16.48l1.85-2.3S133.33,21,96.2,11.37c0,0-.42-12.1-11.68,1.25,0,0-2.92-12.1-7.09-.42C77.43,12.2,34.46,18.88,41.06,59.21Z"/><path d="M67.75,66.14c0,3.07-1.78,5.55-4,5.55s-4-2.48-4-5.55,1.78-5.54,4-5.54S67.75,63.08,67.75,66.14Z"/><path class="cls-6" d="M65.37,64.76A2.22,2.22,0,1,1,63.19,63,2,2,0,0,1,65.37,64.76Z"/><path d="M109.47,66.14c0,3.07-1.78,5.55-4,5.55s-4-2.48-4-5.55,1.78-5.54,4-5.54S109.47,63.08,109.47,66.14Z"/><path class="cls-6" d="M107.09,64.76A2.22,2.22,0,1,1,104.91,63,2,2,0,0,1,107.09,64.76Z"/><path class="cls-5" d="M57.32,61.85s2.5-6.47,10.64-2.92l-.21-3.55S57.11,52.67,57.32,61.85Z"/><path class="cls-5" d="M112,61.85s-2.5-6.47-10.64-2.92l.21-3.55S112.18,52.67,112,61.85Z"/><path class="cls-7" d="M68.68,82.32s17.1,7.92,33.38-.84C102.06,81.48,89.12,112.15,68.68,82.32Z"/><path class="cls-8" d="M68.68,82.32s18.56,7.3,33.38-1.25C102.06,81.07,88.91,98,68.68,82.32Z"/><path class="cls-9" d="M77,91.7s6-1.25,18.78-1C95.8,90.66,88.08,100.05,77,91.7Z"/><path class="cls-5" d="M112.34,90.89c-1.77-4.53-6.43-14.3-25.41-13.92C59.56,77.52,60.57,88.75,58.35,93A54.08,54.08,0,0,1,42.13,75.83s9.49,42.52,44.8,41.76,39.86-47.45,39.86-47.45A41.75,41.75,0,0,1,112.34,90.89ZM69.85,98.68c-2.72-2.94-3.37-6.93-.33-11.72,3.34-5.24,11-5.81,16.65-5.81,7.57,0,22,2.2,18.34,12.73C100,106.86,77.26,106.7,69.85,98.68Z"/><path class="cls-10" d="M90.23,61.69s2.65,18-10.43,14.91c0,0,8.35,3.31,11.27-1.69C94.34,69.3,90.23,61.69,90.23,61.69Z"/><path class="cls-11" d="M111.61,114.55a31.09,31.09,0,0,1-23.54,11.58C72.5,126.51,63,114.74,63,114.74c-30,1.14-53.08,73.77-46.56,92.7,7.81,22.66,37.83,16.83,37.45,17.21-1.52,1.51,80.48,0,80.48,0l9.49-76.5C140.84,114.36,111.61,114.55,111.61,114.55Z"/><path class="cls-12" d="M63,113.61S73.74,125.49,88.07,125c16.32-.57,22.4-11.57,22.4-11.57l5.5,1.23s-9.68,16.42-27.71,16c-21.08-.45-30.56-15-30.56-15Z"/><polygon class="cls-13" points="128.12 175.1 47.26 175.1 50.67 147.2 124.13 147.2 128.12 175.1"/></g></g></svg>