<svg xmlns="http://www.w3.org/2000/svg" xmlns:xlink="http://www.w3.org/1999/xlink" viewBox="0 0 27.6 34.04"><defs><style>.cls-1{fill:none;}.cls-2{clip-path:url(#clip-path);}.cls-3{fill:#222221;}</style><clipPath id="clip-path"><rect class="cls-1" width="27.6" height="34.04"/></clipPath></defs><title>Artboard 38</title><g id="ייצוא"><g class="cls-2"><path class="cls-3" d="M23.63,4.08h-5.3a4.61,4.61,0,0,0-9.15,0H3.89A3.89,3.89,0,0,0,0,8v.2a3.89,3.89,0,0,0,2.46,3.61V30.14A3.89,3.89,0,0,0,6.35,34H21.18a3.89,3.89,0,0,0,3.89-3.89V11.78a3.89,3.89,0,0,0,2.46-3.61V8a3.89,3.89,0,0,0-3.89-3.89ZM13.76,1.84a2.77,2.77,0,0,1,2.71,2.23H11a2.77,2.77,0,0,1,2.71-2.23Zm9.46,28.3a2,2,0,0,1-2,2H6.35a2,2,0,0,1-2-2V12.05H23.22Zm2.46-22a2,2,0,0,1-2,2H3.89a2,2,0,0,1-2-2V8a2,2,0,0,1,2-2H23.63a2,2,0,0,1,2,2Zm0,0"/></g><path class="cls-3" d="M8.82,29.83a.92.92,0,0,0,.92-.92V18.53a.92.92,0,1,0-1.84,0V28.91a.92.92,0,0,0,.92.92Zm0,0"/><path class="cls-3" d="M13.76,29.83a.92.92,0,0,0,.92-.92V18.53a.92.92,0,1,0-1.84,0V28.91a.92.92,0,0,0,.92.92Zm0,0"/><path class="cls-3" d="M18.7,29.83a.92.92,0,0,0,.92-.92V18.53a.92.92,0,1,0-1.84,0V28.91a.92.92,0,0,0,.92.92Zm0,0"/></g></svg>