<?xml version="1.0" encoding="utf-8"?>
<!-- Generator: Adobe Illustrator 22.0.1, SVG Export Plug-In . SVG Version: 6.00 Build 0)  -->
<svg version="1.1" xmlns="http://www.w3.org/2000/svg" xmlns:xlink="http://www.w3.org/1999/xlink" x="0px" y="0px"
	 viewBox="0 0 166.6 150.6" style="enable-background:new 0 0 166.6 150.6;" xml:space="preserve">
<style type="text/css">
	.st0{display:none;}
	.st1{display:inline;opacity:0.38;}
	.st2{opacity:0.3;fill-rule:evenodd;clip-rule:evenodd;fill:#CCCCCC;}
	.st3{opacity:0.3;}
	.st4{fill-rule:evenodd;clip-rule:evenodd;fill:#EC2224;}
	.st5{fill:#5DCAE6;}
	.st6{fill:#6FC5A2;}
	.st7{fill:#EFDE65;}
	.st8{fill:#F27557;}
	.st9{display:inline;opacity:0.28;fill:#462267;}
	.st10{display:inline;opacity:0.28;fill:#652369;}
	.st11{display:inline;opacity:0.28;fill:#E8E613;}
	.st12{fill:#FFFFFF;}
	.st13{fill:#69B0B3;}
	.st14{fill:#FFF100;stroke:#231F20;stroke-width:1.2022;stroke-miterlimit:10;}
	.st15{fill:#F4DD56;}
	.st16{fill:none;stroke:#423E3F;stroke-miterlimit:10;}
	.st17{fill:#423E3F;}
	.st18{fill:#FFC6CF;}
	.st19{enable-background:new    ;}
	.st20{clip-path:url(#SVGID_2_);enable-background:new    ;}
	.st21{fill:#939393;}
	.st22{fill:#979797;}
	.st23{fill:#9B9B9B;}
	.st24{fill:#9F9F9F;}
	.st25{fill:#A3A3A3;}
	.st26{fill:#8F8F8F;}
	.st27{fill:#8B8B8B;}
	.st28{fill:#878787;}
	.st29{fill:#838383;}
	.st30{fill:#7E7E7E;}
	.st31{fill:#7A7A7A;}
	.st32{fill:#767676;}
	.st33{clip-path:url(#SVGID_4_);enable-background:new    ;}
	.st34{clip-path:url(#SVGID_6_);enable-background:new    ;}
	.st35{clip-path:url(#SVGID_8_);enable-background:new    ;}
	.st36{fill:#6A6A6A;}
	.st37{clip-path:url(#SVGID_10_);enable-background:new    ;}
	.st38{clip-path:url(#SVGID_12_);enable-background:new    ;}
	.st39{clip-path:url(#SVGID_14_);enable-background:new    ;}
	.st40{fill:#6E6E6E;}
	.st41{fill:#727272;}
	.st42{clip-path:url(#SVGID_16_);enable-background:new    ;}
	.st43{clip-path:url(#SVGID_18_);enable-background:new    ;}
	.st44{clip-path:url(#SVGID_20_);enable-background:new    ;}
	.st45{clip-path:url(#SVGID_22_);enable-background:new    ;}
	.st46{clip-path:url(#SVGID_24_);enable-background:new    ;}
	.st47{clip-path:url(#SVGID_26_);enable-background:new    ;}
	.st48{clip-path:url(#SVGID_28_);enable-background:new    ;}
	.st49{clip-path:url(#SVGID_30_);enable-background:new    ;}
	.st50{fill:#A0A0A0;}
	.st51{clip-path:url(#SVGID_32_);enable-background:new    ;}
	.st52{fill:#9A9A9A;}
	.st53{clip-path:url(#SVGID_34_);enable-background:new    ;}
	.st54{clip-path:url(#SVGID_36_);enable-background:new    ;}
	.st55{fill:#787878;}
	.st56{clip-path:url(#SVGID_38_);enable-background:new    ;}
	.st57{clip-path:url(#SVGID_40_);enable-background:new    ;}
	.st58{clip-path:url(#SVGID_42_);enable-background:new    ;}
	.st59{clip-path:url(#SVGID_44_);enable-background:new    ;}
	.st60{clip-path:url(#SVGID_46_);enable-background:new    ;}
	.st61{clip-path:url(#SVGID_48_);enable-background:new    ;}
	.st62{clip-path:url(#SVGID_50_);enable-background:new    ;}
	.st63{clip-path:url(#SVGID_52_);enable-background:new    ;}
	.st64{clip-path:url(#SVGID_54_);enable-background:new    ;}
	.st65{clip-path:url(#SVGID_56_);enable-background:new    ;}
	.st66{clip-path:url(#SVGID_58_);enable-background:new    ;}
	.st67{clip-path:url(#SVGID_60_);enable-background:new    ;}
	.st68{clip-path:url(#SVGID_62_);enable-background:new    ;}
	.st69{clip-path:url(#SVGID_64_);enable-background:new    ;}
	.st70{clip-path:url(#SVGID_66_);enable-background:new    ;}
	.st71{clip-path:url(#SVGID_68_);enable-background:new    ;}
	.st72{clip-path:url(#SVGID_70_);enable-background:new    ;}
	.st73{clip-path:url(#SVGID_72_);enable-background:new    ;}
	.st74{clip-path:url(#SVGID_74_);enable-background:new    ;}
	.st75{clip-path:url(#SVGID_76_);enable-background:new    ;}
	.st76{clip-path:url(#SVGID_78_);enable-background:new    ;}
	.st77{clip-path:url(#SVGID_80_);enable-background:new    ;}
	.st78{clip-path:url(#SVGID_82_);enable-background:new    ;}
	.st79{clip-path:url(#SVGID_84_);enable-background:new    ;}
	.st80{clip-path:url(#SVGID_86_);enable-background:new    ;}
	.st81{clip-path:url(#SVGID_88_);enable-background:new    ;}
	.st82{clip-path:url(#SVGID_90_);enable-background:new    ;}
	.st83{clip-path:url(#SVGID_92_);enable-background:new    ;}
	.st84{clip-path:url(#SVGID_94_);enable-background:new    ;}
	.st85{clip-path:url(#SVGID_96_);enable-background:new    ;}
	.st86{clip-path:url(#SVGID_98_);enable-background:new    ;}
	.st87{clip-path:url(#SVGID_100_);enable-background:new    ;}
	.st88{clip-path:url(#SVGID_102_);enable-background:new    ;}
	.st89{clip-path:url(#SVGID_104_);enable-background:new    ;}
	.st90{clip-path:url(#SVGID_106_);enable-background:new    ;}
	.st91{fill:#009245;}
	.st92{fill:#F17557;}
	.st93{fill:#DB1919;}
	.st94{fill:#594A42;}
	.st95{fill:#EDAA00;}
	.st96{fill:#443630;}
	.st97{fill:#A7A9AC;}
	.st98{fill:#BCBEC0;}
	.st99{fill:#726658;}
	.st100{fill:#FFD35A;}
	.st101{fill:none;stroke:#F27557;stroke-miterlimit:10;}
	.st102{fill:none;stroke:#C0D9DB;stroke-miterlimit:10;}
	.st103{clip-path:url(#SVGID_108_);enable-background:new    ;}
	.st104{clip-path:url(#SVGID_110_);enable-background:new    ;}
	.st105{clip-path:url(#SVGID_112_);enable-background:new    ;}
	.st106{clip-path:url(#SVGID_114_);enable-background:new    ;}
	.st107{clip-path:url(#SVGID_116_);enable-background:new    ;}
	.st108{clip-path:url(#SVGID_118_);enable-background:new    ;}
	.st109{clip-path:url(#SVGID_120_);enable-background:new    ;}
	.st110{clip-path:url(#SVGID_122_);enable-background:new    ;}
	.st111{clip-path:url(#SVGID_124_);enable-background:new    ;}
	.st112{clip-path:url(#SVGID_126_);enable-background:new    ;}
	.st113{clip-path:url(#SVGID_128_);enable-background:new    ;}
	.st114{clip-path:url(#SVGID_130_);enable-background:new    ;}
	.st115{clip-path:url(#SVGID_132_);enable-background:new    ;}
	.st116{clip-path:url(#SVGID_134_);enable-background:new    ;}
	.st117{clip-path:url(#SVGID_136_);enable-background:new    ;}
	.st118{clip-path:url(#SVGID_138_);enable-background:new    ;}
	.st119{clip-path:url(#SVGID_140_);enable-background:new    ;}
	.st120{clip-path:url(#SVGID_142_);enable-background:new    ;}
	.st121{clip-path:url(#SVGID_144_);enable-background:new    ;}
	.st122{clip-path:url(#SVGID_146_);enable-background:new    ;}
	.st123{clip-path:url(#SVGID_148_);enable-background:new    ;}
	.st124{clip-path:url(#SVGID_150_);enable-background:new    ;}
	.st125{clip-path:url(#SVGID_152_);enable-background:new    ;}
	.st126{clip-path:url(#SVGID_154_);enable-background:new    ;}
	.st127{clip-path:url(#SVGID_156_);enable-background:new    ;}
	.st128{clip-path:url(#SVGID_158_);enable-background:new    ;}
	.st129{clip-path:url(#SVGID_160_);enable-background:new    ;}
	.st130{clip-path:url(#SVGID_162_);enable-background:new    ;}
	.st131{clip-path:url(#SVGID_164_);enable-background:new    ;}
	.st132{clip-path:url(#SVGID_166_);enable-background:new    ;}
	.st133{clip-path:url(#SVGID_168_);enable-background:new    ;}
	.st134{clip-path:url(#SVGID_170_);enable-background:new    ;}
	.st135{clip-path:url(#SVGID_172_);enable-background:new    ;}
	.st136{clip-path:url(#SVGID_174_);enable-background:new    ;}
	.st137{clip-path:url(#SVGID_176_);enable-background:new    ;}
	.st138{clip-path:url(#SVGID_178_);enable-background:new    ;}
	.st139{clip-path:url(#SVGID_180_);enable-background:new    ;}
	.st140{clip-path:url(#SVGID_182_);enable-background:new    ;}
	.st141{clip-path:url(#SVGID_184_);enable-background:new    ;}
	.st142{clip-path:url(#SVGID_186_);enable-background:new    ;}
	.st143{clip-path:url(#SVGID_188_);enable-background:new    ;}
	.st144{clip-path:url(#SVGID_190_);enable-background:new    ;}
	.st145{clip-path:url(#SVGID_192_);enable-background:new    ;}
	.st146{clip-path:url(#SVGID_194_);enable-background:new    ;}
	.st147{clip-path:url(#SVGID_196_);enable-background:new    ;}
	.st148{clip-path:url(#SVGID_198_);enable-background:new    ;}
	.st149{clip-path:url(#SVGID_200_);enable-background:new    ;}
	.st150{clip-path:url(#SVGID_202_);enable-background:new    ;}
	.st151{clip-path:url(#SVGID_204_);enable-background:new    ;}
	.st152{clip-path:url(#SVGID_206_);enable-background:new    ;}
	.st153{fill:none;stroke:#BCE6F4;stroke-width:5;stroke-miterlimit:10;}
	.st154{fill:none;stroke:#231F20;stroke-miterlimit:10;}
	.st155{fill:#FB485D;}
	.st156{fill:#94D2E0;}
	.st157{clip-path:url(#SVGID_208_);fill:#222221;}
	.st158{fill:#222221;}
	.st159{fill:#231F20;}
	.st160{fill:#A6E2C8;}
	.st161{fill:#FFF100;}
	.st162{fill:none;stroke:#1AB17F;stroke-miterlimit:10;}
	.st163{fill:#8DCCDB;}
	.st164{fill:#FEDCD6;}
	.st165{fill:#DB4B5F;}
	.st166{fill:#FDA898;}
	.st167{fill:#AED4D5;}
	.st168{fill:#E8EFEF;}
	.st169{fill:none;stroke:#4C6363;stroke-width:0.405;stroke-miterlimit:10;}
	.st170{clip-path:url(#SVGID_210_);fill:#222221;}
	.st171{clip-path:url(#SVGID_212_);fill:#222221;}
	.st172{clip-path:url(#SVGID_214_);fill:#222221;}
	.st173{clip-path:url(#SVGID_216_);fill:#222221;}
	.st174{clip-path:url(#SVGID_218_);fill:#222221;}
	.st175{clip-path:url(#SVGID_220_);fill:#222221;}
	.st176{fill:#4C6363;}
	.st177{fill:#EEDE65;}
</style>
<g id="קווי_עזר" class="st0">
</g>
<g id="bootstrap_grid" class="st0">
</g>
<g id="Layer_1">
</g>
<g id="המשך_שאלות">
</g>
<g id="המשך_רגשות">
</g>
<g id="מסך_שאלות">
	<g id="שאלות">
	</g>
</g>
<g id="מסך_רגשות">
</g>
<g id="מסך_רצונות">
	<g>
		<g>
			<g>
				<g>
					<path class="st17" d="M49,53c10.6-4.8,21.7-2.5,32.8-1.2c5.5,0.7,11,0.8,16.6,0.9c5.1,0.1,13.7-1,17.3,3.2
						c0.1-0.9,0.1-1.8,0.2-2.7c-5,1.5-10.4,1.2-15.6,1.4c-5.4,0.2-10.8,0.3-16.2,0.5c-5.2,0.1-10.4,0.2-15.6-0.1
						c-5.1-0.3-11.7-0.3-15-4.8c-0.8-1-1.3,1.8-0.8,2.6c2.6,3.6,6.8,4.3,10.9,4.8c6.1,0.7,12.4,0.7,18.5,0.5
						c6.1-0.1,12.1-0.3,18.1-0.5c5.3-0.2,10.8,0,16-1.5c0.9-0.3,0.6-2.2,0.2-2.7c-3-3.4-8-3.2-12.2-3.5c-6.9-0.4-13.7-0.1-20.6-0.8
						c-11.8-1.3-23.8-4-35.1,1.1C47.7,50.5,48,53.5,49,53L49,53z"/>
				</g>
			</g>
			<g>
				<g>
					<path class="st17" d="M123.3,76.3c1.5-4.2,6.9-5.4,10.8-4.5c5.7,1.2,6.6,7.4,7.4,12.3c0.7,4.3,0.7,8.8,0.1,13.1
						c-0.7,5.4-1.9,9.1-7.3,11.2c-2.3,0.9-8.9,3.6-11.6,2.7c-1.7-0.6-1.3-2.1-1.4-4.1c-0.1-1.9-0.2-3.8-0.3-5.7
						c-0.4-8.7-1.1-16.7,1.3-25.2c0.3-1.1-0.8-3.4-1.3-1.5c-1.8,6.5-2.2,12.3-1.8,19c0.2,3.8,0.4,7.7,0.5,11.5
						c0.1,2.7-0.2,5.6,0.7,8.2c0.1,0.3,0.3,0.7,0.6,0.7c5,1,16-2,19.2-6.3c3.9-5.2,3.6-14.8,3.1-20.9c-0.4-4.9-1.1-15.3-6.4-17.5
						C131.4,67,124,69,122,74.8C121.6,75.8,122.6,78.2,123.3,76.3L123.3,76.3z"/>
				</g>
			</g>
			<g>
				<path class="st12" d="M120,53.3c-0.1,6.6,0.2,13.2,1,19.7"/>
				<g>
					<path class="st17" d="M119.2,53.3c-0.1,6.7,0.2,13.4,1,20.1c0.2,2,1.6,0.6,1.4-0.8c-0.7-6.4-1.1-12.9-0.9-19.3
						C120.8,51.5,119.3,51.5,119.2,53.3L119.2,53.3z"/>
				</g>
			</g>
			<g>
				<g>
					<path class="st17" d="M44.9,52.6c-0.8,18.3-0.8,36.5-0.1,54.8c0.3,7.9,0.6,15.9,1.4,23.8c0.6,6.1,3.1,9.2,8.5,12.1
						c6,3.3,12.8,5,19.6,5.9c7.5,1,16,1.7,23.5,0.3c6-1.1,14.7-4.6,18.3-9.9c1.5-2.3,2-5.1,2.6-7.6c1-4.3,2-8.5,3-12.8
						c0.2-1-0.8-3.4-1.3-1.5c-1.5,6.4-2.1,17.1-7.3,21.6c-5.3,4.6-13.3,7.5-20.1,7.8c-12.6,0.6-26.7-0.5-38-6.6
						c-4.1-2.2-6.6-4.2-7.4-9.3c-0.6-3.9-0.6-8.1-0.8-12c-0.4-7.2-0.7-14.3-0.9-21.5c-0.4-15-0.2-30,0.4-45
						C46.5,50.8,45,50.8,44.9,52.6L44.9,52.6z"/>
				</g>
			</g>
			<g>
				<g>
					<path class="st17" d="M71.4,51.1c-0.4-8-5.9-15.7-9.4-22.7C57.4,19.3,52.8,10.2,48.3,1c-0.2-0.4-0.6-0.6-0.9-0.2
						c-7,7.8-14.9,14.6-23.7,20.3c-0.9,0.6-0.5,3.5,0.4,2.9c5-3.2,9.7-6.7,14.2-10.7c2.4-2.1,4.7-4.4,6.9-6.7c0.9-1,1.4-2.3,2.9-1.7
						c0.6,0.2,2.4,4.7,2.7,5.3c3.2,6.5,6.5,13,9.7,19.4c1.5,2.9,3,5.9,4.4,8.8c2,3.9,4.8,8.1,5,12.6C70,52.9,71.5,52.9,71.4,51.1
						L71.4,51.1z"/>
				</g>
			</g>
		</g>
		<path class="st166" d="M48.5,96.7c0,0-1,34,3,36c1.9,1,14.2,9.2,27,11c13.9,1.9,28.4-2.8,31-7c5-8,8-36,7-40s-30.8,4-33,4
			C78.5,100.7,48.5,96.7,48.5,96.7z"/>
	</g>
</g>
<g id="מסך_פתיחה">
</g>
<g id="מקלדת_נפתחת">
</g>
</svg>
