<svg xmlns="http://www.w3.org/2000/svg" viewBox="0 0 166.57 150.64"><defs><style>.cls-1{fill:#fff;}.cls-2{fill:#423e3f;}.cls-3{fill:#db1919;}</style></defs><title>eat</title><g id="מסך_רצונות" data-name="מסך רצונות"><g id="מסך_רצונות-2" data-name="מסך רצונות"><path class="cls-1" d="M55.05,78.9C39,81.48-11.06,91,4.42,103.8S125.7,122.66,162,97.38c4.24-3.64,4.62-9.1-2-13.31-5.69-3.64-18.21-6.32-29.19-7.66C99.53,72.86,73.75,77.08,55.05,78.9Z"/><path class="cls-2" d="M55.61,77.94c-11.52,1.91-23.56,4.21-35.68,8.14C14,88,1.66,92.3.83,99.2c-.73,6.23,7.76,8.52,12.85,10.06,9,2.68,18.91,4.11,29.05,5.07,24.15,2.4,50.59,2.69,78.63-2.1,10.06-1.73,21.1-4.12,31.86-9.2,3.3-1.53,8.05-3.73,10.41-6.8,3.74-4.6,1.92-8.43-.22-10.73-4.7-5.17-13.92-6.89-22-8.42a190.5,190.5,0,0,0-32.2-3c-17-.19-35.3,2-53.61,3.83-.73.09-1.69,1.91-1.11,1.91,31.62-3.16,62.35-5.93,88.75-.28,6.88,1.43,14.16,3.16,18.46,7.37,2.19,2.2,4.55,5.94-.83,10.54a29.1,29.1,0,0,1-6.15,3.44c-9.82,4.79-19.89,7.19-29.18,8.91-24.27,4.6-47.09,4.89-68.4,3.74-17.37-1-36.56-2.11-49.38-8.91-2.49-1.34-7.29-4-4.95-8,2.5-4.31,11.2-7,15.25-8.33,12.48-4.21,24.71-6.51,36.52-8.43C55.32,79.76,56.34,77.84,55.61,77.94Z"/><path class="cls-1" d="M65.85,85c-10,1.62-41.07,7.47-31.48,15.51s75.37,11.78,98-4c2.63-2.2,2.9-5.65-1.28-8.24-3.58-2.3-11.31-3.92-18.14-4.79C93.47,81.29,77.51,83.88,65.85,85Z"/><path class="cls-2" d="M66.41,84.07C60.55,85,34,88.28,31.91,97.48c-.9,4,4.42,5.65,7.53,6.61,5.69,1.81,12.13,2.68,18.67,3.35a177.48,177.48,0,0,0,50.4-1.63c6.8-1.25,31.27-7.18,25.61-16.19-2.18-3.54-7.68-4.69-12.37-5.74a112.36,112.36,0,0,0-20.21-2.21c-11.17-.19-23.19,1.25-35.13,2.4-.73.09-1.7,1.91-1.12,1.91,18.85-1.91,37.25-3.54,53.35-.57,3.66.67,23.56,5.75,10,12.64a65.41,65.41,0,0,1-17.94,5.65c-14.59,2.87-28.25,3.16-41.12,2.59-11.29-.48-23.37-1.25-32.08-5.17-1.54-.67-4-1.73-4.07-3.45-.17-3.35,5.86-5.27,8.89-6.32a141.48,141.48,0,0,1,23-5.37C66,85.89,67.14,84,66.41,84.07Z"/><path class="cls-3" d="M70.57,98.63c13,.57,26.1.86,39.67.57,2.21,0,8.17.86,11.22-1.72a3.66,3.66,0,0,0,.58-5c-3.17-5.65-15.7-3.83-23.93-2.78-6.32.77-12.82,1.82-19.32,3.06-4.31.77-12,1.15-16.51,4-.52.38-1,1-.78,1.34,2,3.25,11.53,2.87,16.24,3.06,8.07.39,16.19.67,24.53.58,4.63,0,9.41-.1,14.31-.58,2.24-.19,5.09-.29,7.6-1.63,4.84-2.68,1.82-5.26.22-6.51-8.18-6.8-21.36-7.85-36.08-5.75-9.2,1.25-18.65,3.07-28.22,5.27-4.32,1-8.65,2.11-13,3.35-3.1.87-7,1.54-10.1,3.45a2.13,2.13,0,0,0-.84,1c-.73,3.74,9.85,2.78,12.82,3a222.84,222.84,0,0,0,26.43-.19c7.51-.48,16.76-.48,25.18-3.35,4.61-1.63,5.6-3.84,3.5-5.85-3.64-3.35-10.21-4.5-16.18-5.17a91.4,91.4,0,0,0-25.35.67c-5.86,1-14.45,2.3-20.73,6.13-4.5,2.78-1.65,3.83.89,4.12,9.45,1.15,20.44.48,31-.29,4.41-.29,8.93-.76,13.5-1.34,2.19-.29,6.75,0,9.09-2.2.57-.48.66-1,.34-1.25-2.27-3.06-12.44-1.15-17.31-.57-3.74.48-7.6,1.15-11.37,1.82-3,.57-6.77.86-10,2.39a1.8,1.8,0,0,0-1.11,1.25c-.07,2.1,3.94,2,5.89,2.3,4.14.67,8.39,1.15,12.85,1.43a174.59,174.59,0,0,0,30.62-.76c.83-.1,2.23-1.34,1.49-1.73-8.18-5.17-22.1-4.59-34-4.69C72.46,96,71.4,97.86,72.6,98c11.6.1,25.3-.57,33.29,4.41.53-.57,1-1.15,1.49-1.72a183.79,183.79,0,0,1-24.71,1c-2.46-.1-23.93-1-23.08-2.59,0,0,10.9-2,11.54-2.1a118.94,118.94,0,0,1,14.79-1.73c2.36-.09,4.53,0,6.69.1,3.07.19.62.1-1.19.38-5,.77-9.88,1.25-14.79,1.73a245,245,0,0,1-26.18.76c-1.87-.09-11.26-.19-4.55-2.77A71.81,71.81,0,0,1,58.41,92a87.8,87.8,0,0,1,27.52-1.25A59.67,59.67,0,0,1,96.51,93a18,18,0,0,1,4,1.81c.37.2,1.3.58,1.5,1.06,1,2-1,2.39-3.51,3.06-9.19,2.21-18.23,2.49-26.64,2.88a207.07,207.07,0,0,1-24.47-.2c-2-.09-3.88-.28-5.79-.47-1.15-.2-2.87.28-1.47-1a6.08,6.08,0,0,1,2.64-1.06A136.48,136.48,0,0,1,56.5,95.47c9.34-2.3,18.44-4,27.47-5.46,9.66-1.54,19-2.21,26.73-.39A33.79,33.79,0,0,1,118,92.3c1.48.77,8.53,4.22,3,7-3.42,1.72-10.39,1-13.34,1-4.2.1-8.44.1-12.53,0-8-.19-16.08-.19-23.68-1-1.53-.2-5.58-.2-6.6-1.25-.95-.86-.59.19,0-.29s3.88-.86,4.61-1c5.14-1.06,10.23-2,15.36-2.88,9.62-1.63,20-3.44,28.34-2.49,2.73.29,5.46,1.06,6.56,3s-.29,3.16-3.39,3.35c-5,.39-10,.19-14.77.19-10.12,0-20.22-.19-30.07-.67-1-.57-2.13,1.35-.87,1.35Z"/></g><path d="M88.4,86.42c-3.1-6.08-10.06-17-18.37-13.67s-2.36,14.94,1.36,19.47c1.09,1.34,3-.57,1.89-1.89C70.59,87,64.42,74.78,73,74.84c6,0,10.67,8.28,13,12.94.79,1.54,3.11.18,2.32-1.36Z"/><path d="M79.46,87.62c-3-6.77-7.54-12.72-10.39-19.54-1.52-3.63-2.85-7.34-4.35-11-3.2-7.77-6.3-15.75-10.31-23.15-.82-1.52-3.14-.17-2.32,1.35C56.35,43.15,59.63,51.65,63,59.91c1.18,2.91,2.23,5.87,3.41,8.78C69.26,75.8,74.05,82,77.14,89c.69,1.58,3,.21,2.32-1.35Z"/><path class="cls-2" d="M87.57,87c-2.85-5.57-8.75-15.37-16.31-13.28C63,76,68.53,87.12,72,91.36c.06.08.59-.24.65-.17-3-3.64-9-14.71-1.79-17.3s13.49,8.27,16,13.3c0,0,.63-.21.65-.18Z"/><path class="cls-2" d="M88.73,86.34c-3.23-6.21-9.17-16.09-17.55-14-7.06,1.79-6.13,9-3.63,14.26.76,1.63,2.72,6.36,4.9,6s1.16-2.26.39-3.47C71,86.33,69.17,83,69,79.5c-.29-4.93,4.48-5.41,8-3.19a19.81,19.81,0,0,1,5.5,5.85c.8,1.18,2.49,5.74,3.79,6.24a1.84,1.84,0,0,0,2.47-2.06s-.66.15-.65.17c.29,1.39-.5,2.13-1.67,1.18-.69-.56-1.24-2.35-1.69-3.13A30.12,30.12,0,0,0,79.88,78c-2.24-2.19-5.12-3.79-8.33-3-6.27,1.52-2,10.24.15,13.63.45.73,2.94,3.79.61,4-1,.07-2.72-3.45-3.12-4.16-1.88-3.32-4-8-2.6-11.93C68.53,71,75.17,71.7,79,74.57c4,3,6.79,7.56,9.06,11.94C88.1,86.56,88.71,86.3,88.73,86.34Z"/><path class="cls-2" d="M78.62,88.21c-3-6.75-7.49-12.69-10.37-19.46-1.45-3.4-2.66-6.9-4.06-10.32-3.29-8-6.48-16.26-10.61-23.89,0,0-.63.21-.65.17,4.13,7.63,7.32,15.88,10.61,23.89,1.29,3.15,2.43,6.36,3.7,9.5C70.12,75.21,74.89,81.37,78,88.38c0,0,.64-.2.65-.17Z"/><path class="cls-2" d="M79.78,87.53C76.69,80.82,72.33,74.78,69.39,68c-2.75-6.37-5.11-12.94-7.78-19.35-1-2.37-5.45-15.8-8.33-15.39A1.71,1.71,0,0,0,51.69,35c-.09,1.24,1.57,3.28,2.13,4.42.92,1.88,1.8,3.78,2.66,5.69,1.46,3.29,2.82,6.63,4.17,10,2.85,7,5.23,14.26,8.95,20.87,1.87,3.34,3.93,6.58,5.68,10,.66,1.28,1.14,4,2.89,3.83a1.78,1.78,0,0,0,1.61-2.17s-.65.13-.65.17c.33,3.25-1.7.91-2.41-.42-1.23-2.35-2.47-4.68-3.81-7A98.63,98.63,0,0,1,65.7,66c-2.08-5.39-4.21-10.78-6.45-16.11-1-2.5-2.11-5-3.24-7.43-.69-1.49-3.84-6-3.67-7.65.28-2.61,1.87-.39,2.59.85A72.88,72.88,0,0,1,58.45,43c2.32,5.2,4.47,10.48,6.58,15.77a142.46,142.46,0,0,0,5.92,14c2.66,5,5.8,9.76,8.18,14.93C79.15,87.74,79.77,87.5,79.78,87.53Z"/></g></svg>