<?xml version="1.0" encoding="utf-8"?>
<!-- Generator: Adobe Illustrator 22.0.1, SVG Export Plug-In . SVG Version: 6.00 Build 0)  -->
<svg version="1.1" xmlns="http://www.w3.org/2000/svg" xmlns:xlink="http://www.w3.org/1999/xlink" x="0px" y="0px"
	 viewBox="0 0 241.9 204" style="enable-background:new 0 0 241.9 204;" xml:space="preserve">
<style type="text/css">
	.st0{display:none;}
	.st1{display:inline;opacity:0.38;}
	.st2{opacity:0.3;fill-rule:evenodd;clip-rule:evenodd;fill:#CCCCCC;}
	.st3{opacity:0.3;}
	.st4{fill-rule:evenodd;clip-rule:evenodd;fill:#EC2224;}
	.st5{fill:#5DCAE6;}
	.st6{fill:#6FC5A2;}
	.st7{fill:#EFDE65;}
	.st8{fill:#F27557;}
	.st9{display:inline;opacity:0.28;fill:#462267;}
	.st10{display:inline;opacity:0.28;fill:#652369;}
	.st11{display:inline;opacity:0.28;fill:#E8E613;}
	.st12{fill:#FFFFFF;}
	.st13{fill:#69B0B3;}
	.st14{fill:#FFF100;stroke:#231F20;stroke-width:1.2022;stroke-miterlimit:10;}
	.st15{fill:#F4DD56;}
	.st16{fill:none;stroke:#423E3F;stroke-miterlimit:10;}
	.st17{fill:#423E3F;}
	.st18{fill:#FFC6CF;}
	.st19{enable-background:new    ;}
	.st20{clip-path:url(#SVGID_2_);enable-background:new    ;}
	.st21{fill:#939393;}
	.st22{fill:#979797;}
	.st23{fill:#9B9B9B;}
	.st24{fill:#9F9F9F;}
	.st25{fill:#A3A3A3;}
	.st26{fill:#8F8F8F;}
	.st27{fill:#8B8B8B;}
	.st28{fill:#878787;}
	.st29{fill:#838383;}
	.st30{fill:#7E7E7E;}
	.st31{fill:#7A7A7A;}
	.st32{fill:#767676;}
	.st33{clip-path:url(#SVGID_4_);enable-background:new    ;}
	.st34{clip-path:url(#SVGID_6_);enable-background:new    ;}
	.st35{clip-path:url(#SVGID_8_);enable-background:new    ;}
	.st36{fill:#6A6A6A;}
	.st37{clip-path:url(#SVGID_10_);enable-background:new    ;}
	.st38{clip-path:url(#SVGID_12_);enable-background:new    ;}
	.st39{clip-path:url(#SVGID_14_);enable-background:new    ;}
	.st40{fill:#6E6E6E;}
	.st41{fill:#727272;}
	.st42{clip-path:url(#SVGID_16_);enable-background:new    ;}
	.st43{clip-path:url(#SVGID_18_);enable-background:new    ;}
	.st44{clip-path:url(#SVGID_20_);enable-background:new    ;}
	.st45{clip-path:url(#SVGID_22_);enable-background:new    ;}
	.st46{clip-path:url(#SVGID_24_);enable-background:new    ;}
	.st47{clip-path:url(#SVGID_26_);enable-background:new    ;}
	.st48{clip-path:url(#SVGID_28_);enable-background:new    ;}
	.st49{clip-path:url(#SVGID_30_);enable-background:new    ;}
	.st50{fill:#A0A0A0;}
	.st51{clip-path:url(#SVGID_32_);enable-background:new    ;}
	.st52{fill:#9A9A9A;}
	.st53{clip-path:url(#SVGID_34_);enable-background:new    ;}
	.st54{clip-path:url(#SVGID_36_);enable-background:new    ;}
	.st55{fill:#787878;}
	.st56{clip-path:url(#SVGID_38_);enable-background:new    ;}
	.st57{clip-path:url(#SVGID_40_);enable-background:new    ;}
	.st58{clip-path:url(#SVGID_42_);enable-background:new    ;}
	.st59{clip-path:url(#SVGID_44_);enable-background:new    ;}
	.st60{clip-path:url(#SVGID_46_);enable-background:new    ;}
	.st61{clip-path:url(#SVGID_48_);enable-background:new    ;}
	.st62{clip-path:url(#SVGID_50_);enable-background:new    ;}
	.st63{clip-path:url(#SVGID_52_);enable-background:new    ;}
	.st64{clip-path:url(#SVGID_54_);enable-background:new    ;}
	.st65{clip-path:url(#SVGID_56_);enable-background:new    ;}
	.st66{clip-path:url(#SVGID_58_);enable-background:new    ;}
	.st67{clip-path:url(#SVGID_60_);enable-background:new    ;}
	.st68{clip-path:url(#SVGID_62_);enable-background:new    ;}
	.st69{clip-path:url(#SVGID_64_);enable-background:new    ;}
	.st70{clip-path:url(#SVGID_66_);enable-background:new    ;}
	.st71{clip-path:url(#SVGID_68_);enable-background:new    ;}
	.st72{clip-path:url(#SVGID_70_);enable-background:new    ;}
	.st73{clip-path:url(#SVGID_72_);enable-background:new    ;}
	.st74{clip-path:url(#SVGID_74_);enable-background:new    ;}
	.st75{clip-path:url(#SVGID_76_);enable-background:new    ;}
	.st76{clip-path:url(#SVGID_78_);enable-background:new    ;}
	.st77{clip-path:url(#SVGID_80_);enable-background:new    ;}
	.st78{clip-path:url(#SVGID_82_);enable-background:new    ;}
	.st79{clip-path:url(#SVGID_84_);enable-background:new    ;}
	.st80{clip-path:url(#SVGID_86_);enable-background:new    ;}
	.st81{clip-path:url(#SVGID_88_);enable-background:new    ;}
	.st82{clip-path:url(#SVGID_90_);enable-background:new    ;}
	.st83{clip-path:url(#SVGID_92_);enable-background:new    ;}
	.st84{clip-path:url(#SVGID_94_);enable-background:new    ;}
	.st85{clip-path:url(#SVGID_96_);enable-background:new    ;}
	.st86{clip-path:url(#SVGID_98_);enable-background:new    ;}
	.st87{clip-path:url(#SVGID_100_);enable-background:new    ;}
	.st88{clip-path:url(#SVGID_102_);enable-background:new    ;}
	.st89{clip-path:url(#SVGID_104_);enable-background:new    ;}
	.st90{clip-path:url(#SVGID_106_);enable-background:new    ;}
	.st91{fill:#009245;}
	.st92{fill:#F17557;}
	.st93{fill:#DB1919;}
	.st94{fill:#594A42;}
	.st95{fill:#EDAA00;}
	.st96{fill:#443630;}
	.st97{fill:#A7A9AC;}
	.st98{fill:#BCBEC0;}
	.st99{fill:#726658;}
	.st100{fill:#FFD35A;}
	.st101{fill:none;stroke:#F27557;stroke-miterlimit:10;}
	.st102{fill:none;stroke:#C0D9DB;stroke-miterlimit:10;}
	.st103{clip-path:url(#SVGID_108_);enable-background:new    ;}
	.st104{clip-path:url(#SVGID_110_);enable-background:new    ;}
	.st105{clip-path:url(#SVGID_112_);enable-background:new    ;}
	.st106{clip-path:url(#SVGID_114_);enable-background:new    ;}
	.st107{clip-path:url(#SVGID_116_);enable-background:new    ;}
	.st108{clip-path:url(#SVGID_118_);enable-background:new    ;}
	.st109{clip-path:url(#SVGID_120_);enable-background:new    ;}
	.st110{clip-path:url(#SVGID_122_);enable-background:new    ;}
	.st111{clip-path:url(#SVGID_124_);enable-background:new    ;}
	.st112{clip-path:url(#SVGID_126_);enable-background:new    ;}
	.st113{clip-path:url(#SVGID_128_);enable-background:new    ;}
	.st114{clip-path:url(#SVGID_130_);enable-background:new    ;}
	.st115{clip-path:url(#SVGID_132_);enable-background:new    ;}
	.st116{clip-path:url(#SVGID_134_);enable-background:new    ;}
	.st117{clip-path:url(#SVGID_136_);enable-background:new    ;}
	.st118{clip-path:url(#SVGID_138_);enable-background:new    ;}
	.st119{clip-path:url(#SVGID_140_);enable-background:new    ;}
	.st120{clip-path:url(#SVGID_142_);enable-background:new    ;}
	.st121{clip-path:url(#SVGID_144_);enable-background:new    ;}
	.st122{clip-path:url(#SVGID_146_);enable-background:new    ;}
	.st123{clip-path:url(#SVGID_148_);enable-background:new    ;}
	.st124{clip-path:url(#SVGID_150_);enable-background:new    ;}
	.st125{clip-path:url(#SVGID_152_);enable-background:new    ;}
	.st126{clip-path:url(#SVGID_154_);enable-background:new    ;}
	.st127{clip-path:url(#SVGID_156_);enable-background:new    ;}
	.st128{clip-path:url(#SVGID_158_);enable-background:new    ;}
	.st129{clip-path:url(#SVGID_160_);enable-background:new    ;}
	.st130{clip-path:url(#SVGID_162_);enable-background:new    ;}
	.st131{clip-path:url(#SVGID_164_);enable-background:new    ;}
	.st132{clip-path:url(#SVGID_166_);enable-background:new    ;}
	.st133{clip-path:url(#SVGID_168_);enable-background:new    ;}
	.st134{clip-path:url(#SVGID_170_);enable-background:new    ;}
	.st135{clip-path:url(#SVGID_172_);enable-background:new    ;}
	.st136{clip-path:url(#SVGID_174_);enable-background:new    ;}
	.st137{clip-path:url(#SVGID_176_);enable-background:new    ;}
	.st138{clip-path:url(#SVGID_178_);enable-background:new    ;}
	.st139{clip-path:url(#SVGID_180_);enable-background:new    ;}
	.st140{clip-path:url(#SVGID_182_);enable-background:new    ;}
	.st141{clip-path:url(#SVGID_184_);enable-background:new    ;}
	.st142{clip-path:url(#SVGID_186_);enable-background:new    ;}
	.st143{clip-path:url(#SVGID_188_);enable-background:new    ;}
	.st144{clip-path:url(#SVGID_190_);enable-background:new    ;}
	.st145{clip-path:url(#SVGID_192_);enable-background:new    ;}
	.st146{clip-path:url(#SVGID_194_);enable-background:new    ;}
	.st147{clip-path:url(#SVGID_196_);enable-background:new    ;}
	.st148{clip-path:url(#SVGID_198_);enable-background:new    ;}
	.st149{clip-path:url(#SVGID_200_);enable-background:new    ;}
	.st150{clip-path:url(#SVGID_202_);enable-background:new    ;}
	.st151{clip-path:url(#SVGID_204_);enable-background:new    ;}
	.st152{clip-path:url(#SVGID_206_);enable-background:new    ;}
	.st153{fill:none;stroke:#BCE6F4;stroke-width:5;stroke-miterlimit:10;}
	.st154{fill:none;stroke:#231F20;stroke-miterlimit:10;}
	.st155{fill:#FB485D;}
	.st156{fill:#94D2E0;}
	.st157{clip-path:url(#SVGID_208_);fill:#222221;}
	.st158{fill:#222221;}
	.st159{fill:#231F20;}
	.st160{fill:#A6E2C8;}
	.st161{fill:#FFF100;}
	.st162{fill:none;stroke:#1AB17F;stroke-miterlimit:10;}
	.st163{fill:#8DCCDB;}
	.st164{fill:#FEDCD6;}
	.st165{fill:#DB4B5F;}
	.st166{fill:#FDA898;}
	.st167{fill:#AED4D5;}
	.st168{fill:#E8EFEF;}
	.st169{fill:none;stroke:#4C6363;stroke-width:0.405;stroke-miterlimit:10;}
	.st170{clip-path:url(#SVGID_210_);fill:#222221;}
	.st171{clip-path:url(#SVGID_212_);fill:#222221;}
	.st172{clip-path:url(#SVGID_214_);fill:#222221;}
	.st173{clip-path:url(#SVGID_216_);fill:#222221;}
	.st174{clip-path:url(#SVGID_218_);fill:#222221;}
	.st175{clip-path:url(#SVGID_220_);fill:#222221;}
	.st176{fill:#4C6363;}
	.st177{fill:#EEDE65;}
</style>
<g id="קווי_עזר" class="st0">
</g>
<g id="bootstrap_grid" class="st0">
</g>
<g id="Layer_1">
</g>
<g id="המשך_שאלות">
</g>
<g id="המשך_רגשות">
</g>
<g id="מסך_שאלות">
	<g id="שאלות">
	</g>
</g>
<g id="מסך_רגשות">
</g>
<g id="מסך_רצונות">
</g>
<g id="מסך_פתיחה">
	<g>
		<g>
			<g>
				<g>
					<g>
						<path d="M56,178.9c-1.1,3.9-2.3,7.7-4.2,11.3c-0.8,1.4-1.6,2.9-2.6,4.1c-3.4,3.8-8.6,3.6-8.8-2.9c0-0.6-0.6-3.2-1.6-1.9
							c-1.2,1.6-3,4.5-5,4.9c-3.6,0.7-3.8-2.9-5.9-4.7c-2-1.7-4-2.4-5.6-4.7c-2.9-4-5.3-8.4-7.4-12.8c-8.5-17.4-11.8-36.4-10.2-55.6
							c3-34.9,22.8-68.7,53.2-86.7c15.3-9,32.1-14.8,50-15.2c17.3-0.3,34.8,3.3,50.3,10.9c14.6,7.2,27.7,18.2,36.3,32.2
							c9.1,14.8,14.2,32.2,16.7,49.3c1.4,9.6,2,19.3,2.1,28.9c0.2,8.5-1.8,16.5-3.7,24.8c-2,8.4-3.9,17-6.8,25.2
							c-0.8,2.3-1.7,4.5-2.8,6.6c-0.9,1.9-0.6,1.7-3,2.4c-2.6,0.7-2.8,0.4-3.6-1.9c-0.9-2.8-0.5-5.8-1.4-8.6
							c-0.2-0.7-0.8-1.5-1.5-0.8c-1.6,1.6-4.2,3-6.1,4.5c-2.9,2.3-5.7,4.7-8.7,6.8c-4.4,3-11.4,6.6-13.4-1.3
							c-0.6-2.4-0.3-5.1-0.2-7.6c0-0.7-0.2-1.9,0-2.6c0-0.4,0-0.8-0.1-1.3c-0.1-0.8,0.4-0.8,1.7,0.1c1,2.7,2.4-0.7,1.9-2.2
							c-1.8-5.1-5.8-1.9-5.8,2.2c0,5.5-1.5,14.6,3.2,18.9c5,4.6,12.6-1.5,16.6-4.6c3.7-2.9,8.6-5.9,11.9-9.2c-0.5-0.3-1-0.5-1.5-0.8
							c1.3,4-0.2,12.8,5.8,13.7c6.1,0.9,8.7-12,10-16.1c5.1-16.7,10-34.4,9.4-52c-1.1-36.9-9.7-76.6-40.1-100.5
							c-15.4-12.1-34.4-18.9-53.9-21c-20.3-2.1-39.7,1.8-57.8,11.2c-35,18.1-57.8,54.3-61.2,93.3c-2,22.1,2.1,44.2,12.8,63.8
							c2.1,3.8,4.4,8.7,7.5,11.7c1,1,2.6,1.4,3.6,2.4c0.9,0.9,0.4,0.7,1,2.4c2.5,7.5,9.8,1,12.4-2.5c-0.5-0.6-1.1-1.3-1.6-1.9
							c0.2,5.2,2.5,12.4,9.2,9c6.3-3.2,8.8-13.1,10.5-19.2C58.3,179.6,56.8,176.2,56,178.9L56,178.9z"/>
					</g>
				</g>
				<g>
					<path class="st12" d="M113,100c7,7.2,18.4,12.6,34.1,7.6c13.1-4.3,24.2-14.8,33.3-22.9l1.1-1.3c0.7-0.5,1.3-1,1.9-1.3
						c0.9-0.7,1.8-1.1,2.7-1.1c1.1,0,2.1,0.4,3,1.3c2,1.4,3,4.4,3.2,8.9c0,1.3-0.1,2.9-0.3,4.8v3.5c0,12.7-2.2,38.4-6.7,49.3
						c-4.5,10.9-11.4,20.2-20.8,27.8c-9.4,7.6-20.6,12.2-33.4,13.8c-29.4,3.6-53.6,0.1-72.5-10.5l-3.2-1.9
						c-11.1-7-19.6-16.5-25.5-28.5c-5.4-10.9-8.6-20.5-9.7-28.7c-0.2-1.8-0.3-22.1-0.3-25c4.5,2.1,13.9,5.8,20.1,6.9
						c12.4,2.1,26.1,6.7,41.1,4.9c9.1-1.1,27.1-6.4,35.2-8.7L113,100z"/>
					<g>
						<path d="M112.8,100.4c11.8,11.7,28.2,11.7,42.4,4.2c7.5-4,14.1-9.5,20.4-15.1c2.5-2.2,5-5.3,7.8-7c8.2-4.8,8.4,8.9,8.3,13.4
							c-0.4,13.7-0.9,27.4-3.5,40.9c-3.5,18.1-14.5,34-30.2,43.7c-16.6,10.3-37.8,11.5-56.8,10.4c-16-1-32-4.9-45.7-13.4
							c-17.1-10.5-27.6-28.4-33.1-47.4c-1.7-6-2.1-11.5-2.2-17.7c0-2.9,0-5.8-0.1-8.6c0-1.3-0.8-6.3,0-7.3c0.2-0.2,8.1,3.3,9.7,3.8
							c3.8,1.3,7.7,2.3,11.7,3.1c10.7,2,21.2,5,32.1,5c9.1,0,18-2.3,26.8-4.7c3.7-1,7.3-2,10.9-3.1c0.3-0.1,5.7-1.3,4.6-2.4
							c-0.2-0.2-2.6,0.9-3,1.1c-0.3,0.1-0.3,1.2,0.1,1.1c1.1-0.4,2.2-0.8,3.2-1.1c0.3-0.1,0.3-1.2-0.1-1.1
							c-14.6,4.2-29.9,9.7-45.3,9c-9.5-0.4-18.6-2.8-27.9-4.7c-8.1-1.6-15.7-3.9-23.2-7.4c-0.3-0.1-0.3,0.4-0.3,0.5
							c0,8.2-0.4,16.6,0.2,24.8c1,12.9,7.5,27.1,14.5,37.7c15.9,23.9,44.3,33.4,71.8,34c16.1,0.4,33.4-0.8,47.9-8.3
							c13.2-6.8,23.9-18.4,30.1-31.9c5.1-10.9,6.2-23.7,7.2-35.6c0.5-5.7,0.8-11.4,0.8-17.1c0-4.6,1-9.7-0.7-14.2
							c-1.9-5-6.2-6-10.2-2.4c-6.1,5.5-12,11.3-18.8,16c-15.2,10.7-35,14.9-49.4,0.6C112.7,99.2,112.6,100.2,112.8,100.4z"/>
					</g>
				</g>
				<path class="st177" d="M203.7,79.1c-4.2-12.9-15.1-27.9-27-38.5c-10-8.9-20.9-14.9-26.9-17.6c-13.1-5.8-47.3-8.7-77.2-0.7
					C55.9,26.7,33,48.4,19.8,70.2c-10.5,17.2-13,34.4-14.9,43.1C0.5,133,12.3,171.6,26,184c4.2,3.8,15.6,9.1,21.1,8
					c3.2-0.6,7.8-9,7.9-12.3c-14.8-3.1-26.7-27.1-33.4-40.2c-5.4-10.3-2.9-46.6-2.9-46.6s4.5,2.5,6.6,2.9
					c10.3,2.3,34.3,9.3,44.8,9.1c7.7-0.2,37.1-2.9,34.2-5.8c-1.9-1.9-8.2-11.9-6.6-22.6c1.1-6.9,6.2-14.9,8-17.5
					c3.1-4.4,8.6-8.4,15.8-8.4c-9.2,3.1-18.4,11.6-18.4,23.8c0,9,2.5,12.2,6.7,16.9c2.6,2.9,9.3,6.8,9.3,6.8s18.6,10.5,33.2,3.2
					s25.6-26,35.7-21.9c5.7,2.4,6.5,10.8,6.8,19.7c0.3,6.6-0.6,13.3-0.7,17.8c-0.1,11.7-3.4,23.1-6.2,32.4
					c-2.3,7.9-6.3,14.4-8.4,16.4c-12.5,11.7-17.9,25-14.6,28.4c4.5,4.6,26.1-11.6,27.6-14.5c0.4-0.8,1.2,20.4,5.8,12.4
					c2-3.5,11.3-35.2,12.1-40.5C213.7,131.3,208.5,94,203.7,79.1z"/>
				<g>
					<path class="st155" d="M83.5,163.9c1.4,0.3,2.6,0.8,3.9,1.3l3.6,1.4c2.4,1,4.7,1.9,6.9,2.8c0.6,0.2,1.1,0.4,1.7,0.6
						c0.6,0.2,1.1,0.4,1.7,0.6c1.1,0.3,2.2,0.7,3.3,1c1.1,0.3,2.1,0.5,3.2,0.8c1,0.1,2.1,0.4,3,0.4l0.7,0.1c0.3,0,0.5,0,0.8,0l1.7,0
						c0.6,0,1.1-0.1,1.7-0.1c0.6,0,1.1,0,1.7-0.1c2.2-0.1,4.5-0.5,6.8-1c4.6-0.9,9.2-2.4,14.4-4.2c-1.2,2.5-3,4.7-5,6.6
						c-2,1.9-4.3,3.6-6.8,4.9c-1.3,0.6-2.5,1.3-3.9,1.7c-0.7,0.2-1.3,0.5-2,0.7l-2.1,0.5c-0.7,0.2-1.4,0.3-2.1,0.4
						c-0.7,0.1-1.4,0.2-2.2,0.3l-2.2,0.1c-0.4,0-0.7,0-1.1,0l-1.2-0.1c-0.8-0.1-1.6-0.1-2.3-0.3l-2.2-0.5c-0.7-0.2-1.4-0.4-2.1-0.7
						c-0.7-0.2-1.4-0.5-2-0.8c-2.7-1.1-5.1-2.6-7.3-4.3C89.7,172.8,86.1,168.6,83.5,163.9z"/>
				</g>
				<g>
					<g>
						<g>
							<path d="M121.3,132.7c11.1-0.1,22.2-2.1,31.4-8.7c1.3-0.9,0.7-5.3-0.6-4.4c-9.1,6.5-19.9,8.4-30.8,8.5
								C119.7,128.2,119.7,132.7,121.3,132.7L121.3,132.7z"/>
						</g>
					</g>
				</g>
				<g>
					<g>
						<g>
							<path d="M94.7,128.2c-11-0.1-21.7-2.1-30.8-8.5c-1.3-0.9-1.9,3.5-0.6,4.4c9.2,6.6,20.3,8.6,31.4,8.7
								C96.3,132.7,96.3,128.2,94.7,128.2L94.7,128.2z"/>
						</g>
					</g>
				</g>
			</g>
		</g>
		<g>
			<path class="st93" d="M203.1,27.7c3.1-11.3,16.7-26.2,28.9-17.4c17.8,12.8-2.9,46.5-13.6,55.7c-41.7,36.1-70.3-42.4-41.4-60.8
				c13.5-8.2,27.3,10.1,25.2,20.5L203.1,27.7z"/>
			<g>
				<g>
					<path class="st17" d="M226.5,58.8c0-3.7,0-7.5,0-11.2c0-0.5-0.2-1.8-0.9-1.8c-3.2,0-6.4,0-9.6,0c-0.7,0-0.9,1.3-0.9,1.8
						c0,3.7,0,7.5,0,11.2c0.3-0.6,0.6-1.2,0.9-1.8c-3.7,0-7.5,0-11.2,0c-0.7,0-0.9,1.3-0.9,1.8c0,3.2,0,6.4,0,9.6
						c0,0.5,0.2,1.8,0.9,1.8c3.7,0,7.5,0,11.2,0c-0.3-0.6-0.6-1.2-0.9-1.8c0,3.7,0,7.5,0,11.2c0,0.5,0.2,1.8,0.9,1.8
						c3.2,0,6.4,0,9.6,0c0.7,0,0.9-1.3,0.9-1.8c0-3.7,0-7.5,0-11.2c-0.3,0.6-0.6,1.2-0.9,1.8c3.7,0,7.5,0,11.2,0
						c0.7,0,0.9-1.3,0.9-1.8c0-3.2,0-6.4,0-9.6c0-0.5-0.2-1.8-0.9-1.8c-3.7,0-7.5,0-11.2,0c-1.2,0-1.2,3.5,0,3.5c3.7,0,7.5,0,11.2,0
						c-0.3-0.6-0.6-1.2-0.9-1.8c0,3.2,0,6.4,0,9.6c0.3-0.6,0.6-1.2,0.9-1.8c-3.7,0-7.5,0-11.2,0c-0.7,0-0.9,1.3-0.9,1.8
						c0,3.7,0,7.5,0,11.2c0.3-0.6,0.6-1.2,0.9-1.8c-3.2,0-6.4,0-9.6,0c0.3,0.6,0.6,1.2,0.9,1.8c0-3.7,0-7.5,0-11.2
						c0-0.5-0.2-1.8-0.9-1.8c-3.7,0-7.5,0-11.2,0c0.3,0.6,0.6,1.2,0.9,1.8c0-3.2,0-6.4,0-9.6c-0.3,0.6-0.6,1.2-0.9,1.8
						c3.7,0,7.5,0,11.2,0c0.7,0,0.9-1.3,0.9-1.8c0-3.7,0-7.5,0-11.2c-0.3,0.6-0.6,1.2-0.9,1.8c3.2,0,6.4,0,9.6,0
						c-0.3-0.6-0.6-1.2-0.9-1.8c0,3.7,0,7.5,0,11.2C224.7,60.9,226.5,60.9,226.5,58.8z"/>
				</g>
			</g>
		</g>
	</g>
</g>
<g id="מקלדת_נפתחת">
</g>
</svg>
