<svg xmlns="http://www.w3.org/2000/svg" viewBox="0 0 166.57 150.64"><defs><style>.cls-1{fill:#ffc396;}</style></defs><title>Artboard 41 copy 30</title><g id="מסך_רצונות" data-name="מסך רצונות"><path class="cls-1" d="M134.59,78.19c-1.75-4.46-4.09-8.69-5.73-13.18-3.39-9.26-6.48-18.62-9.74-27.93-1.7-4.83-5.33-6.45-9.8-4.49-3,1.33-4.26,4.21-3.43,8.43,1.42,7.23,2.79,14.48,4.37,21.68.55,2.48.13,4.14-2.33,5.06l-2.23-2.84h0c-.35-.64-.64-1.33-1-1.93C97.11,52,89.6,41,82,30c-2.68-3.85-4.88-8.06-8.15-11.47a6.7,6.7,0,0,0-11.07,1.71,35.6,35.6,0,0,0-1.34,3.33A9.49,9.49,0,0,0,61,29.12h0c-1.3-.79-1.9-2.19-2.85-3.29-3-3.49-7.45-3.6-10.53-.24a15,15,0,0,0-2.19,4.09c-2.38,3.6-1.21,6.81,1.09,9.89-3.64-1.45-6.92-1.25-9.58,2a15.8,15.8,0,0,0-2,4.21,9.23,9.23,0,0,0,1.19,9.34c1.28,1.78,2.45,3.64,3.67,5.46-.44-.08-.89-.13-1.33-.24-3.32-.88-6.42,0-8.19,2.47-1.57,2.16-1.45,5.53.32,8.33.4.62.82,1.22,1.24,1.83q14.64,21.3,29.28,42.61c9.66,14.14,23.25,20.2,40,18.42C127.46,131.21,144.27,102.86,134.59,78.19Z"/><path d="M135.3,76.75c-4-9.81-8-19.46-11.44-29.51-1.71-5-3.08-15.59-9.38-17.27-5.15-1.38-9.4,2.74-9.81,7.6-.64,7.5,3.2,15.15,3.94,22.55.18,1.88.08,5.79-2.19,3.36a36.7,36.7,0,0,1-2.33-3.82q-3.75-5.5-7.54-11c-5.66-8.27-11.46-16.44-16.94-24.83C76.73,19.4,72.43,12,66,14.92c-5.19,2.36-6.53,9.69-6,14.74l1.49-2.3C59,25.2,57.7,22,54.13,21.29c-3.29-.65-6.18,1.1-8,3.81-3.61,5.54-3.93,10.77-.19,16.23l.78-3.72c-6.51-2.24-10.62.94-12.68,7.16-2.37,7.16,1.4,11.82,5.23,17.59l.51-3.79c-5.22-1-10.54.14-11.51,6.22-1,6.35,4.24,11.72,7.54,16.51l16.91,24.57c4.8,7,9.18,14.66,15.57,20.35,19.63,17.46,51.15,11.34,64.06-11a44.94,44.94,0,0,0,3.06-38c-.92-2.49-2.29.63-1.75,2,10.45,28-13.41,55.35-42.09,52.9a38.16,38.16,0,0,1-19.26-7c-6.5-4.72-10.72-11.29-15.19-17.81Q49.3,95.79,41.4,84.34q-3.94-5.73-7.89-11.47c-1.94-2.82-4.59-8.42,0-10.34,2.11-.88,4.23-.28,6.33.11,1.5.28.89-3.24.52-3.79-2.69-4.06-6.46-7.92-4-13.26,2-4.42,5.44-5.59,9.9-4.06,1.7.59,1.27-3,.79-3.72-3.1-4.52.14-12.74,5.87-12.6,3.7.09,5.15,3.56,7.58,5.67,1.26,1.1,1.58-1.56,1.49-2.3-.45-4,1.82-9.94,6.48-10.21,3.55-.21,5.8,2.75,7.68,5.32,3.77,5.14,7.15,10.65,10.77,15.9,6.83,9.9,13.11,20.5,20.52,29.93a.64.64,0,0,0,.79.2c4.14-2,3.37-6,2.55-9.85-1.25-5.86-8.06-25.82,1.74-26,5.33-.11,6.31,5.84,7.69,9.85,1.5,4.35,3,8.71,4.49,13,2.73,7.82,6.06,15.23,9.2,22.88C134.71,81.68,135.78,77.92,135.3,76.75Z"/><path class="cls-1" d="M70.24,73.84q-11.55-16.7-23-33.42a9.28,9.28,0,0,0-.7-.85c-2.3-3.08-3.47-6.29-1.09-9.89"/><path d="M70.76,72.08q-6.33-9.14-12.63-18.29L52.1,45c-2.17-3.16-8.21-9.71-6-13.91.61-1.14-.37-4.88-1.44-2.88C40.75,35.63,45.87,41,50,47Q59.85,61.29,69.73,75.6c1,1.4,1.75-2.46,1-3.52Z"/><path class="cls-1" d="M58.53,87.33C53.22,79.68,48,72,42.68,64.34c-.89-1.29-1.89-2.49-2.85-3.74-1.22-1.82-2.39-3.68-3.67-5.46A9.23,9.23,0,0,1,35,45.8"/><path d="M59,85.57C55,79.71,50.93,73.82,46.89,68c-3.56-5.17-13.09-14.61-11-21.13.44-1.43-1-4.58-1.76-2-2.37,7.56,1.79,12.95,6.19,18.83,6.2,8.27,11.84,17,17.73,25.49,1,1.4,1.76-2.47,1-3.52Z"/><path class="cls-1" d="M84.88,64.58c-3-4.32-6-8.62-9-12.94Q69.5,42.33,63.12,33c-.82-1.21-1.43-2.56-2.14-3.85a9.49,9.49,0,0,1,.45-5.55"/><path d="M85.39,62.82c-4-5.87-8.13-11.72-12.17-17.6l-5.34-7.77C65.51,34,60.74,29.18,62.31,24.6c.49-1.43-.9-4.57-1.76-2.06-2.41,7.08,1.94,12,5.77,17.64,6,8.75,12,17.43,18,26.16,1,1.4,1.76-2.46,1-3.52Z"/></g></svg>