<svg xmlns="http://www.w3.org/2000/svg" viewBox="0 0 166.57 150.64"><defs><style>.cls-1{fill:#db4b5f;}.cls-2{fill:#ffc6cf;}.cls-3{fill:#fff;}</style></defs><title>Artboard 41 copy 34</title><g id="מסך_רצונות" data-name="מסך רצונות"><polygon class="cls-1" points="112.14 46.56 83.28 18.34 54.43 46.56 25.26 75.08 31.67 81.63 54.43 59.37 83.28 31.15 112.14 59.37 134.9 81.63 141.31 75.08 112.14 46.56"/><path d="M112.58,45,83.73,16.82a.55.55,0,0,0-.89,0l-58,56.74a2.66,2.66,0,0,0,0,3l6.4,6.55a.55.55,0,0,0,.89,0L73.85,42.35C76.78,39.48,80,35,83.53,32.88c.59-.35-1.08-.35-.49,0A6.89,6.89,0,0,1,84.2,34c1.62,1.83,3.54,3.47,5.29,5.18l22.2,21.71,22.77,22.26a.55.55,0,0,0,.89,0l6.4-6.55a2.66,2.66,0,0,0,0-3L112.58,45c-1.14-1.12-1.7,2.27-.89,3.06l29.17,28.52v-3l-3.88,4a18.13,18.13,0,0,1-2.17,2.21c-.84.59,1,.54.28.11-2.53-1.47-4.86-4.75-6.94-6.79L112.58,57.84,83.73,29.63a.55.55,0,0,0-.89,0L54,57.84,38.42,73.06c-2.08,2-4.41,5.32-6.94,6.79-.74.43,1.12.48.28-.11a18.13,18.13,0,0,1-2.17-2.21l-3.88-4v3L56.77,46.24l22-21.56a35.35,35.35,0,0,0,3.71-3.63,4.43,4.43,0,0,1,1-1c.64-.38-1.15-.39-.49,0,2.69,1.6,5.16,5.05,7.39,7.22l21.26,20.8C112.84,49.21,113.39,45.82,112.58,45Z"/><polygon class="cls-2" points="127.09 132.3 39.48 132.3 39.48 84.58 83.28 41.74 127.09 84.58 127.09 132.3"/><path d="M127.09,130.53H39.48l.88,1.77c0-15.22.88-30.69,0-45.88,0-.6,0-1.21,0-1.81.14,2-.83,1.54.62.47,2.3-1.71,4.29-4.2,6.33-6.2L68.86,57.81c4.69-4.58,9.27-10.35,14.56-14.24.74-.54-.94-.5-.34-.07a18.89,18.89,0,0,1,2,1.93l7.49,7.33,21.89,21.41,8.7,8.5c.77.75,1.5,1.62,2.34,2.29.19.15,2,1.92,1,.39-.69-1,0-.79-.21-.11a6.75,6.75,0,0,0,0,1.62V132.3c0,2.11,1.77,2.13,1.77,0,0-15.51.53-31.12,0-46.62-.14-3.89-4.11-6.22-6.76-8.8L99.29,55.43,83.73,40.21a.55.55,0,0,0-.89,0l-35,34.23c-2.67,2.61-8.56,6.36-9.25,10.25-.42,2.4,0,5.3,0,7.73V132.3c0,.5.16,1.77.89,1.77h87.61C128.32,134.07,128.33,130.53,127.09,130.53Z"/><rect class="cls-3" x="65.26" y="79.32" width="16.88" height="16.88"/><rect class="cls-3" x="84.95" y="79.32" width="16.88" height="16.88"/><rect class="cls-3" x="65.26" y="99.02" width="16.88" height="16.88"/><rect class="cls-3" x="84.95" y="99.02" width="16.88" height="16.88"/></g></svg>