<svg xmlns="http://www.w3.org/2000/svg" xmlns:xlink="http://www.w3.org/1999/xlink" viewBox="0 0 166.57 150.64"><defs><style>.cls-1{fill:none;}.cls-2{clip-path:url(#clip-path);}.cls-3{fill:#c9804f;}.cls-4{fill:#edac80;}.cls-5{fill:#ffdbb3;}.cls-6{fill:#ffc396;}.cls-7{fill:#fff;}.cls-8{fill:#bc4d3e;}.cls-9{fill:#fdf9f4;}.cls-10{fill:#db5e52;}.cls-11{fill:#dd996b;}.cls-12{fill:#d89466;}.cls-13{fill:#ffa7b6;}.cls-14{fill:#f291a6;}</style><clipPath id="clip-path"><circle class="cls-1" cx="83.28" cy="75.32" r="69.97"/></clipPath></defs><title>Artboard 41 copy 36</title><g id="מסך_רצונות" data-name="מסך רצונות"><g class="cls-2"><path class="cls-3" d="M49.66,105.81s45.68,39.77,92.6,0c0,0-16.67-13-12.83-33.4S124.3,7.64,81.54,10c-40.42,2.17-50.67,44.51-41,67.85S49.66,105.81,49.66,105.81Z"/><path class="cls-3" d="M117.75,105.81s-45.68,39.77-92.6,0c0,0,16.67-13,12.83-33.4S43.11,7.64,85.87,10c40.42,2.17,50.67,44.51,41,67.85S117.75,105.81,117.75,105.81Z"/><path class="cls-4" d="M102.71,104.39c-4-.59-.55-3.9-4.47-15.74l-21.08-1.6s7.86,15.87,0,17.73-25.29.09-30.48,9.6L130.84,120S127.15,108,102.71,104.39Z"/><path class="cls-5" d="M62.39,106.27s29,15,51.37,1.38l-7,82.78L53.29,186.5Z"/><path class="cls-4" d="M44.39,53.07a5,5,0,0,0-.11-1.17c-15-5.55-13.1,18.48,1.82,16.56Z"/><path class="cls-4" d="M121.53,49a4.65,4.65,0,0,1,0-1.18c14.66-6.43,14.18,17.66-.83,16.65Z"/><path class="cls-6" d="M124.62,68.76c-5.41,20-27.76,31.38-50.57,25.21S37.13,66.58,42.54,46.59s28.29-31.19,51.1-25S130,48.77,124.62,68.76Z"/><path d="M68.23,61.19c.19,3.06-1.42,5.65-3.61,5.78s-4.11-2.23-4.3-5.29S61.74,56,63.93,55.9,68,58.13,68.23,61.19Z"/><path class="cls-7" d="M65.77,60a2.22,2.22,0,1,1-2.29-1.64A2,2,0,0,1,65.77,60Z"/><path d="M107.73,57.79c.19,3.05-1.42,5.65-3.61,5.78s-4.11-2.23-4.3-5.29,1.42-5.65,3.6-5.78S107.54,54.73,107.73,57.79Z"/><path class="cls-7" d="M105.27,56.55A2.22,2.22,0,1,1,103,54.91,2,2,0,0,1,105.27,56.55Z"/><path class="cls-3" d="M56.54,55.36S58.63,48.75,67,51.78l-.43-3.53S55.75,46.21,56.54,55.36Z"/><path class="cls-3" d="M111.08,51.93s-2.91-6.3-10.8-2.24l0-3.56S110.71,42.76,111.08,51.93Z"/><path class="cls-8" d="M69.66,75.33S87.07,82.57,103,73.16C103,73.16,91.28,104.32,69.66,75.33Z"/><path class="cls-9" d="M69.66,75.33S88.5,81.88,103,72.75C103,72.75,90.5,90.15,69.66,75.33Z"/><path class="cls-10" d="M77.84,84.18s6.53-1.3,19.25-1.6C97.09,82.58,89.22,92.07,77.84,84.18Z"/><path class="cls-11" d="M88.16,56.56s3.22,13.22-7.39,11.65c0,0,6.94,3,8.93-1.19C91.93,62.34,88.16,56.56,88.16,56.56Z"/><path class="cls-12" d="M40.88,51.26s24.65,3,41.68-14.86c0,0,15.14,12.21,41.68,12.36,0,0-2.65-36.68-42.87-35C45.26,15.2,40.88,51.26,40.88,51.26Z"/><path class="cls-13" d="M68.41,105.13l-.48,82.31-24.24-.7S18.82,103.52,68.41,105.13Z"/><path class="cls-5" d="M132.06,64.63A3.61,3.61,0,1,1,129.91,60,3.62,3.62,0,0,1,132.06,64.63Z"/><path class="cls-13" d="M111.19,106l-8.74,85.91,16,1.4L128.19,114A117.74,117.74,0,0,0,111.19,106Z"/><path class="cls-14" d="M128.19,114s29.28,37.08,19.53,89.72L131,197l-7.12-49.07Z"/><path class="cls-14" d="M52.61,109.05l5.31,79.38-13,8.75S24.52,123.55,52.61,109.05Z"/><path class="cls-5" d="M44.28,70.28a3.6,3.6,0,1,1-2.15-4.62A3.62,3.62,0,0,1,44.28,70.28Z"/></g></g></svg>