<svg xmlns="http://www.w3.org/2000/svg" viewBox="0 0 166.57 150.64"><defs><style>.cls-1{fill:#db4b5f;}</style></defs><title>Artboard 41 copy 32</title><g id="מסך_רצונות" data-name="מסך רצונות"><polygon class="cls-1" points="129.88 105.85 97.79 73.76 129.09 41.45 113.82 28.72 83.28 59.26 53.55 29.52 36.69 43.2 68.52 74.02 37.48 105.06 51.16 121.92 83.5 88.52 117.16 121.12 129.88 105.85"/><path d="M130.4,104.1,98.3,72v3.51L129.6,43.2a2.94,2.94,0,0,0-.24-3.72L114.09,26.76c-.25-.21-.62,0-.78.21L98.39,41.88,87.94,52.33c-1.39,1.39-3.33,4.31-5.15,5.15,1.26-.58.77.06-.27-1.26a42.86,42.86,0,0,0-3.37-3.37L68.93,42.63,54.06,27.76c-.17-.17-.53-.41-.78-.2L36.42,41.23A3,3,0,0,0,36.17,45L68,75.78V72.26l-31,31a3.12,3.12,0,0,0,0,3.52l13.68,16.85a.62.62,0,0,0,1,0L80,94.47c1.15-1.18,2.53-3.28,4-4.11-1,.56-1.06-.49-.37.48A19.5,19.5,0,0,0,86,93.16l17,16.5,13.65,13.22a.63.63,0,0,0,1,0l12.73-15.27c.81-1,.11-4.89-1-3.51l-5.1,6.11c-2.1,2.52-5.09,5.15-6.68,8-.73,1.32-1.23.59,0,1.06a5,5,0,0,1-1.25-1.22,67.35,67.35,0,0,0-5.76-5.57L84,86.77a.64.64,0,0,0-1,0L56.5,114.11c-1.41,1.46-4.18,3.38-5.06,5.23-.7,1.45-1.06-.14.2.77a10.21,10.21,0,0,1-1.55-1.9L38,103.3v3.52l31-31a3.07,3.07,0,0,0,0-3.52L37.2,41.44,37,45.16,50.74,34c.88-.72,1.74-1.55,2.68-2.18s-.9-.65-.05-.19c1.56.86,3.05,3.06,4.31,4.31L82.77,61a.65.65,0,0,0,1,0l24.81-24.81c1.61-1.61,3.35-3.17,4.86-4.87.13-.14.62-.79.84-.84-1.35.27.19,1,.83,1.51l13.68,11.4-.25-3.72L97.28,72a3.05,3.05,0,0,0,0,3.51l32.09,32.09C130.67,108.91,131.31,105,130.4,104.1Z"/></g></svg>