<?xml version="1.0" encoding="utf-8"?>
<!-- Generator: Adobe Illustrator 22.0.1, SVG Export Plug-In . SVG Version: 6.00 Build 0)  -->
<svg version="1.1" xmlns="http://www.w3.org/2000/svg" xmlns:xlink="http://www.w3.org/1999/xlink" x="0px" y="0px"
	 viewBox="0 0 166.6 150.6" style="enable-background:new 0 0 166.6 150.6;" xml:space="preserve">
<style type="text/css">
	.st0{display:none;}
	.st1{display:inline;opacity:0.38;}
	.st2{opacity:0.3;fill-rule:evenodd;clip-rule:evenodd;fill:#CCCCCC;}
	.st3{opacity:0.3;}
	.st4{fill-rule:evenodd;clip-rule:evenodd;fill:#EC2224;}
	.st5{fill:#5DCAE6;}
	.st6{fill:#6FC5A2;}
	.st7{fill:#EFDE65;}
	.st8{fill:#F27557;}
	.st9{display:inline;opacity:0.28;fill:#462267;}
	.st10{display:inline;opacity:0.28;fill:#652369;}
	.st11{display:inline;opacity:0.28;fill:#E8E613;}
	.st12{fill:#FFFFFF;}
	.st13{fill:#69B0B3;}
	.st14{fill:#FFF100;stroke:#231F20;stroke-width:1.2022;stroke-miterlimit:10;}
	.st15{fill:#F4DD56;}
	.st16{fill:none;stroke:#423E3F;stroke-miterlimit:10;}
	.st17{fill:#423E3F;}
	.st18{fill:#FFC6CF;}
	.st19{enable-background:new    ;}
	.st20{clip-path:url(#SVGID_2_);enable-background:new    ;}
	.st21{fill:#939393;}
	.st22{fill:#979797;}
	.st23{fill:#9B9B9B;}
	.st24{fill:#9F9F9F;}
	.st25{fill:#A3A3A3;}
	.st26{fill:#8F8F8F;}
	.st27{fill:#8B8B8B;}
	.st28{fill:#878787;}
	.st29{fill:#838383;}
	.st30{fill:#7E7E7E;}
	.st31{fill:#7A7A7A;}
	.st32{fill:#767676;}
	.st33{clip-path:url(#SVGID_4_);enable-background:new    ;}
	.st34{clip-path:url(#SVGID_6_);enable-background:new    ;}
	.st35{clip-path:url(#SVGID_8_);enable-background:new    ;}
	.st36{fill:#6A6A6A;}
	.st37{clip-path:url(#SVGID_10_);enable-background:new    ;}
	.st38{clip-path:url(#SVGID_12_);enable-background:new    ;}
	.st39{clip-path:url(#SVGID_14_);enable-background:new    ;}
	.st40{fill:#6E6E6E;}
	.st41{fill:#727272;}
	.st42{clip-path:url(#SVGID_16_);enable-background:new    ;}
	.st43{clip-path:url(#SVGID_18_);enable-background:new    ;}
	.st44{clip-path:url(#SVGID_20_);enable-background:new    ;}
	.st45{clip-path:url(#SVGID_22_);enable-background:new    ;}
	.st46{clip-path:url(#SVGID_24_);enable-background:new    ;}
	.st47{clip-path:url(#SVGID_26_);enable-background:new    ;}
	.st48{clip-path:url(#SVGID_28_);enable-background:new    ;}
	.st49{clip-path:url(#SVGID_30_);enable-background:new    ;}
	.st50{fill:#A0A0A0;}
	.st51{clip-path:url(#SVGID_32_);enable-background:new    ;}
	.st52{fill:#9A9A9A;}
	.st53{clip-path:url(#SVGID_34_);enable-background:new    ;}
	.st54{clip-path:url(#SVGID_36_);enable-background:new    ;}
	.st55{fill:#787878;}
	.st56{clip-path:url(#SVGID_38_);enable-background:new    ;}
	.st57{clip-path:url(#SVGID_40_);enable-background:new    ;}
	.st58{clip-path:url(#SVGID_42_);enable-background:new    ;}
	.st59{clip-path:url(#SVGID_44_);enable-background:new    ;}
	.st60{clip-path:url(#SVGID_46_);enable-background:new    ;}
	.st61{clip-path:url(#SVGID_48_);enable-background:new    ;}
	.st62{clip-path:url(#SVGID_50_);enable-background:new    ;}
	.st63{clip-path:url(#SVGID_52_);enable-background:new    ;}
	.st64{clip-path:url(#SVGID_54_);enable-background:new    ;}
	.st65{clip-path:url(#SVGID_56_);enable-background:new    ;}
	.st66{clip-path:url(#SVGID_58_);enable-background:new    ;}
	.st67{clip-path:url(#SVGID_60_);enable-background:new    ;}
	.st68{clip-path:url(#SVGID_62_);enable-background:new    ;}
	.st69{clip-path:url(#SVGID_64_);enable-background:new    ;}
	.st70{clip-path:url(#SVGID_66_);enable-background:new    ;}
	.st71{clip-path:url(#SVGID_68_);enable-background:new    ;}
	.st72{clip-path:url(#SVGID_70_);enable-background:new    ;}
	.st73{clip-path:url(#SVGID_72_);enable-background:new    ;}
	.st74{clip-path:url(#SVGID_74_);enable-background:new    ;}
	.st75{clip-path:url(#SVGID_76_);enable-background:new    ;}
	.st76{clip-path:url(#SVGID_78_);enable-background:new    ;}
	.st77{clip-path:url(#SVGID_80_);enable-background:new    ;}
	.st78{clip-path:url(#SVGID_82_);enable-background:new    ;}
	.st79{clip-path:url(#SVGID_84_);enable-background:new    ;}
	.st80{clip-path:url(#SVGID_86_);enable-background:new    ;}
	.st81{clip-path:url(#SVGID_88_);enable-background:new    ;}
	.st82{clip-path:url(#SVGID_90_);enable-background:new    ;}
	.st83{clip-path:url(#SVGID_92_);enable-background:new    ;}
	.st84{clip-path:url(#SVGID_94_);enable-background:new    ;}
	.st85{clip-path:url(#SVGID_96_);enable-background:new    ;}
	.st86{clip-path:url(#SVGID_98_);enable-background:new    ;}
	.st87{clip-path:url(#SVGID_100_);enable-background:new    ;}
	.st88{clip-path:url(#SVGID_102_);enable-background:new    ;}
	.st89{clip-path:url(#SVGID_104_);enable-background:new    ;}
	.st90{clip-path:url(#SVGID_106_);enable-background:new    ;}
	.st91{fill:#009245;}
	.st92{fill:#F17557;}
	.st93{fill:#DB1919;}
	.st94{fill:#594A42;}
	.st95{fill:#EDAA00;}
	.st96{fill:#443630;}
	.st97{fill:#A7A9AC;}
	.st98{fill:#BCBEC0;}
	.st99{fill:#726658;}
	.st100{fill:#FFD35A;}
	.st101{fill:none;stroke:#F27557;stroke-miterlimit:10;}
	.st102{fill:none;stroke:#C0D9DB;stroke-miterlimit:10;}
	.st103{clip-path:url(#SVGID_108_);enable-background:new    ;}
	.st104{clip-path:url(#SVGID_110_);enable-background:new    ;}
	.st105{clip-path:url(#SVGID_112_);enable-background:new    ;}
	.st106{clip-path:url(#SVGID_114_);enable-background:new    ;}
	.st107{clip-path:url(#SVGID_116_);enable-background:new    ;}
	.st108{clip-path:url(#SVGID_118_);enable-background:new    ;}
	.st109{clip-path:url(#SVGID_120_);enable-background:new    ;}
	.st110{clip-path:url(#SVGID_122_);enable-background:new    ;}
	.st111{clip-path:url(#SVGID_124_);enable-background:new    ;}
	.st112{clip-path:url(#SVGID_126_);enable-background:new    ;}
	.st113{clip-path:url(#SVGID_128_);enable-background:new    ;}
	.st114{clip-path:url(#SVGID_130_);enable-background:new    ;}
	.st115{clip-path:url(#SVGID_132_);enable-background:new    ;}
	.st116{clip-path:url(#SVGID_134_);enable-background:new    ;}
	.st117{clip-path:url(#SVGID_136_);enable-background:new    ;}
	.st118{clip-path:url(#SVGID_138_);enable-background:new    ;}
	.st119{clip-path:url(#SVGID_140_);enable-background:new    ;}
	.st120{clip-path:url(#SVGID_142_);enable-background:new    ;}
	.st121{clip-path:url(#SVGID_144_);enable-background:new    ;}
	.st122{clip-path:url(#SVGID_146_);enable-background:new    ;}
	.st123{clip-path:url(#SVGID_148_);enable-background:new    ;}
	.st124{clip-path:url(#SVGID_150_);enable-background:new    ;}
	.st125{clip-path:url(#SVGID_152_);enable-background:new    ;}
	.st126{clip-path:url(#SVGID_154_);enable-background:new    ;}
	.st127{clip-path:url(#SVGID_156_);enable-background:new    ;}
	.st128{clip-path:url(#SVGID_158_);enable-background:new    ;}
	.st129{clip-path:url(#SVGID_160_);enable-background:new    ;}
	.st130{clip-path:url(#SVGID_162_);enable-background:new    ;}
	.st131{clip-path:url(#SVGID_164_);enable-background:new    ;}
	.st132{clip-path:url(#SVGID_166_);enable-background:new    ;}
	.st133{clip-path:url(#SVGID_168_);enable-background:new    ;}
	.st134{clip-path:url(#SVGID_170_);enable-background:new    ;}
	.st135{clip-path:url(#SVGID_172_);enable-background:new    ;}
	.st136{clip-path:url(#SVGID_174_);enable-background:new    ;}
	.st137{clip-path:url(#SVGID_176_);enable-background:new    ;}
	.st138{clip-path:url(#SVGID_178_);enable-background:new    ;}
	.st139{clip-path:url(#SVGID_180_);enable-background:new    ;}
	.st140{clip-path:url(#SVGID_182_);enable-background:new    ;}
	.st141{clip-path:url(#SVGID_184_);enable-background:new    ;}
	.st142{clip-path:url(#SVGID_186_);enable-background:new    ;}
	.st143{clip-path:url(#SVGID_188_);enable-background:new    ;}
	.st144{clip-path:url(#SVGID_190_);enable-background:new    ;}
	.st145{clip-path:url(#SVGID_192_);enable-background:new    ;}
	.st146{clip-path:url(#SVGID_194_);enable-background:new    ;}
	.st147{clip-path:url(#SVGID_196_);enable-background:new    ;}
	.st148{clip-path:url(#SVGID_198_);enable-background:new    ;}
	.st149{clip-path:url(#SVGID_200_);enable-background:new    ;}
	.st150{clip-path:url(#SVGID_202_);enable-background:new    ;}
	.st151{clip-path:url(#SVGID_204_);enable-background:new    ;}
	.st152{clip-path:url(#SVGID_206_);enable-background:new    ;}
	.st153{fill:none;stroke:#BCE6F4;stroke-width:5;stroke-miterlimit:10;}
	.st154{fill:none;stroke:#231F20;stroke-miterlimit:10;}
	.st155{fill:#FB485D;}
	.st156{fill:#94D2E0;}
	.st157{clip-path:url(#SVGID_208_);fill:#222221;}
	.st158{fill:#222221;}
	.st159{fill:#231F20;}
	.st160{fill:#A6E2C8;}
	.st161{fill:#FFF100;}
	.st162{fill:none;stroke:#1AB17F;stroke-miterlimit:10;}
	.st163{fill:#8DCCDB;}
	.st164{fill:#FEDCD6;}
	.st165{fill:#DB4B5F;}
	.st166{fill:#FDA898;}
	.st167{fill:#AED4D5;}
	.st168{fill:#E8EFEF;}
	.st169{fill:none;stroke:#4C6363;stroke-width:0.405;stroke-miterlimit:10;}
	.st170{clip-path:url(#SVGID_210_);fill:#222221;}
	.st171{clip-path:url(#SVGID_212_);fill:#222221;}
	.st172{clip-path:url(#SVGID_214_);fill:#222221;}
	.st173{clip-path:url(#SVGID_216_);fill:#222221;}
	.st174{clip-path:url(#SVGID_218_);fill:#222221;}
	.st175{clip-path:url(#SVGID_220_);fill:#222221;}
	.st176{fill:#4C6363;}
	.st177{fill:#EEDE65;}
</style>
<g id="קווי_עזר" class="st0">
</g>
<g id="bootstrap_grid" class="st0">
</g>
<g id="Layer_1">
</g>
<g id="המשך_שאלות">
</g>
<g id="המשך_רגשות">
</g>
<g id="מסך_שאלות">
	<g id="שאלות">
	</g>
</g>
<g id="מסך_רגשות">
</g>
<g id="מסך_רצונות">
	<g>
		<g>
			<path class="st12" d="M67.1,4.4C60.6,6,48,10.8,42.4,14.4c-5.5,3.6-15,12.9-18.8,18.2c-3.8,5.3-9.7,17-11.3,23.3
				c-2,8.3-2.6,25.8-1,34.2c1.6,8.1,8.2,23.7,13.3,30.3c5.3,6.8,19.2,17.8,27.1,21.4c8.4,3.8,27,6.8,36.2,6.7c5.2,0,15.7-2.1,20.6-4
				c5.3-1.9,15.2-7.5,19.6-11.1c5.6-4.6,15.3-15.7,19-22c3.1-5.4,7.5-17.2,8.5-23.3c1.2-7.5,0.8-23.1-1-30.5
				c-1.6-6.6-7.6-19.3-11.7-24.7c-5.1-6.8-18.1-18.3-25.5-22.3c-6.9-3.7-22.4-7.9-30.3-8.5C82.1,1.8,72,3.1,67.1,4.4z"/>
			<g>
				<path class="st17" d="M67.1,2.9c-7.6,2-15.2,4.8-22.1,8.5c-6.7,3.6-12.4,9.3-17.5,14.9c-10,10.9-16.2,25.3-17.4,40
					c-0.6,7.5-0.9,15.3,0.3,22.8c1.1,7.1,3.9,14,6.9,20.5c6.6,14.2,18.1,25.1,31.8,32.5c6.4,3.5,13.9,4.9,21,6.2
					c7.8,1.3,15.9,2.4,23.8,1.2c14.8-2.2,28.9-8.6,39.5-19.4c11.1-11.4,19.5-24.4,22.6-40.3c2.7-13.8,1.2-29.7-4.3-42.6
					c-6.8-15.7-18.9-29.8-34.1-38C102.3,1,83.7-1.1,67.1,2.9c-1.1,0.3-0.9,3.2,0,3c28.4-6.8,57.5,5.1,75.1,28.1
					c19,24.7,17.5,61.5-2,85.2c-8.9,10.8-19.8,20.1-33.4,24.5c-14.5,4.7-28.9,3.5-43.5,0.2c-28.9-6.6-51.3-34.1-52-63.7
					c-0.4-17.3,3-34.1,14.1-47.9c5-6.2,11.3-12.7,18.1-16.9C50.6,11,59.1,8,67.1,5.9C68.2,5.6,68,2.6,67.1,2.9z"/>
			</g>
		</g>
		<g>
			<g>
				<path class="st17" d="M53.3,13.3C46.5,18.9,41.8,25,37.1,32.4c-0.4,0.6-0.4,2.1,0.3,2.5c4.4,2.7,8.8,5.4,13.2,8
					c2.9,1.8,4.2,3.6,7.2,2.1c9.1-4.4,18.3-8.9,27.4-13.3c0.6-0.3,0.6-1.3,0.5-1.8c-0.8-6.3-1.6-12.5-2.4-18.8
					c0-0.4-0.2-1.1-0.7-1.1c-5.1-0.1-10.4-0.5-15.5,0.1C62.5,10.6,57.8,12.1,53.3,13.3c-0.9,0.2-0.8,3.2,0.4,2.9
					c4.6-1.3,9.4-2.8,14.2-3.2c4.9-0.5,9.9-0.1,14.8,0c-0.2-0.4-0.5-0.7-0.7-1.1c0.8,6.3,1.6,12.5,2.4,18.8c0.2-0.6,0.3-1.2,0.5-1.8
					c-8.9,4.3-17.8,8.6-26.7,13c-0.8,0.4-2.6,1.1-2.4,1.1c-1.5-0.2-3.9-2.4-5.2-3.1c-4.3-2.6-8.6-5.2-12.8-7.8
					c0.1,0.8,0.2,1.7,0.3,2.5c4.5-7.1,9-12.9,15.5-18.3C54.4,15.5,54,12.7,53.3,13.3z"/>
			</g>
		</g>
		<g>
			<path class="st165" d="M54.8,16.9c0,0-5,4.1-6.6,6c-1.9,2.2-6.6,9.6-6.6,9.6l15.2,9.2l24.4-11.9l-2-15.7c0,0-9.2-0.3-12.4,0
				C63.9,14.4,54.8,16.9,54.8,16.9z"/>
		</g>
		<g>
			<g>
				<path class="st17" d="M120.9,48.5c3.9-1,7.9-2.2,12-2.5c2.1-0.1,4.5-0.4,6.6-0.1c1.6,0.2,0.8-0.6,2.2,1.7
					c2.3,3.7,4.7,7.4,6.1,11.6c0.7,2,1,4.9,2,6.7c0.5,0.9-0.1,1.6,0.3-0.4c-0.1,0.7-0.4,1.4-0.6,2.2c-1.4,4.7-2.8,9.2-5.2,13.5
					c-1,1.8-2,3.7-3.2,5.5c-0.8,1.2-0.1,0.5-0.1,0.5c-0.2,0-0.9-0.4-1-0.5c-2.7-2.1-7-3.3-10.1-4.8c-2.6-1.2-5.2-2.5-7.8-3.7
					c0.2,0.5,0.4,1,0.6,1.4c0.3-11.1,0.2-22-1-33c-0.2-2-1.6-0.6-1.4,0.8c1.2,10.8,1.2,21.4,1,32.2c0,0.4,0.1,1.2,0.6,1.4
					c6.4,3,12.8,6.1,19.2,9.1c0.3,0.2,0.6-0.1,0.7-0.4c3.5-5.9,6.5-11.5,8.4-18c0.6-2,1.6-4.2,1.4-6.3c-0.3-3-1.8-6.4-2.8-9.2
					c-1.1-3.1-2.8-5.8-4.5-8.6c-0.8-1.3-1.9-4.1-3.3-4.7c-2.2-1-7.6-0.1-10,0.3c-3.3,0.5-6.7,1.5-9.9,2.3
					C119.8,45.8,120,48.7,120.9,48.5z"/>
			</g>
		</g>
		<g>
			<g>
				<path class="st17" d="M52.5,86c9.8,6.3,19.3,12.1,30.1,16.6c-0.2-0.6-0.3-1.2-0.5-1.8c-1.8,8.7-3.6,17.4-5.3,26.1
					c0.2-0.4,0.5-0.7,0.7-1.1c-4.8,0.5-9.6,1.1-14.4,1c-2.9-0.1-5.8-0.3-8.7-0.5c-1.7-0.1-5.3,0.3-6.9-0.5c-0.2-0.1-2-3-2.6-3.9
					c-1.9-2.8-3.9-5.7-5.7-8.6c-2.5-4.1-4.3-8.7-6.2-13.2c-0.1,0.8-0.2,1.7-0.3,2.5c6.8-5.5,13.6-11.1,20.4-16.6
					c0.8-0.6,0.4-3.5-0.4-2.9c-6.8,5.5-13.6,11.1-20.4,16.6c-0.7,0.6-0.7,1.7-0.3,2.5c2,4.8,3.9,9.6,6.7,14c1.7,2.6,3.4,5.2,5.2,7.8
					c0.8,1.2,2,3.9,3.3,4.6c1,0.6,3.6,0.3,4.7,0.4c3.2,0.2,6.4,0.4,9.6,0.6c5.4,0.2,10.8-0.3,16.1-0.9c0.5-0.1,0.6-0.7,0.7-1.1
					c1.8-8.7,3.6-17.4,5.3-26.1c0.1-0.5,0-1.6-0.5-1.8c-10.8-4.5-20.3-10.3-30.1-16.6C52,82.5,51.6,85.4,52.5,86z"/>
			</g>
		</g>
		<g>
			<g>
				<path class="st17" d="M52.3,48.9c0,10.5,0,21,0,31.5c0,1.8,1.5,1.8,1.5,0c0-10.5,0-21,0-31.5C53.8,47.1,52.3,47.1,52.3,48.9
					L52.3,48.9z"/>
			</g>
		</g>
		<g>
			<g>
				<path class="st17" d="M88.5,103.3c10.5-5.8,21.1-11.6,31.6-17.4c0.9-0.5,0.6-3.4-0.4-2.9c-10.5,5.8-21.1,11.6-31.6,17.4
					C87.2,100.9,87.6,103.8,88.5,103.3L88.5,103.3z"/>
			</g>
		</g>
		<g>
			<g>
				<path class="st17" d="M117.5,42.8c-9.2-4.5-18.3-9.1-27.5-13.6c-1-0.5-1.3,2.4-0.4,2.9c9.2,4.5,18.3,9.1,27.5,13.6
					C118.1,46.2,118.4,43.2,117.5,42.8L117.5,42.8z"/>
			</g>
		</g>
		<g>
			<g>
				<path class="st17" d="M33,33.7c-3.3,2.3-6.7,4.6-10,6.9c-0.8,0.6-0.5,3.5,0.4,2.9c3.3-2.3,6.7-4.6,10-6.9
					C34.2,36,33.8,33.1,33,33.7L33,33.7z"/>
			</g>
		</g>
		<g>
			<g>
				<path class="st17" d="M14.7,87.1c4,4.6,8,9.2,12.1,13.8c0.9,1,1.4-1.9,0.8-2.6c-4-4.6-8-9.2-12.1-13.8
					C14.6,83.5,14.1,86.3,14.7,87.1L14.7,87.1z"/>
			</g>
		</g>
		<g>
			<g>
				<path class="st17" d="M46.1,136.3c0.5-1.7,0.9-3.5,1.4-5.2c0.2-0.6,0.2-1.6-0.3-2.1c-0.5-0.5-0.9,0.1-1,0.5
					c-0.5,1.7-0.9,3.5-1.4,5.2c-0.2,0.6-0.2,1.6,0.3,2.1C45.5,137.3,46,136.8,46.1,136.3L46.1,136.3z"/>
			</g>
		</g>
		<g>
			<g>
				<path class="st17" d="M80.5,133.2c5.8,3.4,11.6,6.8,17.4,10.3c0.9,0.5,1.3-2.4,0.4-2.9c-5.8-3.4-11.6-6.8-17.4-10.3
					C80,129.8,79.7,132.7,80.5,133.2L80.5,133.2z"/>
			</g>
		</g>
		<g>
			<g>
				<path class="st17" d="M139.2,91.5c-1.3,9.4-2.6,18.8-3.8,28.3c-0.2,1.4,1.2,2.8,1.4,0.8c1.3-9.4,2.6-18.8,3.8-28.3
					C140.9,90.9,139.5,89.5,139.2,91.5L139.2,91.5z"/>
			</g>
		</g>
		<g>
			<path class="st163" d="M122.6,49.2c0,0,6.8-1.8,9.1-2.1c2.1-0.3,8.6-0.2,8.6-0.2s4.5,7,5.6,9.5c1.1,2.4,3.2,9.8,3.2,9.8
				s-2.2,8-3.2,10.2c-1.2,2.8-5.4,9.8-5.4,9.8l-17-8.1c0,0,0.3-13,0.2-17.4C123.5,57.8,122.6,49.2,122.6,49.2z"/>
		</g>
		<g>
			<path class="st166" d="M53.1,87.5c0,0,12.2,7.9,16.1,10c2.9,1.6,11.1,5,11.1,5l-4.8,23.6c0,0-8.5,0.9-11.8,0.9
				c-3.5,0-15.5-0.9-15.5-0.9s-6.8-9.7-8.8-13.2c-1.4-2.5-4.6-10.4-4.6-10.4L53.1,87.5z"/>
		</g>
	</g>
</g>
<g id="מסך_פתיחה">
</g>
<g id="מקלדת_נפתחת">
</g>
</svg>
