<?xml version="1.0" encoding="utf-8"?>
<!-- Generator: Adobe Illustrator 22.0.1, SVG Export Plug-In . SVG Version: 6.00 Build 0)  -->
<svg version="1.1" xmlns="http://www.w3.org/2000/svg" xmlns:xlink="http://www.w3.org/1999/xlink" x="0px" y="0px"
	 viewBox="0 0 241.9 204" style="enable-background:new 0 0 241.9 204;" xml:space="preserve">
<style type="text/css">
	.st0{display:none;}
	.st1{display:inline;opacity:0.38;}
	.st2{opacity:0.3;fill-rule:evenodd;clip-rule:evenodd;fill:#CCCCCC;}
	.st3{opacity:0.3;}
	.st4{fill-rule:evenodd;clip-rule:evenodd;fill:#EC2224;}
	.st5{fill:#5DCAE6;}
	.st6{fill:#6FC5A2;}
	.st7{fill:#EFDE65;}
	.st8{fill:#F27557;}
	.st9{display:inline;opacity:0.28;fill:#462267;}
	.st10{display:inline;opacity:0.28;fill:#652369;}
	.st11{display:inline;opacity:0.28;fill:#E8E613;}
	.st12{fill:#FFFFFF;}
	.st13{fill:#69B0B3;}
	.st14{fill:#FFF100;stroke:#231F20;stroke-width:1.2022;stroke-miterlimit:10;}
	.st15{fill:#F4DD56;}
	.st16{fill:none;stroke:#423E3F;stroke-miterlimit:10;}
	.st17{fill:#423E3F;}
	.st18{fill:#FFC6CF;}
	.st19{enable-background:new    ;}
	.st20{clip-path:url(#SVGID_2_);enable-background:new    ;}
	.st21{fill:#939393;}
	.st22{fill:#979797;}
	.st23{fill:#9B9B9B;}
	.st24{fill:#9F9F9F;}
	.st25{fill:#A3A3A3;}
	.st26{fill:#8F8F8F;}
	.st27{fill:#8B8B8B;}
	.st28{fill:#878787;}
	.st29{fill:#838383;}
	.st30{fill:#7E7E7E;}
	.st31{fill:#7A7A7A;}
	.st32{fill:#767676;}
	.st33{clip-path:url(#SVGID_4_);enable-background:new    ;}
	.st34{clip-path:url(#SVGID_6_);enable-background:new    ;}
	.st35{clip-path:url(#SVGID_8_);enable-background:new    ;}
	.st36{fill:#6A6A6A;}
	.st37{clip-path:url(#SVGID_10_);enable-background:new    ;}
	.st38{clip-path:url(#SVGID_12_);enable-background:new    ;}
	.st39{clip-path:url(#SVGID_14_);enable-background:new    ;}
	.st40{fill:#6E6E6E;}
	.st41{fill:#727272;}
	.st42{clip-path:url(#SVGID_16_);enable-background:new    ;}
	.st43{clip-path:url(#SVGID_18_);enable-background:new    ;}
	.st44{clip-path:url(#SVGID_20_);enable-background:new    ;}
	.st45{clip-path:url(#SVGID_22_);enable-background:new    ;}
	.st46{clip-path:url(#SVGID_24_);enable-background:new    ;}
	.st47{clip-path:url(#SVGID_26_);enable-background:new    ;}
	.st48{clip-path:url(#SVGID_28_);enable-background:new    ;}
	.st49{clip-path:url(#SVGID_30_);enable-background:new    ;}
	.st50{fill:#A0A0A0;}
	.st51{clip-path:url(#SVGID_32_);enable-background:new    ;}
	.st52{fill:#9A9A9A;}
	.st53{clip-path:url(#SVGID_34_);enable-background:new    ;}
	.st54{clip-path:url(#SVGID_36_);enable-background:new    ;}
	.st55{fill:#787878;}
	.st56{clip-path:url(#SVGID_38_);enable-background:new    ;}
	.st57{clip-path:url(#SVGID_40_);enable-background:new    ;}
	.st58{clip-path:url(#SVGID_42_);enable-background:new    ;}
	.st59{clip-path:url(#SVGID_44_);enable-background:new    ;}
	.st60{clip-path:url(#SVGID_46_);enable-background:new    ;}
	.st61{clip-path:url(#SVGID_48_);enable-background:new    ;}
	.st62{clip-path:url(#SVGID_50_);enable-background:new    ;}
	.st63{clip-path:url(#SVGID_52_);enable-background:new    ;}
	.st64{clip-path:url(#SVGID_54_);enable-background:new    ;}
	.st65{clip-path:url(#SVGID_56_);enable-background:new    ;}
	.st66{clip-path:url(#SVGID_58_);enable-background:new    ;}
	.st67{clip-path:url(#SVGID_60_);enable-background:new    ;}
	.st68{clip-path:url(#SVGID_62_);enable-background:new    ;}
	.st69{clip-path:url(#SVGID_64_);enable-background:new    ;}
	.st70{clip-path:url(#SVGID_66_);enable-background:new    ;}
	.st71{clip-path:url(#SVGID_68_);enable-background:new    ;}
	.st72{clip-path:url(#SVGID_70_);enable-background:new    ;}
	.st73{clip-path:url(#SVGID_72_);enable-background:new    ;}
	.st74{clip-path:url(#SVGID_74_);enable-background:new    ;}
	.st75{clip-path:url(#SVGID_76_);enable-background:new    ;}
	.st76{clip-path:url(#SVGID_78_);enable-background:new    ;}
	.st77{clip-path:url(#SVGID_80_);enable-background:new    ;}
	.st78{clip-path:url(#SVGID_82_);enable-background:new    ;}
	.st79{clip-path:url(#SVGID_84_);enable-background:new    ;}
	.st80{clip-path:url(#SVGID_86_);enable-background:new    ;}
	.st81{clip-path:url(#SVGID_88_);enable-background:new    ;}
	.st82{clip-path:url(#SVGID_90_);enable-background:new    ;}
	.st83{clip-path:url(#SVGID_92_);enable-background:new    ;}
	.st84{clip-path:url(#SVGID_94_);enable-background:new    ;}
	.st85{clip-path:url(#SVGID_96_);enable-background:new    ;}
	.st86{clip-path:url(#SVGID_98_);enable-background:new    ;}
	.st87{clip-path:url(#SVGID_100_);enable-background:new    ;}
	.st88{clip-path:url(#SVGID_102_);enable-background:new    ;}
	.st89{clip-path:url(#SVGID_104_);enable-background:new    ;}
	.st90{clip-path:url(#SVGID_106_);enable-background:new    ;}
	.st91{fill:#009245;}
	.st92{fill:#F17557;}
	.st93{fill:#DB1919;}
	.st94{fill:#594A42;}
	.st95{fill:#EDAA00;}
	.st96{fill:#443630;}
	.st97{fill:#A7A9AC;}
	.st98{fill:#BCBEC0;}
	.st99{fill:#726658;}
	.st100{fill:#FFD35A;}
	.st101{fill:none;stroke:#F27557;stroke-miterlimit:10;}
	.st102{fill:none;stroke:#C0D9DB;stroke-miterlimit:10;}
	.st103{clip-path:url(#SVGID_108_);enable-background:new    ;}
	.st104{clip-path:url(#SVGID_110_);enable-background:new    ;}
	.st105{clip-path:url(#SVGID_112_);enable-background:new    ;}
	.st106{clip-path:url(#SVGID_114_);enable-background:new    ;}
	.st107{clip-path:url(#SVGID_116_);enable-background:new    ;}
	.st108{clip-path:url(#SVGID_118_);enable-background:new    ;}
	.st109{clip-path:url(#SVGID_120_);enable-background:new    ;}
	.st110{clip-path:url(#SVGID_122_);enable-background:new    ;}
	.st111{clip-path:url(#SVGID_124_);enable-background:new    ;}
	.st112{clip-path:url(#SVGID_126_);enable-background:new    ;}
	.st113{clip-path:url(#SVGID_128_);enable-background:new    ;}
	.st114{clip-path:url(#SVGID_130_);enable-background:new    ;}
	.st115{clip-path:url(#SVGID_132_);enable-background:new    ;}
	.st116{clip-path:url(#SVGID_134_);enable-background:new    ;}
	.st117{clip-path:url(#SVGID_136_);enable-background:new    ;}
	.st118{clip-path:url(#SVGID_138_);enable-background:new    ;}
	.st119{clip-path:url(#SVGID_140_);enable-background:new    ;}
	.st120{clip-path:url(#SVGID_142_);enable-background:new    ;}
	.st121{clip-path:url(#SVGID_144_);enable-background:new    ;}
	.st122{clip-path:url(#SVGID_146_);enable-background:new    ;}
	.st123{clip-path:url(#SVGID_148_);enable-background:new    ;}
	.st124{clip-path:url(#SVGID_150_);enable-background:new    ;}
	.st125{clip-path:url(#SVGID_152_);enable-background:new    ;}
	.st126{clip-path:url(#SVGID_154_);enable-background:new    ;}
	.st127{clip-path:url(#SVGID_156_);enable-background:new    ;}
	.st128{clip-path:url(#SVGID_158_);enable-background:new    ;}
	.st129{clip-path:url(#SVGID_160_);enable-background:new    ;}
	.st130{clip-path:url(#SVGID_162_);enable-background:new    ;}
	.st131{clip-path:url(#SVGID_164_);enable-background:new    ;}
	.st132{clip-path:url(#SVGID_166_);enable-background:new    ;}
	.st133{clip-path:url(#SVGID_168_);enable-background:new    ;}
	.st134{clip-path:url(#SVGID_170_);enable-background:new    ;}
	.st135{clip-path:url(#SVGID_172_);enable-background:new    ;}
	.st136{clip-path:url(#SVGID_174_);enable-background:new    ;}
	.st137{clip-path:url(#SVGID_176_);enable-background:new    ;}
	.st138{clip-path:url(#SVGID_178_);enable-background:new    ;}
	.st139{clip-path:url(#SVGID_180_);enable-background:new    ;}
	.st140{clip-path:url(#SVGID_182_);enable-background:new    ;}
	.st141{clip-path:url(#SVGID_184_);enable-background:new    ;}
	.st142{clip-path:url(#SVGID_186_);enable-background:new    ;}
	.st143{clip-path:url(#SVGID_188_);enable-background:new    ;}
	.st144{clip-path:url(#SVGID_190_);enable-background:new    ;}
	.st145{clip-path:url(#SVGID_192_);enable-background:new    ;}
	.st146{clip-path:url(#SVGID_194_);enable-background:new    ;}
	.st147{clip-path:url(#SVGID_196_);enable-background:new    ;}
	.st148{clip-path:url(#SVGID_198_);enable-background:new    ;}
	.st149{clip-path:url(#SVGID_200_);enable-background:new    ;}
	.st150{clip-path:url(#SVGID_202_);enable-background:new    ;}
	.st151{clip-path:url(#SVGID_204_);enable-background:new    ;}
	.st152{clip-path:url(#SVGID_206_);enable-background:new    ;}
	.st153{fill:none;stroke:#BCE6F4;stroke-width:5;stroke-miterlimit:10;}
	.st154{fill:none;stroke:#231F20;stroke-miterlimit:10;}
	.st155{fill:#FB485D;}
	.st156{fill:#94D2E0;}
	.st157{clip-path:url(#SVGID_208_);fill:#222221;}
	.st158{fill:#222221;}
	.st159{fill:#231F20;}
	.st160{fill:#A6E2C8;}
	.st161{fill:#FFF100;}
	.st162{fill:none;stroke:#1AB17F;stroke-miterlimit:10;}
	.st163{fill:#8DCCDB;}
	.st164{fill:#FEDCD6;}
	.st165{fill:#DB4B5F;}
	.st166{fill:#FDA898;}
	.st167{fill:#AED4D5;}
	.st168{fill:#E8EFEF;}
	.st169{fill:none;stroke:#4C6363;stroke-width:0.405;stroke-miterlimit:10;}
	.st170{clip-path:url(#SVGID_210_);fill:#222221;}
	.st171{clip-path:url(#SVGID_212_);fill:#222221;}
	.st172{clip-path:url(#SVGID_214_);fill:#222221;}
	.st173{clip-path:url(#SVGID_216_);fill:#222221;}
	.st174{clip-path:url(#SVGID_218_);fill:#222221;}
	.st175{clip-path:url(#SVGID_220_);fill:#222221;}
	.st176{fill:#4C6363;}
	.st177{fill:#EEDE65;}
</style>
<g id="קווי_עזר" class="st0">
</g>
<g id="bootstrap_grid" class="st0">
</g>
<g id="Layer_1">
</g>
<g id="המשך_שאלות">
</g>
<g id="המשך_רגשות">
</g>
<g id="מסך_שאלות">
	<g id="שאלות">
	</g>
</g>
<g id="מסך_רגשות">
</g>
<g id="מסך_רצונות">
</g>
<g id="מסך_פתיחה">
	<g>
		<g>
			<g>
				<g>
					<g>
						<path d="M65.3,178.8c-1.1,3.7-2.2,7.4-4,10.8c-1.1,2-2.1,3.9-3.9,5.2c-3.6,2.7-7.3,1.9-7.6-3.8c0-0.6-0.6-3.1-1.6-1.9
							c-1.3,1.6-2.5,3.6-4.4,4.5c-3.8,2-4.2-2.5-6.4-4.3c-1.7-1.4-3.6-2-5-3.9c-2.8-3.6-5-7.8-7.1-11.8
							c-8.4-16.5-12.1-34.7-11.1-53.1c2-34.6,20.6-69,50.5-87.5C79,24.2,95,17.9,111.8,16.9c17.4-1.1,35.4,2,51.3,9.2
							c13.9,6.3,26.6,16,35.6,28.4c10.4,14.2,16,31.8,19,49c1.7,9.5,2.4,19.3,2.8,29c0.3,9.1-0.9,17-2.9,25.9c-2,9-4.1,18-7,26.8
							c-0.8,2.3-1.6,4.6-2.7,6.8c-1.1,2.4-4.5,5.2-6.6,2.2c-1.7-2.4-0.7-6.8-1.7-9.6c-0.2-0.7-0.8-1.5-1.5-0.8c-1.6,1.6-4.1,3-6,4.4
							c-2.8,2.3-5.6,4.6-8.6,6.7c-4.4,3-11.3,6.5-13.2-1.3c-0.6-2.4-0.3-5.1-0.2-7.5c0-0.7-0.2-1.8,0-2.5c-0.2,0.8,0-5.5,1.6-1.1
							c0.9,2.7,2.4-0.7,1.9-2.2c-1.8-5-5.7-1.9-5.7,2.2c0,5.5-1.5,14.4,3.1,18.7c5,4.6,12.5-1.5,16.4-4.6c3.6-2.8,8.5-5.9,11.7-9.1
							c-0.5-0.3-1-0.5-1.5-0.8c1.1,3.3,0.2,15.4,7.3,13.5c2.4-0.6,3.4-3.3,4.3-5.2c1.9-3.8,3.2-7.9,4.4-12c2.8-9.5,5.1-19.2,7.1-29
							c1.8-8.3,2.1-15.9,1.7-24.4c-1.5-36.9-11.3-75.8-42.8-98.4c-15.4-11.1-34.2-17-53-18.5c-20.3-1.5-39.3,3.2-57.1,13
							c-33.5,18.5-54.6,54.6-57.4,92.4c-1.6,21.8,2.8,43.5,13.6,62.6c1.8,3.3,3.9,7.4,6.6,10c1.1,1,3,1.5,3.9,2.6
							c0.4,0.5,0.2,1.3,0.8,2.5c3,6.7,9.4,0.6,12.1-2.9c-0.5-0.6-1.1-1.2-1.6-1.9c0.2,4.8,2,11.8,8.5,9.2
							c6.7-2.7,9.3-13.1,11.1-19.3C67.6,179.5,66.1,176.1,65.3,178.8L65.3,178.8z"/>
					</g>
				</g>
				<g>
					<path class="st12" d="M121.6,100.9c6.9,7.1,18.1,12.5,33.7,7.5c12.9-4.2,23.9-14.7,32.9-22.6l1.1-1.3c0.7-0.5,1.3-1,1.9-1.3
						c0.9-0.7,1.8-1.1,2.7-1.1c1.1,0,2,0.4,2.9,1.3c1.9,1.4,3,4.3,3.2,8.8c0,1.2-0.1,2.8-0.3,4.8v3.4c0,12.6-2.2,37.9-6.6,48.7
						c-4.4,10.8-11.3,19.9-20.6,27.5c-9.3,7.5-20.3,12.1-33,13.7c-29,3.5-52.9,0.1-71.6-10.3l-3.2-1.9c-11-6.9-19.4-16.3-25.2-28.1
						c-5.3-10.8-8.5-20.2-9.6-28.4c-0.2-1.8-0.3-21.9-0.3-24.7c4.4,2.1,13.7,5.7,19.9,6.8c12.2,2.1,25.7,6.6,40.6,4.8
						c9-1.1,26.8-6.3,34.8-8.6L121.6,100.9z"/>
					<g>
						<path d="M121.5,101.3c11.5,11.4,27.5,11.6,41.4,4.3c7.7-4,14.5-9.7,21-15.5c2.3-2,4.7-5,7.3-6.6c8.2-4.8,8.3,8.8,8.1,13.3
							c-0.4,13.6-0.9,27.2-3.5,40.6c-3.5,18-14.7,33.8-30.4,43.3c-16.3,9.8-36.9,11-55.5,9.9c-15.8-1-31.5-4.9-45-13.1
							c-16.6-10.1-26.8-27.2-32.4-45.4c-1.9-6-2.5-11.7-2.6-17.9c0-2.8-0.1-5.7-0.1-8.5c0-2.1-0.8-5.7,0-7.7
							c0.4-1.2,0.5-0.4,2.2,0.4c1.9,0.9,4,1.6,6,2.4c4.3,1.5,8.5,2.7,12.9,3.6c10.2,2,20.4,4.8,30.8,5c9.1,0.2,17.9-2.1,26.7-4.4
							c3.8-1,7.5-2.1,11.3-3.1c0.4-0.1,5.8-1.4,4.7-2.4c-0.2-0.2-2.6,0.9-3,1c-0.3,0.1-0.3,1.2,0.1,1c1.1-0.4,2.1-0.8,3.2-1.1
							c0.3-0.1,0.3-1.2-0.1-1c-14.4,4.2-29.5,9.6-44.7,8.9c-9.1-0.4-17.9-2.7-26.7-4.4c-8.2-1.7-16.1-3.9-23.7-7.5
							c-0.3-0.1-0.3,0.4-0.3,0.5c0,8.1-0.5,16.4,0.2,24.5c1.1,12.8,7.4,26.7,14.3,37.2C59.4,181.7,87,191.1,114,192
							c15.6,0.5,32.5-0.5,46.8-7.5c13.1-6.4,24-17.6,30.4-30.7c5.4-11.1,6.7-23.9,7.8-36c0.5-5.8,0.8-11.6,0.9-17.3
							c0-4.4,0.9-9.1-0.5-13.4c-1.7-5.2-6-6.8-10.2-3c-5.9,5.3-11.5,10.8-18,15.5c-15.1,10.8-35,15.3-49.4,1
							C121.4,100,121.2,101.1,121.5,101.3z"/>
					</g>
				</g>
				<path class="st177" d="M211.2,80.2c-4.1-12.7-14.9-27.6-26.7-38c-9.9-8.8-20.6-14.7-26.5-17.4c-12.9-5.8-46.8-8.6-76.2-0.7
					C65.2,28.5,42.6,50,29.6,71.4c-10.4,17-12.9,34-14.8,42.6c-4.3,19.4,7.4,57.6,20.9,69.8c4.1,3.7,15.4,9,20.9,7.9
					c3.2-0.6,7.7-8.9,7.8-12.1c-14.7-3-26.3-26.8-33-39.7c-5.3-10.2-2.9-46-2.9-46s4.5,2.4,6.5,2.9c10.2,2.3,33.8,9.2,44.2,9
					c7.6-0.2,36.7-2.9,33.8-5.8c-1.9-1.9-8.1-11.7-6.5-22.3c1.1-6.8,6.1-14.7,7.9-17.3c3-4.3,8.5-8.3,15.6-8.3
					c-9,3.1-18.2,11.5-18.2,23.5c0,8.9,2.5,12,6.7,16.7c2.6,2.9,9.2,6.7,9.2,6.7s18.4,10.3,32.8,3.1c14.4-7.2,25.3-25.7,35.2-21.6
					c5.7,2.3,6.4,10.7,6.8,19.4c0.3,6.5-0.6,13.2-0.6,17.6c-0.1,11.6-3.4,22.8-6.1,32c-2.3,7.8-6.2,14.2-8.3,16.2
					c-12.3,11.6-17.7,24.7-14.4,28.1c4.5,4.5,25.8-11.4,27.3-14.3c0.4-0.8,1.2,20.1,5.8,12.2c2-3.5,11.1-34.8,11.9-40
					C221,131.8,215.9,94.9,211.2,80.2z"/>
				<g>
					<path class="st155" d="M92.5,164c1.4,0.3,2.6,0.8,3.8,1.3l3.6,1.4c2.3,1,4.6,1.9,6.8,2.7c0.6,0.2,1.1,0.4,1.7,0.6
						c0.6,0.2,1.1,0.4,1.6,0.6c1.1,0.3,2.2,0.7,3.2,1c1.1,0.3,2.1,0.5,3.1,0.8c1,0.1,2,0.4,3,0.4l0.7,0.1c0.3,0,0.5,0,0.8,0l1.6,0
						c0.5,0,1.1-0.1,1.6-0.1c0.6,0,1.1,0,1.7-0.1c2.2-0.1,4.4-0.5,6.7-1c4.6-0.9,9.1-2.4,14.2-4.2c-2.5,4.8-6.7,8.7-11.6,11.3
						c-1.2,0.6-2.5,1.2-3.8,1.7c-0.7,0.2-1.3,0.5-2,0.7l-2.1,0.5c-0.7,0.2-1.4,0.3-2.1,0.4c-0.7,0.1-1.4,0.2-2.1,0.3l-2.1,0.1
						c-0.4,0-0.7,0-1.1,0l-1.2-0.1c-0.8-0.1-1.6-0.1-2.3-0.3l-2.2-0.5c-0.7-0.2-1.4-0.4-2.1-0.7c-0.7-0.2-1.4-0.5-2-0.8
						c-2.6-1.1-5-2.6-7.2-4.2C98.6,172.7,95.1,168.6,92.5,164z"/>
				</g>
				<g>
					<g>
						<g>
							<path d="M129.8,133.2c11-0.1,21.9-2.1,31-8.6c1.2-0.9,0.7-5.2-0.6-4.3c-9,6.4-19.6,8.3-30.4,8.4
								C128.3,128.7,128.3,133.2,129.8,133.2L129.8,133.2z"/>
						</g>
					</g>
				</g>
				<g>
					<g>
						<g>
							<path d="M103.6,128.7c-10.8-0.1-21.5-2.1-30.4-8.4c-1.2-0.9-1.9,3.4-0.6,4.3c9.1,6.5,20,8.5,31,8.6
								C105.1,133.2,105.1,128.7,103.6,128.7L103.6,128.7z"/>
						</g>
					</g>
				</g>
			</g>
		</g>
		<g>
			<g>
				<path class="st93" d="M191.6,54.3c0.8-13.1,22.8-16.8,23.4-26.8c0.4-6.1-4.6-10.2-14-10.8c-8.6-0.5-14.7,1.6-20.6,4.3l-2.6-12.3
					c4-2,12.5-5.8,25.3-5c17.5,1.1,26.7,9.8,25.9,23.4c-1.1,17.8-23.4,21.2-23.9,29.8c-0.2,2.5,0.5,5,1.9,7.6L194,63.7
					C192,60.7,191.4,57.1,191.6,54.3z M199.7,75.1c6.1,0.4,9.6,4.9,9.3,10.3c-0.4,5.7-4.3,9.6-10.5,9.3c-5.4-0.3-9.3-4.4-8.9-10.5
					C189.9,78.6,194.1,74.7,199.7,75.1z"/>
			</g>
		</g>
	</g>
</g>
<g id="מקלדת_נפתחת">
</g>
</svg>
