<?xml version="1.0" encoding="utf-8"?>
<!-- Generator: Adobe Illustrator 22.0.1, SVG Export Plug-In . SVG Version: 6.00 Build 0)  -->
<svg version="1.1" xmlns="http://www.w3.org/2000/svg" xmlns:xlink="http://www.w3.org/1999/xlink" x="0px" y="0px"
	 viewBox="0 0 166.6 150.6" style="enable-background:new 0 0 166.6 150.6;" xml:space="preserve">
<style type="text/css">
	.st0{display:none;}
	.st1{display:inline;opacity:0.38;}
	.st2{opacity:0.3;fill-rule:evenodd;clip-rule:evenodd;fill:#CCCCCC;}
	.st3{opacity:0.3;}
	.st4{fill-rule:evenodd;clip-rule:evenodd;fill:#EC2224;}
	.st5{fill:#5DCAE6;}
	.st6{fill:#6FC5A2;}
	.st7{fill:#EFDE65;}
	.st8{fill:#F27557;}
	.st9{display:inline;opacity:0.28;fill:#462267;}
	.st10{display:inline;opacity:0.28;fill:#652369;}
	.st11{display:inline;opacity:0.28;fill:#E8E613;}
	.st12{fill:#FFFFFF;}
	.st13{fill:#69B0B3;}
	.st14{fill:#FFF100;stroke:#231F20;stroke-width:1.2022;stroke-miterlimit:10;}
	.st15{fill:#F4DD56;}
	.st16{fill:none;stroke:#423E3F;stroke-miterlimit:10;}
	.st17{fill:#423E3F;}
	.st18{fill:#FFC6CF;}
	.st19{enable-background:new    ;}
	.st20{clip-path:url(#SVGID_2_);enable-background:new    ;}
	.st21{fill:#939393;}
	.st22{fill:#979797;}
	.st23{fill:#9B9B9B;}
	.st24{fill:#9F9F9F;}
	.st25{fill:#A3A3A3;}
	.st26{fill:#8F8F8F;}
	.st27{fill:#8B8B8B;}
	.st28{fill:#878787;}
	.st29{fill:#838383;}
	.st30{fill:#7E7E7E;}
	.st31{fill:#7A7A7A;}
	.st32{fill:#767676;}
	.st33{clip-path:url(#SVGID_4_);enable-background:new    ;}
	.st34{clip-path:url(#SVGID_6_);enable-background:new    ;}
	.st35{clip-path:url(#SVGID_8_);enable-background:new    ;}
	.st36{fill:#6A6A6A;}
	.st37{clip-path:url(#SVGID_10_);enable-background:new    ;}
	.st38{clip-path:url(#SVGID_12_);enable-background:new    ;}
	.st39{clip-path:url(#SVGID_14_);enable-background:new    ;}
	.st40{fill:#6E6E6E;}
	.st41{fill:#727272;}
	.st42{clip-path:url(#SVGID_16_);enable-background:new    ;}
	.st43{clip-path:url(#SVGID_18_);enable-background:new    ;}
	.st44{clip-path:url(#SVGID_20_);enable-background:new    ;}
	.st45{clip-path:url(#SVGID_22_);enable-background:new    ;}
	.st46{clip-path:url(#SVGID_24_);enable-background:new    ;}
	.st47{clip-path:url(#SVGID_26_);enable-background:new    ;}
	.st48{clip-path:url(#SVGID_28_);enable-background:new    ;}
	.st49{clip-path:url(#SVGID_30_);enable-background:new    ;}
	.st50{fill:#A0A0A0;}
	.st51{clip-path:url(#SVGID_32_);enable-background:new    ;}
	.st52{fill:#9A9A9A;}
	.st53{clip-path:url(#SVGID_34_);enable-background:new    ;}
	.st54{clip-path:url(#SVGID_36_);enable-background:new    ;}
	.st55{fill:#787878;}
	.st56{clip-path:url(#SVGID_38_);enable-background:new    ;}
	.st57{clip-path:url(#SVGID_40_);enable-background:new    ;}
	.st58{clip-path:url(#SVGID_42_);enable-background:new    ;}
	.st59{clip-path:url(#SVGID_44_);enable-background:new    ;}
	.st60{clip-path:url(#SVGID_46_);enable-background:new    ;}
	.st61{clip-path:url(#SVGID_48_);enable-background:new    ;}
	.st62{clip-path:url(#SVGID_50_);enable-background:new    ;}
	.st63{clip-path:url(#SVGID_52_);enable-background:new    ;}
	.st64{clip-path:url(#SVGID_54_);enable-background:new    ;}
	.st65{clip-path:url(#SVGID_56_);enable-background:new    ;}
	.st66{clip-path:url(#SVGID_58_);enable-background:new    ;}
	.st67{clip-path:url(#SVGID_60_);enable-background:new    ;}
	.st68{clip-path:url(#SVGID_62_);enable-background:new    ;}
	.st69{clip-path:url(#SVGID_64_);enable-background:new    ;}
	.st70{clip-path:url(#SVGID_66_);enable-background:new    ;}
	.st71{clip-path:url(#SVGID_68_);enable-background:new    ;}
	.st72{clip-path:url(#SVGID_70_);enable-background:new    ;}
	.st73{clip-path:url(#SVGID_72_);enable-background:new    ;}
	.st74{clip-path:url(#SVGID_74_);enable-background:new    ;}
	.st75{clip-path:url(#SVGID_76_);enable-background:new    ;}
	.st76{clip-path:url(#SVGID_78_);enable-background:new    ;}
	.st77{clip-path:url(#SVGID_80_);enable-background:new    ;}
	.st78{clip-path:url(#SVGID_82_);enable-background:new    ;}
	.st79{clip-path:url(#SVGID_84_);enable-background:new    ;}
	.st80{clip-path:url(#SVGID_86_);enable-background:new    ;}
	.st81{clip-path:url(#SVGID_88_);enable-background:new    ;}
	.st82{clip-path:url(#SVGID_90_);enable-background:new    ;}
	.st83{clip-path:url(#SVGID_92_);enable-background:new    ;}
	.st84{clip-path:url(#SVGID_94_);enable-background:new    ;}
	.st85{clip-path:url(#SVGID_96_);enable-background:new    ;}
	.st86{clip-path:url(#SVGID_98_);enable-background:new    ;}
	.st87{clip-path:url(#SVGID_100_);enable-background:new    ;}
	.st88{clip-path:url(#SVGID_102_);enable-background:new    ;}
	.st89{clip-path:url(#SVGID_104_);enable-background:new    ;}
	.st90{clip-path:url(#SVGID_106_);enable-background:new    ;}
	.st91{fill:#009245;}
	.st92{fill:#F17557;}
	.st93{fill:#DB1919;}
	.st94{fill:#594A42;}
	.st95{fill:#EDAA00;}
	.st96{fill:#443630;}
	.st97{fill:#A7A9AC;}
	.st98{fill:#BCBEC0;}
	.st99{fill:#726658;}
	.st100{fill:#FFD35A;}
	.st101{fill:none;stroke:#F27557;stroke-miterlimit:10;}
	.st102{fill:none;stroke:#C0D9DB;stroke-miterlimit:10;}
	.st103{clip-path:url(#SVGID_108_);enable-background:new    ;}
	.st104{clip-path:url(#SVGID_110_);enable-background:new    ;}
	.st105{clip-path:url(#SVGID_112_);enable-background:new    ;}
	.st106{clip-path:url(#SVGID_114_);enable-background:new    ;}
	.st107{clip-path:url(#SVGID_116_);enable-background:new    ;}
	.st108{clip-path:url(#SVGID_118_);enable-background:new    ;}
	.st109{clip-path:url(#SVGID_120_);enable-background:new    ;}
	.st110{clip-path:url(#SVGID_122_);enable-background:new    ;}
	.st111{clip-path:url(#SVGID_124_);enable-background:new    ;}
	.st112{clip-path:url(#SVGID_126_);enable-background:new    ;}
	.st113{clip-path:url(#SVGID_128_);enable-background:new    ;}
	.st114{clip-path:url(#SVGID_130_);enable-background:new    ;}
	.st115{clip-path:url(#SVGID_132_);enable-background:new    ;}
	.st116{clip-path:url(#SVGID_134_);enable-background:new    ;}
	.st117{clip-path:url(#SVGID_136_);enable-background:new    ;}
	.st118{clip-path:url(#SVGID_138_);enable-background:new    ;}
	.st119{clip-path:url(#SVGID_140_);enable-background:new    ;}
	.st120{clip-path:url(#SVGID_142_);enable-background:new    ;}
	.st121{clip-path:url(#SVGID_144_);enable-background:new    ;}
	.st122{clip-path:url(#SVGID_146_);enable-background:new    ;}
	.st123{clip-path:url(#SVGID_148_);enable-background:new    ;}
	.st124{clip-path:url(#SVGID_150_);enable-background:new    ;}
	.st125{clip-path:url(#SVGID_152_);enable-background:new    ;}
	.st126{clip-path:url(#SVGID_154_);enable-background:new    ;}
	.st127{clip-path:url(#SVGID_156_);enable-background:new    ;}
	.st128{clip-path:url(#SVGID_158_);enable-background:new    ;}
	.st129{clip-path:url(#SVGID_160_);enable-background:new    ;}
	.st130{clip-path:url(#SVGID_162_);enable-background:new    ;}
	.st131{clip-path:url(#SVGID_164_);enable-background:new    ;}
	.st132{clip-path:url(#SVGID_166_);enable-background:new    ;}
	.st133{clip-path:url(#SVGID_168_);enable-background:new    ;}
	.st134{clip-path:url(#SVGID_170_);enable-background:new    ;}
	.st135{clip-path:url(#SVGID_172_);enable-background:new    ;}
	.st136{clip-path:url(#SVGID_174_);enable-background:new    ;}
	.st137{clip-path:url(#SVGID_176_);enable-background:new    ;}
	.st138{clip-path:url(#SVGID_178_);enable-background:new    ;}
	.st139{clip-path:url(#SVGID_180_);enable-background:new    ;}
	.st140{clip-path:url(#SVGID_182_);enable-background:new    ;}
	.st141{clip-path:url(#SVGID_184_);enable-background:new    ;}
	.st142{clip-path:url(#SVGID_186_);enable-background:new    ;}
	.st143{clip-path:url(#SVGID_188_);enable-background:new    ;}
	.st144{clip-path:url(#SVGID_190_);enable-background:new    ;}
	.st145{clip-path:url(#SVGID_192_);enable-background:new    ;}
	.st146{clip-path:url(#SVGID_194_);enable-background:new    ;}
	.st147{clip-path:url(#SVGID_196_);enable-background:new    ;}
	.st148{clip-path:url(#SVGID_198_);enable-background:new    ;}
	.st149{clip-path:url(#SVGID_200_);enable-background:new    ;}
	.st150{clip-path:url(#SVGID_202_);enable-background:new    ;}
	.st151{clip-path:url(#SVGID_204_);enable-background:new    ;}
	.st152{clip-path:url(#SVGID_206_);enable-background:new    ;}
	.st153{fill:none;stroke:#BCE6F4;stroke-width:5;stroke-miterlimit:10;}
	.st154{fill:none;stroke:#231F20;stroke-miterlimit:10;}
	.st155{fill:#FB485D;}
	.st156{fill:#94D2E0;}
	.st157{clip-path:url(#SVGID_208_);fill:#222221;}
	.st158{fill:#222221;}
	.st159{fill:#231F20;}
	.st160{fill:#A6E2C8;}
	.st161{fill:#FFF100;}
	.st162{fill:none;stroke:#1AB17F;stroke-miterlimit:10;}
	.st163{fill:#8DCCDB;}
	.st164{fill:#FEDCD6;}
	.st165{fill:#DB4B5F;}
	.st166{fill:#FDA898;}
	.st167{fill:#AED4D5;}
	.st168{fill:#E8EFEF;}
	.st169{fill:none;stroke:#4C6363;stroke-width:0.405;stroke-miterlimit:10;}
	.st170{clip-path:url(#SVGID_210_);fill:#222221;}
	.st171{clip-path:url(#SVGID_212_);fill:#222221;}
	.st172{clip-path:url(#SVGID_214_);fill:#222221;}
	.st173{clip-path:url(#SVGID_216_);fill:#222221;}
	.st174{clip-path:url(#SVGID_218_);fill:#222221;}
	.st175{clip-path:url(#SVGID_220_);fill:#222221;}
	.st176{fill:#4C6363;}
	.st177{fill:#EEDE65;}
</style>
<g id="קווי_עזר" class="st0">
</g>
<g id="bootstrap_grid" class="st0">
</g>
<g id="Layer_1">
</g>
<g id="המשך_שאלות">
</g>
<g id="המשך_רגשות">
</g>
<g id="מסך_שאלות">
	<g id="שאלות">
	</g>
</g>
<g id="מסך_רגשות">
	<g>
		<g>
			<g>
				<path d="M42.2,131.4c-0.9,3.1-1.8,6.2-3.4,9c-2,3.4-8.4,8-8.7,0.7c0-0.5-0.5-2.7-1.4-1.6c-1.1,1.4-3.1,4.6-5.2,4.1
					c-3.9-0.8-1.5-2.6-3.1-3.9c-1.2-1-2.6-1.4-3.7-2.5c-2.8-2.8-4.9-7.7-6.7-11.3C3.3,112,0.9,96.7,2.5,81.4
					c2.9-27.4,19-53.3,43.3-66.8c23.7-13.2,52-14.1,76.4-1.8c25,12.6,37.1,37.2,40.8,64.1c1,7.3,1.4,14.6,1.5,22
					c0.1,7-1.7,13.7-3.3,20.4c-1.5,6.4-3,12.9-5.3,19.1c-0.8,2.2-4.2,9.5-6.7,4.5c-1-2-0.4-4.8-1.1-7c-0.2-0.6-0.7-1.2-1.2-0.7
					c-3.1,3.1-7.7,6.2-11.3,8.6c-4,2.7-10.1,5.1-10.7-2.5c-0.1-1.5,0-3,0-4.5c0,0.3,0.3-5,1.2-2.6c0.8,2.2,2-0.6,1.6-1.8
					c-1.1-3.1-4-2.5-4.6,0.5c-0.8,3.9-0.7,11,1.4,14.6c3.2,5.5,9.5,1.4,13.1-1.3c3.2-2.4,7.4-5.1,10.2-7.9c-0.4-0.2-0.8-0.4-1.2-0.7
					c1.1,3.1-0.2,9.7,4.4,10.7c3.9,0.8,5.6-5.4,6.6-8.1c2.7-7.4,4.4-15.1,6.2-22.7c1.3-5.5,2.8-11.1,2.7-16.8
					c-0.1-29-5.6-61.7-28.9-81.5C113.5-1.4,78.1-5.2,50,8.6C22.1,22.3,3.6,50.5,0.7,81.3C-1,98.5,2,115.6,10.1,130.9
					c1.7,3.2,3.7,7.4,6.3,10c0.8,0.8,2,1.1,2.8,1.9c0.6,0.7,0.3,0.9,0.8,1.7c2.9,5.1,7,1.8,9.8-1.8c-0.5-0.5-0.9-1-1.4-1.6
					c0.1,3.7,1.4,9.2,6.5,7.5c5.5-1.9,7.6-10.6,9-15.3C44.2,132,42.9,129.2,42.2,131.4L42.2,131.4z"/>
			</g>
		</g>
		<g>
			<path class="st12" d="M86.6,70.1c5.4,5.6,14.3,9.8,26.5,5.9c10.2-3.3,18.8-11.5,25.9-17.8l0.8-1c0.6-0.4,1-0.8,1.5-1
				c0.7-0.6,1.4-0.8,2.1-0.8c0.8,0,1.6,0.3,2.3,1c1.5,1.1,2.4,3.4,2.5,6.9c0,1-0.1,2.2-0.2,3.8v2.7c0,9.9-1.7,29.8-5.2,38.3
				c-3.5,8.5-8.9,15.7-16.2,21.6c-7.3,5.9-16,9.5-26,10.8c-22.8,2.8-41.6,0.1-56.4-8.1l-2.5-1.5c-8.6-5.4-15.2-12.8-19.8-22.1
				c-4.2-8.5-6.7-15.9-7.5-22.4c-0.1-1.4-0.2-17.2-0.2-19.4c3.5,1.7,10.8,4.5,15.7,5.3c9.6,1.7,20.3,5.2,32,3.8
				c7.1-0.8,21.1-5,27.4-6.8L86.6,70.1z"/>
			<g>
				<path d="M86.5,70.5c8.4,8.2,19.9,9.2,30.4,4.5c6.2-2.8,11.5-7,16.6-11.4c2.1-1.8,4-3.7,6-5.5c0.8-0.8,1.7-1.7,2.8-1.9
					c4.3-1,5.6,4.7,5.6,8.1c-0.2,10.9-0.7,21.8-2.6,32.5c-2.5,14.7-10.6,27.5-23.3,35.6c-12.9,8.2-29.2,9.3-44.1,8.5
					c-12.5-0.7-24.9-3.7-35.7-10.2c-13.2-8-21.3-21.3-25.8-35.7c-1.5-4.8-2.1-9.4-2.1-14.4c0-2.3,0-4.7-0.1-7c0-1.2-0.7-5,0-5.9
					c0.3-0.4,6.4,2.4,7.7,2.8c3,1.1,6.1,1.8,9.2,2.4c8,1.6,15.9,3.7,24.1,3.8c7.2,0.1,14.2-1.7,21.1-3.5c2.9-0.8,5.8-1.6,8.6-2.4
					c0.3-0.1,4.6-1.1,3.7-2c-0.1-0.1-2,0.7-2.3,0.8c-0.3,0.1-0.2,1,0.1,0.9c0.8-0.3,1.7-0.6,2.5-0.9c0.3-0.1,0.2-1-0.1-0.9
					c-11.4,3.3-23.4,7.6-35.4,7c-7-0.3-13.9-2.1-20.8-3.5c-6.5-1.3-12.6-3.1-18.7-5.9c-0.2-0.1-0.3,0.3-0.3,0.4
					c0,6.4-0.4,13,0.2,19.4c0.9,10.3,6.1,21.6,11.9,30c12.8,18.5,35.4,25.4,57,25.6c12.7,0.1,26.1-1,37.3-7.4
					c10.1-5.8,18.4-15.3,22.7-26.1c3.4-8.7,4.2-18.7,4.8-27.9c0.3-3.7,0.4-7.4,0.4-11c0-3.5,0.8-7.5-0.6-10.8
					c-1.6-3.8-4.7-4.5-7.8-1.8c-4.7,3.9-8.9,8.4-13.9,12c-12,8.6-27.6,12.3-39.1,1C86.4,69.4,86.3,70.3,86.5,70.5z"/>
			</g>
		</g>
		<path class="st15" d="M157.1,53.9c-3.2-10-11.8-21.7-21-29.9c-7.8-6.9-16.2-11.6-20.9-13.7c-10.2-4.5-36.8-6.8-60-0.6
			c-13,3.5-30.8,20.4-41,37.2C6,60.3,4,73.7,2.5,80.5c-3.4,15.3,5.8,45.3,16.4,54.9c3.3,2.9,12.1,7.1,16.4,6.2
			c2.5-0.5,6.1-7,6.2-9.6c-11.5-2.4-20.7-21.1-26-31.2c-4.2-8-2.3-36.2-2.3-36.2s3.5,1.9,5.1,2.3c8,1.8,26.6,7.3,34.8,7.1
			c6-0.1,28.9-2.3,26.6-4.5c-1.5-1.5-6.4-9.2-5.1-17.6c0.8-5.4,4.8-11.6,6.2-13.6c2.4-3.4,6.7-6.5,12.3-6.5
			c-7.1,2.4-14.3,9-14.3,18.5c0,7,2,9.5,5.2,13.1c2,2.2,7.2,5.3,7.2,5.3s14.5,8.1,25.8,2.5c11.3-5.7,19.9-20.2,27.8-17
			c4.5,1.8,5,8.4,5.3,15.3c0.2,5.1-0.5,10.4-0.5,13.9c-0.1,9.1-2.7,18-4.8,25.2c-1.8,6.1-4.9,11.2-6.5,12.7
			c-9.7,9.1-14,19.4-11.3,22.1c3.5,3.6,20.3-9,21.5-11.3c0.3-0.6,0.9,15.9,4.5,9.6c1.6-2.7,8.8-27.4,9.4-31.5
			C164.9,94.5,160.9,65.5,157.1,53.9z"/>
		<g>
			<path class="st92" d="M105.8,123c0.3-0.1,0.7-0.2,1-0.3c0.1,0,0.1-0.1,0.2-0.1c0.1,0,0.2-0.1,0.1-0.1l-0.1,0l-0.2,0.1l-0.6,0.4
				l-1.3,0.9c-0.9,0.6-1.7,1.1-2.6,1.7c-1.8,1.1-3.6,2.1-5.6,3c-1.9,0.9-3.9,1.7-6,2.3c-2.1,0.6-4.3,1-6.5,0.9
				c-4.3,0-8.4-1.2-12.2-2.9c-3.7-1.7-7-4.2-9.8-7c3.2,2.3,6.8,4.1,10.5,5.1c3.7,1,7.6,1.3,11.2,0.7c1.7-0.3,3.4-0.9,5.1-1.7
				c1.6-0.8,3.2-1.7,4.7-2.8c1.5-1.1,3-2.2,4.4-3.5c0.7-0.6,1.4-1.3,2.1-1.9l1.1-1l0.6-0.5l0.4-0.3l0.1-0.1c0,0,0.1-0.1,0.2-0.1
				l0.3-0.2c0.4-0.2,0.8-0.4,1.3-0.5L105.8,123z"/>
		</g>
		<g>
			<g>
				<g>
					<path d="M93.9,97.2c8.7-0.1,17.2-1.7,24.4-6.8c1.1-0.7,0.6-4.4-0.5-3.7c-7.1,5-15.4,6.5-23.9,6.6
						C92.6,93.4,92.6,97.2,93.9,97.2L93.9,97.2z"/>
				</g>
			</g>
		</g>
		<g>
			<g>
				<g>
					<path d="M73.2,93.4c-8.5-0.1-16.9-1.6-23.9-6.6c-1-0.7-1.6,2.9-0.5,3.7c7.2,5.1,15.7,6.7,24.4,6.8
						C74.5,97.2,74.5,93.4,73.2,93.4L73.2,93.4z"/>
				</g>
			</g>
		</g>
		<g>
			<path class="st155" d="M105.8,123c0.3-0.1,0.7-0.2,1-0.3c0.1,0,0.1-0.1,0.2-0.1c0.1,0,0.2-0.1,0.1-0.1l-0.1,0l-0.2,0.1l-0.6,0.4
				l-1.3,0.9c-0.9,0.6-1.7,1.1-2.6,1.7c-1.8,1.1-3.6,2.1-5.6,3c-1.9,0.9-3.9,1.7-6,2.3c-2.1,0.6-4.3,1-6.5,0.9
				c-4.3,0-8.4-1.2-12.2-2.9c-3.7-1.7-7-4.2-9.8-7c3.2,2.3,6.8,4.1,10.5,5.1c3.7,1,7.6,1.3,11.2,0.7c1.7-0.3,3.4-0.9,5.1-1.7
				c1.6-0.8,3.2-1.7,4.7-2.8c1.5-1.1,3-2.2,4.4-3.5c0.7-0.6,1.4-1.3,2.1-1.9l1.1-1l0.6-0.5l0.4-0.3l0.1-0.1c0,0,0.1-0.1,0.2-0.1
				l0.3-0.2c0.4-0.2,0.8-0.4,1.3-0.5L105.8,123z"/>
		</g>
	</g>
</g>
<g id="מסך_רצונות">
</g>
<g id="מסך_פתיחה">
</g>
<g id="מקלדת_נפתחת">
</g>
</svg>
