<?xml version="1.0" encoding="utf-8"?>
<!-- Generator: Adobe Illustrator 22.0.1, SVG Export Plug-In . SVG Version: 6.00 Build 0)  -->
<svg version="1.1" xmlns="http://www.w3.org/2000/svg" xmlns:xlink="http://www.w3.org/1999/xlink" x="0px" y="0px"
	 viewBox="0 0 166.6 150.6" style="enable-background:new 0 0 166.6 150.6;" xml:space="preserve">
<style type="text/css">
	.st0{display:none;}
	.st1{display:inline;opacity:0.38;}
	.st2{opacity:0.3;fill-rule:evenodd;clip-rule:evenodd;fill:#CCCCCC;}
	.st3{opacity:0.3;}
	.st4{fill-rule:evenodd;clip-rule:evenodd;fill:#EC2224;}
	.st5{fill:#5DCAE6;}
	.st6{fill:#6FC5A2;}
	.st7{fill:#EFDE65;}
	.st8{fill:#F27557;}
	.st9{display:inline;opacity:0.28;fill:#462267;}
	.st10{display:inline;opacity:0.28;fill:#652369;}
	.st11{display:inline;opacity:0.28;fill:#E8E613;}
	.st12{fill:#FFFFFF;}
	.st13{fill:#69B0B3;}
	.st14{fill:#FFF100;stroke:#231F20;stroke-width:1.2022;stroke-miterlimit:10;}
	.st15{fill:#F4DD56;}
	.st16{fill:none;stroke:#423E3F;stroke-miterlimit:10;}
	.st17{fill:#423E3F;}
	.st18{fill:#FFC6CF;}
	.st19{enable-background:new    ;}
	.st20{clip-path:url(#SVGID_2_);enable-background:new    ;}
	.st21{fill:#939393;}
	.st22{fill:#979797;}
	.st23{fill:#9B9B9B;}
	.st24{fill:#9F9F9F;}
	.st25{fill:#A3A3A3;}
	.st26{fill:#8F8F8F;}
	.st27{fill:#8B8B8B;}
	.st28{fill:#878787;}
	.st29{fill:#838383;}
	.st30{fill:#7E7E7E;}
	.st31{fill:#7A7A7A;}
	.st32{fill:#767676;}
	.st33{clip-path:url(#SVGID_4_);enable-background:new    ;}
	.st34{clip-path:url(#SVGID_6_);enable-background:new    ;}
	.st35{clip-path:url(#SVGID_8_);enable-background:new    ;}
	.st36{fill:#6A6A6A;}
	.st37{clip-path:url(#SVGID_10_);enable-background:new    ;}
	.st38{clip-path:url(#SVGID_12_);enable-background:new    ;}
	.st39{clip-path:url(#SVGID_14_);enable-background:new    ;}
	.st40{fill:#6E6E6E;}
	.st41{fill:#727272;}
	.st42{clip-path:url(#SVGID_16_);enable-background:new    ;}
	.st43{clip-path:url(#SVGID_18_);enable-background:new    ;}
	.st44{clip-path:url(#SVGID_20_);enable-background:new    ;}
	.st45{clip-path:url(#SVGID_22_);enable-background:new    ;}
	.st46{clip-path:url(#SVGID_24_);enable-background:new    ;}
	.st47{clip-path:url(#SVGID_26_);enable-background:new    ;}
	.st48{clip-path:url(#SVGID_28_);enable-background:new    ;}
	.st49{clip-path:url(#SVGID_30_);enable-background:new    ;}
	.st50{fill:#A0A0A0;}
	.st51{clip-path:url(#SVGID_32_);enable-background:new    ;}
	.st52{fill:#9A9A9A;}
	.st53{clip-path:url(#SVGID_34_);enable-background:new    ;}
	.st54{clip-path:url(#SVGID_36_);enable-background:new    ;}
	.st55{fill:#787878;}
	.st56{clip-path:url(#SVGID_38_);enable-background:new    ;}
	.st57{clip-path:url(#SVGID_40_);enable-background:new    ;}
	.st58{clip-path:url(#SVGID_42_);enable-background:new    ;}
	.st59{clip-path:url(#SVGID_44_);enable-background:new    ;}
	.st60{clip-path:url(#SVGID_46_);enable-background:new    ;}
	.st61{clip-path:url(#SVGID_48_);enable-background:new    ;}
	.st62{clip-path:url(#SVGID_50_);enable-background:new    ;}
	.st63{clip-path:url(#SVGID_52_);enable-background:new    ;}
	.st64{clip-path:url(#SVGID_54_);enable-background:new    ;}
	.st65{clip-path:url(#SVGID_56_);enable-background:new    ;}
	.st66{clip-path:url(#SVGID_58_);enable-background:new    ;}
	.st67{clip-path:url(#SVGID_60_);enable-background:new    ;}
	.st68{clip-path:url(#SVGID_62_);enable-background:new    ;}
	.st69{clip-path:url(#SVGID_64_);enable-background:new    ;}
	.st70{clip-path:url(#SVGID_66_);enable-background:new    ;}
	.st71{clip-path:url(#SVGID_68_);enable-background:new    ;}
	.st72{clip-path:url(#SVGID_70_);enable-background:new    ;}
	.st73{clip-path:url(#SVGID_72_);enable-background:new    ;}
	.st74{clip-path:url(#SVGID_74_);enable-background:new    ;}
	.st75{clip-path:url(#SVGID_76_);enable-background:new    ;}
	.st76{clip-path:url(#SVGID_78_);enable-background:new    ;}
	.st77{clip-path:url(#SVGID_80_);enable-background:new    ;}
	.st78{clip-path:url(#SVGID_82_);enable-background:new    ;}
	.st79{clip-path:url(#SVGID_84_);enable-background:new    ;}
	.st80{clip-path:url(#SVGID_86_);enable-background:new    ;}
	.st81{clip-path:url(#SVGID_88_);enable-background:new    ;}
	.st82{clip-path:url(#SVGID_90_);enable-background:new    ;}
	.st83{clip-path:url(#SVGID_92_);enable-background:new    ;}
	.st84{clip-path:url(#SVGID_94_);enable-background:new    ;}
	.st85{clip-path:url(#SVGID_96_);enable-background:new    ;}
	.st86{clip-path:url(#SVGID_98_);enable-background:new    ;}
	.st87{clip-path:url(#SVGID_100_);enable-background:new    ;}
	.st88{clip-path:url(#SVGID_102_);enable-background:new    ;}
	.st89{clip-path:url(#SVGID_104_);enable-background:new    ;}
	.st90{clip-path:url(#SVGID_106_);enable-background:new    ;}
	.st91{fill:#009245;}
	.st92{fill:#F17557;}
	.st93{fill:#DB1919;}
	.st94{fill:#594A42;}
	.st95{fill:#EDAA00;}
	.st96{fill:#443630;}
	.st97{fill:#A7A9AC;}
	.st98{fill:#BCBEC0;}
	.st99{fill:#726658;}
	.st100{fill:#FFD35A;}
	.st101{fill:none;stroke:#F27557;stroke-miterlimit:10;}
	.st102{fill:none;stroke:#C0D9DB;stroke-miterlimit:10;}
	.st103{clip-path:url(#SVGID_108_);enable-background:new    ;}
	.st104{clip-path:url(#SVGID_110_);enable-background:new    ;}
	.st105{clip-path:url(#SVGID_112_);enable-background:new    ;}
	.st106{clip-path:url(#SVGID_114_);enable-background:new    ;}
	.st107{clip-path:url(#SVGID_116_);enable-background:new    ;}
	.st108{clip-path:url(#SVGID_118_);enable-background:new    ;}
	.st109{clip-path:url(#SVGID_120_);enable-background:new    ;}
	.st110{clip-path:url(#SVGID_122_);enable-background:new    ;}
	.st111{clip-path:url(#SVGID_124_);enable-background:new    ;}
	.st112{clip-path:url(#SVGID_126_);enable-background:new    ;}
	.st113{clip-path:url(#SVGID_128_);enable-background:new    ;}
	.st114{clip-path:url(#SVGID_130_);enable-background:new    ;}
	.st115{clip-path:url(#SVGID_132_);enable-background:new    ;}
	.st116{clip-path:url(#SVGID_134_);enable-background:new    ;}
	.st117{clip-path:url(#SVGID_136_);enable-background:new    ;}
	.st118{clip-path:url(#SVGID_138_);enable-background:new    ;}
	.st119{clip-path:url(#SVGID_140_);enable-background:new    ;}
	.st120{clip-path:url(#SVGID_142_);enable-background:new    ;}
	.st121{clip-path:url(#SVGID_144_);enable-background:new    ;}
	.st122{clip-path:url(#SVGID_146_);enable-background:new    ;}
	.st123{clip-path:url(#SVGID_148_);enable-background:new    ;}
	.st124{clip-path:url(#SVGID_150_);enable-background:new    ;}
	.st125{clip-path:url(#SVGID_152_);enable-background:new    ;}
	.st126{clip-path:url(#SVGID_154_);enable-background:new    ;}
	.st127{clip-path:url(#SVGID_156_);enable-background:new    ;}
	.st128{clip-path:url(#SVGID_158_);enable-background:new    ;}
	.st129{clip-path:url(#SVGID_160_);enable-background:new    ;}
	.st130{clip-path:url(#SVGID_162_);enable-background:new    ;}
	.st131{clip-path:url(#SVGID_164_);enable-background:new    ;}
	.st132{clip-path:url(#SVGID_166_);enable-background:new    ;}
	.st133{clip-path:url(#SVGID_168_);enable-background:new    ;}
	.st134{clip-path:url(#SVGID_170_);enable-background:new    ;}
	.st135{clip-path:url(#SVGID_172_);enable-background:new    ;}
	.st136{clip-path:url(#SVGID_174_);enable-background:new    ;}
	.st137{clip-path:url(#SVGID_176_);enable-background:new    ;}
	.st138{clip-path:url(#SVGID_178_);enable-background:new    ;}
	.st139{clip-path:url(#SVGID_180_);enable-background:new    ;}
	.st140{clip-path:url(#SVGID_182_);enable-background:new    ;}
	.st141{clip-path:url(#SVGID_184_);enable-background:new    ;}
	.st142{clip-path:url(#SVGID_186_);enable-background:new    ;}
	.st143{clip-path:url(#SVGID_188_);enable-background:new    ;}
	.st144{clip-path:url(#SVGID_190_);enable-background:new    ;}
	.st145{clip-path:url(#SVGID_192_);enable-background:new    ;}
	.st146{clip-path:url(#SVGID_194_);enable-background:new    ;}
	.st147{clip-path:url(#SVGID_196_);enable-background:new    ;}
	.st148{clip-path:url(#SVGID_198_);enable-background:new    ;}
	.st149{clip-path:url(#SVGID_200_);enable-background:new    ;}
	.st150{clip-path:url(#SVGID_202_);enable-background:new    ;}
	.st151{clip-path:url(#SVGID_204_);enable-background:new    ;}
	.st152{clip-path:url(#SVGID_206_);enable-background:new    ;}
	.st153{fill:none;stroke:#BCE6F4;stroke-width:5;stroke-miterlimit:10;}
	.st154{fill:none;stroke:#231F20;stroke-miterlimit:10;}
	.st155{fill:#FB485D;}
	.st156{fill:#94D2E0;}
	.st157{clip-path:url(#SVGID_208_);fill:#222221;}
	.st158{fill:#222221;}
	.st159{fill:#231F20;}
	.st160{fill:#A6E2C8;}
	.st161{fill:#FFF100;}
	.st162{fill:none;stroke:#1AB17F;stroke-miterlimit:10;}
	.st163{fill:#8DCCDB;}
	.st164{fill:#FEDCD6;}
	.st165{fill:#DB4B5F;}
	.st166{fill:#FDA898;}
	.st167{fill:#AED4D5;}
	.st168{fill:#E8EFEF;}
	.st169{fill:none;stroke:#4C6363;stroke-width:0.405;stroke-miterlimit:10;}
	.st170{clip-path:url(#SVGID_210_);fill:#222221;}
	.st171{clip-path:url(#SVGID_212_);fill:#222221;}
	.st172{clip-path:url(#SVGID_214_);fill:#222221;}
	.st173{clip-path:url(#SVGID_216_);fill:#222221;}
	.st174{clip-path:url(#SVGID_218_);fill:#222221;}
	.st175{clip-path:url(#SVGID_220_);fill:#222221;}
	.st176{fill:#4C6363;}
	.st177{fill:#EEDE65;}
</style>
<g id="קווי_עזר" class="st0">
</g>
<g id="bootstrap_grid" class="st0">
</g>
<g id="Layer_1">
</g>
<g id="המשך_שאלות">
</g>
<g id="המשך_רגשות">
</g>
<g id="מסך_שאלות">
	<g id="שאלות">
	</g>
</g>
<g id="מסך_רגשות">
</g>
<g id="מסך_רצונות">
	<g>
		<g>
			<g>
				<path class="st17" d="M4.7,102.3c11.1,2.8,22.3,5.6,33.4,8.4c9.1,2.3,19.2,6.5,28.8,5.5c8.4-0.9,16.8-3.3,25.1-4.9
					c15.1-2.9,30.1-5.9,45.2-8.8c9.1-1.8,19-2.7,27.7-6.1c0.2-0.1,0.2-0.4,0.2-0.6c0-19.5,0-39,0-58.5c0-0.2-0.1-0.6-0.3-0.6
					c-22.5-1.4-45-2.8-67.5-4.3c-0.3,0-0.3,0.5-0.3,0.6c0,3.8-0.1,7.6-0.1,11.4c0,2.7-0.1,5.4-0.1,8.1c0,1.7,0.4,4.1-0.1,5.7
					c-0.3,1.1,0.8-0.3-0.2,0c-0.7,0.2-1.7,0.2-2.4,0.3c-3.3,0.4-6.5,0.7-9.8,1.1c-21.5,2.4-43,4.8-64.5,7.2c-6,0.7-12,1.3-18,2
					c-0.3,0-0.3,0.4-0.3,0.6c0,10.5,0,20.9,0,31.4c0,0.1,0,0.6,0.2,0.6C2.7,101.7,3.7,102,4.7,102.3c0.4,0.1,0.5-1.1,0.1-1.3
					c-0.2-0.1-3.3-1-2.7-0.2c-0.1-0.2,0.1-0.7,0-0.9c-0.6-1.7,0-4.6,0-6.3c0-5.9,0-11.8,0-17.6c0-1.8-0.2-3.7,0-5.5
					c0.1-1.5-0.7-0.1,0.2-0.4c2.2-0.6,4.9-0.5,7.1-0.8c22.4-2.5,44.8-5,67.2-7.5c6.8-0.8,13.6-1.5,20.4-2.3c0.3,0,0.3-0.4,0.3-0.6
					c0.1-5.6,0.1-11.2,0.2-16.8c0-2.6-0.2-5.4,0.1-8c0.1-1.3,0-0.4-0.2-0.3c0.3-0.1,1,0,1.3,0.1c4.5,1,9.8,0.6,14.4,0.9
					c7.3,0.5,14.6,0.9,22,1.4c6.8,0.4,13.6,0.9,20.3,1.3c2.4,0.1,7.3-0.6,9.4,0.6c0.1,0.1-0.6-1.1-0.3-0.1c0.2,0.5,0,1.4,0,2
					c0,2.5,0,4.9,0,7.4c0,7.1,0,14.2,0,21.3c0,6.8,0,13.5,0,20.3c0,1.8,0.3,3.9,0,5.6c0,0.3,0.2,1,0,1.2c0.4-0.7-2.4,0.6-3,0.8
					c-7.3,2.1-15.2,3-22.6,4.4c-14.4,2.8-28.9,5.6-43.3,8.4c-9.3,1.8-18.6,4.3-28,5.4c-9,1.1-18.1-2.5-26.7-4.7
					c-12.1-3-24.1-6-36.2-9.1C4.3,100.9,4.2,102.2,4.7,102.3z"/>
			</g>
		</g>
		<g>
			<g>
				<path class="st17" d="M1.8,91.3c11,2.2,22,4.4,33.1,6.6c6.7,1.3,13.5,2.7,20.2,4c3.8,0.7,7,1.4,10.9,1.2
					c7.6-0.5,15.3-2.4,22.7-3.7c15.4-2.6,30.8-5.1,46.2-7.7c10-1.7,19.9-3.3,29.9-5c0.5-0.1,0.4-1.3,0-1.3
					c-23.6,3.9-47.3,7.9-70.9,11.8c-8.9,1.5-18,3.7-27,4.5c-8.7,0.8-17.9-2.4-26.3-4C27.7,95.1,14.7,92.6,1.8,90
					C1.4,89.9,1.3,91.2,1.8,91.3L1.8,91.3z"/>
			</g>
		</g>
		<g>
			<g>
				<path class="st17" d="M1.8,70.1c11,1.8,22,3.5,33,5.3c10,1.6,20.5,4.4,30.7,4.3c7.7-0.1,15.6-1.5,23.3-2.4
					c15.2-1.7,30.4-3.4,45.6-5c10.1-1.1,20.3-2.2,30.4-3.4c0.5-0.1,0.4-1.3,0-1.3c-23.6,2.6-47.2,5.2-70.8,7.8
					c-8.9,1-17.8,2.4-26.7,2.9c-8.9,0.6-18.1-2-26.8-3.4c-12.9-2.1-25.8-4.1-38.8-6.2C1.4,68.8,1.3,70,1.8,70.1L1.8,70.1z"/>
			</g>
		</g>
		<g>
			<g>
				<path class="st17" d="M97,59.5c21.6,3.1,43.2,6.3,64.7,9.4c0.4,0.1,0.5-1.2,0-1.3c-21.6-3.1-43.2-6.3-64.7-9.4
					C96.6,58.1,96.5,59.4,97,59.5L97,59.5z"/>
			</g>
		</g>
		<g>
			<g>
				<path class="st17" d="M64,77.1c0,13.5,0,27,0,40.5c0,0.8,0.6,0.8,0.6,0c0-13.5,0-27,0-40.5C64.6,76.4,64,76.4,64,77.1L64,77.1z"
					/>
			</g>
		</g>
		<g>
			<polygon class="st163" points="97.2,60.1 148.5,68.1 65.4,77.5 12.6,69.5 			"/>
		</g>
		<polygon class="st164" points="2.5,91.9 61.1,103.5 63.2,103.5 63.2,114.4 61.1,114.4 2.5,99.9 		"/>
		<polygon class="st165" points="65.4,103.5 66.8,103.5 163.7,87.6 163.7,95.6 68.3,114.4 65.4,114.4 		"/>
	</g>
</g>
<g id="מסך_פתיחה">
</g>
<g id="מקלדת_נפתחת">
</g>
</svg>
