<?xml version="1.0" encoding="utf-8"?>
<!-- Generator: Adobe Illustrator 22.0.1, SVG Export Plug-In . SVG Version: 6.00 Build 0)  -->
<svg version="1.1" xmlns="http://www.w3.org/2000/svg" xmlns:xlink="http://www.w3.org/1999/xlink" x="0px" y="0px"
	 viewBox="0 0 166.6 150.6" style="enable-background:new 0 0 166.6 150.6;" xml:space="preserve">
<style type="text/css">
	.st0{display:none;}
	.st1{display:inline;opacity:0.38;}
	.st2{opacity:0.3;fill-rule:evenodd;clip-rule:evenodd;fill:#CCCCCC;}
	.st3{opacity:0.3;}
	.st4{fill-rule:evenodd;clip-rule:evenodd;fill:#EC2224;}
	.st5{fill:#5DCAE6;}
	.st6{fill:#6FC5A2;}
	.st7{fill:#EFDE65;}
	.st8{fill:#F27557;}
	.st9{display:inline;opacity:0.28;fill:#462267;}
	.st10{display:inline;opacity:0.28;fill:#652369;}
	.st11{display:inline;opacity:0.28;fill:#E8E613;}
	.st12{fill:#FFFFFF;}
	.st13{fill:#69B0B3;}
	.st14{fill:#FFF100;stroke:#231F20;stroke-width:1.2022;stroke-miterlimit:10;}
	.st15{fill:#F4DD56;}
	.st16{fill:none;stroke:#423E3F;stroke-miterlimit:10;}
	.st17{fill:#423E3F;}
	.st18{fill:#FFC6CF;}
	.st19{enable-background:new    ;}
	.st20{clip-path:url(#SVGID_2_);enable-background:new    ;}
	.st21{fill:#939393;}
	.st22{fill:#979797;}
	.st23{fill:#9B9B9B;}
	.st24{fill:#9F9F9F;}
	.st25{fill:#A3A3A3;}
	.st26{fill:#8F8F8F;}
	.st27{fill:#8B8B8B;}
	.st28{fill:#878787;}
	.st29{fill:#838383;}
	.st30{fill:#7E7E7E;}
	.st31{fill:#7A7A7A;}
	.st32{fill:#767676;}
	.st33{clip-path:url(#SVGID_4_);enable-background:new    ;}
	.st34{clip-path:url(#SVGID_6_);enable-background:new    ;}
	.st35{clip-path:url(#SVGID_8_);enable-background:new    ;}
	.st36{fill:#6A6A6A;}
	.st37{clip-path:url(#SVGID_10_);enable-background:new    ;}
	.st38{clip-path:url(#SVGID_12_);enable-background:new    ;}
	.st39{clip-path:url(#SVGID_14_);enable-background:new    ;}
	.st40{fill:#6E6E6E;}
	.st41{fill:#727272;}
	.st42{clip-path:url(#SVGID_16_);enable-background:new    ;}
	.st43{clip-path:url(#SVGID_18_);enable-background:new    ;}
	.st44{clip-path:url(#SVGID_20_);enable-background:new    ;}
	.st45{clip-path:url(#SVGID_22_);enable-background:new    ;}
	.st46{clip-path:url(#SVGID_24_);enable-background:new    ;}
	.st47{clip-path:url(#SVGID_26_);enable-background:new    ;}
	.st48{clip-path:url(#SVGID_28_);enable-background:new    ;}
	.st49{clip-path:url(#SVGID_30_);enable-background:new    ;}
	.st50{fill:#A0A0A0;}
	.st51{clip-path:url(#SVGID_32_);enable-background:new    ;}
	.st52{fill:#9A9A9A;}
	.st53{clip-path:url(#SVGID_34_);enable-background:new    ;}
	.st54{clip-path:url(#SVGID_36_);enable-background:new    ;}
	.st55{fill:#787878;}
	.st56{clip-path:url(#SVGID_38_);enable-background:new    ;}
	.st57{clip-path:url(#SVGID_40_);enable-background:new    ;}
	.st58{clip-path:url(#SVGID_42_);enable-background:new    ;}
	.st59{clip-path:url(#SVGID_44_);enable-background:new    ;}
	.st60{clip-path:url(#SVGID_46_);enable-background:new    ;}
	.st61{clip-path:url(#SVGID_48_);enable-background:new    ;}
	.st62{clip-path:url(#SVGID_50_);enable-background:new    ;}
	.st63{clip-path:url(#SVGID_52_);enable-background:new    ;}
	.st64{clip-path:url(#SVGID_54_);enable-background:new    ;}
	.st65{clip-path:url(#SVGID_56_);enable-background:new    ;}
	.st66{clip-path:url(#SVGID_58_);enable-background:new    ;}
	.st67{clip-path:url(#SVGID_60_);enable-background:new    ;}
	.st68{clip-path:url(#SVGID_62_);enable-background:new    ;}
	.st69{clip-path:url(#SVGID_64_);enable-background:new    ;}
	.st70{clip-path:url(#SVGID_66_);enable-background:new    ;}
	.st71{clip-path:url(#SVGID_68_);enable-background:new    ;}
	.st72{clip-path:url(#SVGID_70_);enable-background:new    ;}
	.st73{clip-path:url(#SVGID_72_);enable-background:new    ;}
	.st74{clip-path:url(#SVGID_74_);enable-background:new    ;}
	.st75{clip-path:url(#SVGID_76_);enable-background:new    ;}
	.st76{clip-path:url(#SVGID_78_);enable-background:new    ;}
	.st77{clip-path:url(#SVGID_80_);enable-background:new    ;}
	.st78{clip-path:url(#SVGID_82_);enable-background:new    ;}
	.st79{clip-path:url(#SVGID_84_);enable-background:new    ;}
	.st80{clip-path:url(#SVGID_86_);enable-background:new    ;}
	.st81{clip-path:url(#SVGID_88_);enable-background:new    ;}
	.st82{clip-path:url(#SVGID_90_);enable-background:new    ;}
	.st83{clip-path:url(#SVGID_92_);enable-background:new    ;}
	.st84{clip-path:url(#SVGID_94_);enable-background:new    ;}
	.st85{clip-path:url(#SVGID_96_);enable-background:new    ;}
	.st86{clip-path:url(#SVGID_98_);enable-background:new    ;}
	.st87{clip-path:url(#SVGID_100_);enable-background:new    ;}
	.st88{clip-path:url(#SVGID_102_);enable-background:new    ;}
	.st89{clip-path:url(#SVGID_104_);enable-background:new    ;}
	.st90{clip-path:url(#SVGID_106_);enable-background:new    ;}
	.st91{fill:#009245;}
	.st92{fill:#F17557;}
	.st93{fill:#DB1919;}
	.st94{fill:#594A42;}
	.st95{fill:#EDAA00;}
	.st96{fill:#443630;}
	.st97{fill:#A7A9AC;}
	.st98{fill:#BCBEC0;}
	.st99{fill:#726658;}
	.st100{fill:#FFD35A;}
	.st101{fill:none;stroke:#F27557;stroke-miterlimit:10;}
	.st102{fill:none;stroke:#C0D9DB;stroke-miterlimit:10;}
	.st103{clip-path:url(#SVGID_108_);enable-background:new    ;}
	.st104{clip-path:url(#SVGID_110_);enable-background:new    ;}
	.st105{clip-path:url(#SVGID_112_);enable-background:new    ;}
	.st106{clip-path:url(#SVGID_114_);enable-background:new    ;}
	.st107{clip-path:url(#SVGID_116_);enable-background:new    ;}
	.st108{clip-path:url(#SVGID_118_);enable-background:new    ;}
	.st109{clip-path:url(#SVGID_120_);enable-background:new    ;}
	.st110{clip-path:url(#SVGID_122_);enable-background:new    ;}
	.st111{clip-path:url(#SVGID_124_);enable-background:new    ;}
	.st112{clip-path:url(#SVGID_126_);enable-background:new    ;}
	.st113{clip-path:url(#SVGID_128_);enable-background:new    ;}
	.st114{clip-path:url(#SVGID_130_);enable-background:new    ;}
	.st115{clip-path:url(#SVGID_132_);enable-background:new    ;}
	.st116{clip-path:url(#SVGID_134_);enable-background:new    ;}
	.st117{clip-path:url(#SVGID_136_);enable-background:new    ;}
	.st118{clip-path:url(#SVGID_138_);enable-background:new    ;}
	.st119{clip-path:url(#SVGID_140_);enable-background:new    ;}
	.st120{clip-path:url(#SVGID_142_);enable-background:new    ;}
	.st121{clip-path:url(#SVGID_144_);enable-background:new    ;}
	.st122{clip-path:url(#SVGID_146_);enable-background:new    ;}
	.st123{clip-path:url(#SVGID_148_);enable-background:new    ;}
	.st124{clip-path:url(#SVGID_150_);enable-background:new    ;}
	.st125{clip-path:url(#SVGID_152_);enable-background:new    ;}
	.st126{clip-path:url(#SVGID_154_);enable-background:new    ;}
	.st127{clip-path:url(#SVGID_156_);enable-background:new    ;}
	.st128{clip-path:url(#SVGID_158_);enable-background:new    ;}
	.st129{clip-path:url(#SVGID_160_);enable-background:new    ;}
	.st130{clip-path:url(#SVGID_162_);enable-background:new    ;}
	.st131{clip-path:url(#SVGID_164_);enable-background:new    ;}
	.st132{clip-path:url(#SVGID_166_);enable-background:new    ;}
	.st133{clip-path:url(#SVGID_168_);enable-background:new    ;}
	.st134{clip-path:url(#SVGID_170_);enable-background:new    ;}
	.st135{clip-path:url(#SVGID_172_);enable-background:new    ;}
	.st136{clip-path:url(#SVGID_174_);enable-background:new    ;}
	.st137{clip-path:url(#SVGID_176_);enable-background:new    ;}
	.st138{clip-path:url(#SVGID_178_);enable-background:new    ;}
	.st139{clip-path:url(#SVGID_180_);enable-background:new    ;}
	.st140{clip-path:url(#SVGID_182_);enable-background:new    ;}
	.st141{clip-path:url(#SVGID_184_);enable-background:new    ;}
	.st142{clip-path:url(#SVGID_186_);enable-background:new    ;}
	.st143{clip-path:url(#SVGID_188_);enable-background:new    ;}
	.st144{clip-path:url(#SVGID_190_);enable-background:new    ;}
	.st145{clip-path:url(#SVGID_192_);enable-background:new    ;}
	.st146{clip-path:url(#SVGID_194_);enable-background:new    ;}
	.st147{clip-path:url(#SVGID_196_);enable-background:new    ;}
	.st148{clip-path:url(#SVGID_198_);enable-background:new    ;}
	.st149{clip-path:url(#SVGID_200_);enable-background:new    ;}
	.st150{clip-path:url(#SVGID_202_);enable-background:new    ;}
	.st151{clip-path:url(#SVGID_204_);enable-background:new    ;}
	.st152{clip-path:url(#SVGID_206_);enable-background:new    ;}
	.st153{fill:none;stroke:#BCE6F4;stroke-width:5;stroke-miterlimit:10;}
	.st154{fill:none;stroke:#231F20;stroke-miterlimit:10;}
	.st155{fill:#FB485D;}
	.st156{fill:#94D2E0;}
	.st157{clip-path:url(#SVGID_208_);fill:#222221;}
	.st158{fill:#222221;}
	.st159{fill:#231F20;}
	.st160{fill:#A6E2C8;}
	.st161{fill:#FFF100;}
	.st162{fill:none;stroke:#1AB17F;stroke-miterlimit:10;}
	.st163{fill:#8DCCDB;}
	.st164{fill:#FEDCD6;}
	.st165{fill:#DB4B5F;}
	.st166{fill:#FDA898;}
	.st167{fill:#AED4D5;}
	.st168{fill:#E8EFEF;}
	.st169{fill:none;stroke:#4C6363;stroke-width:0.405;stroke-miterlimit:10;}
	.st170{clip-path:url(#SVGID_210_);fill:#222221;}
	.st171{clip-path:url(#SVGID_212_);fill:#222221;}
	.st172{clip-path:url(#SVGID_214_);fill:#222221;}
	.st173{clip-path:url(#SVGID_216_);fill:#222221;}
	.st174{clip-path:url(#SVGID_218_);fill:#222221;}
	.st175{clip-path:url(#SVGID_220_);fill:#222221;}
	.st176{fill:#4C6363;}
	.st177{fill:#EEDE65;}
</style>
<g id="קווי_עזר" class="st0">
</g>
<g id="bootstrap_grid" class="st0">
</g>
<g id="Layer_1">
</g>
<g id="המשך_שאלות">
</g>
<g id="המשך_רגשות">
</g>
<g id="מסך_שאלות">
	<g id="שאלות">
	</g>
</g>
<g id="מסך_רגשות">
</g>
<g id="מסך_רצונות">
	<g>
		<g>
			<path class="st12" d="M87.7,60c0,0-27.9-0.9-42.6,1.3c-14.6,2.2-21.3,3.9-24,9.8c-1.4,3.1,0.5,10.4,1.8,13.3
				c3.1,7.1,14.2,21.3,30.6,25.7c6.7,10.6-6.2,31.9-6.2,31.9s1.8,7.1,28.8,6.2c27.1-0.9,35.5-13.7,35.5-13.7s-15-14.5-13.7-24.8
				c2.1-17.8,21.2-35.7,24.8-36.8c5.8-1.8,0-1.8,0-1.8l14.6-2.7l8.4-53.7l-1.8-9.3l-30.6-3.1H78.9C78.9,2.3,84.6,58.6,87.7,60z"/>
			<g>
				<path class="st17" d="M87.7,59c-17.6-0.5-35.5-0.6-52.8,3.1c-5.9,1.3-13.7,3.5-14.6,10.5c-0.9,7.3,3,14.9,7.4,20.5
					c2.6,3.4,5.7,6.4,9,9.1c2.2,1.8,4.6,3.4,7.1,4.8c2.7,1.5,7.9,2.4,10,4.6c3.4,3.8,0.6,12.8-0.8,16.9c-1.3,4-3.2,7.7-5.1,11.4
					c-3.7,7.3,11.3,8.7,15.5,9.1c12.3,1.1,25.8,0.4,37.2-5c4.1-1.9,8.8-4.7,11.4-8.6c0.3-0.4,0.4-1.3,0-1.7c-2.8-2.7-5.4-5.8-7.7-9
					c-2.2-3.1-4.4-6.6-5.4-10.4c-1.3-5,0.6-10.5,2.7-15.1c3.2-7,7.9-13.3,13.3-18.9c1.8-1.9,3.8-3.8,6-5.4c1.5-1,3.4-1.3,4.7-2.4
					c0.3-0.3,0.3-1,0.2-1.3c-0.3-1.2-2-1.1-3-1.1c0,0.6,0,1.3,0,1.9c4.9-0.9,9.8-1.8,14.6-2.7c0.3-0.1,0.4-0.4,0.5-0.7
					c1.8-11.7,3.7-23.4,5.5-35.1c0.9-5.7,2-11.4,2.7-17.2c0.5-3.8-0.8-7.6-1.5-11.3c0-0.3-0.1-0.7-0.5-0.7
					c-10.2-1-20.6-2.6-30.8-3.1c-11.4-0.5-22.9,0-34.4,0c-0.5,0-0.5,0.9-0.5,1.2c1,10.1,2.2,20.2,3.5,30.3c0.9,6.6,1.7,13.2,3,19.8
					c0.4,2.1,0.6,6.9,2.7,8.2c0.6,0.4,0.8-1.5,0.3-1.9c-2.1-1.3-2.4-8.9-2.7-11.1c-1.1-6.5-2-13-2.8-19.6c-1.1-8.8-2.1-17.5-3-26.3
					c-0.2,0.4-0.3,0.8-0.5,1.2c10.4,0,20.8,0,31.2,0c8.9,0,17.8,1.5,26.6,2.4c2.2,0.2,4.4,0.3,6.6,0.7c1,0.2,0.5-0.2,0.4-0.3
					c0.6,0.8,0.5,2.9,0.7,3.9c0.8,4.3,1,4.6,0.3,8.8c-1.9,12.4-3.9,24.8-5.8,37.2c-0.4,2.7-0.9,5.5-1.3,8.2c-0.2,1-0.1,3.2-0.6,4.1
					c0.8-1.1-0.4-0.3-1.3-0.3c-1.7,0.1-3.4,0.6-5.1,0.9c-2.6,0.5-5.2,0.9-7.8,1.4c-0.7,0.1-0.7,1.9,0,1.9c1.4,0,2.2-0.7,0.6-0.4
					c-1,0.2-1.9,0.8-2.7,1.4c-2.6,1.8-4.9,4.1-7,6.4c-6.1,6.4-11.4,14-14.4,22.4c-2.5,7.2-2.2,13.2,1.6,19.8
					c2.8,5,6.5,9.6,10.6,13.6c0-0.6,0-1.1,0-1.7c-7.6,11.3-25.9,13.5-38,13.7c-7.2,0.1-17.1,0.4-23.5-3.7c-0.9-0.6-1.4-1.3-2.1-2
					c-0.3-0.2-0.3,1.6,0,0.8c0.5-1,1.1-1.9,1.6-2.9c3.2-6.2,6.1-13.2,6.5-20.3c0.2-2.7,0-5.4-1-7.9c-1.5-3.7-7.5-4.3-10.9-6.2
					c-8.1-4.5-15.8-11.7-20-20.1c-2.2-4.4-4.4-11.3-1.1-15.5c2.6-3.3,7.5-4.5,11.4-5.4c17.4-3.9,35.7-3.8,53.5-3.2
					C88.4,61,88.4,59,87.7,59z"/>
			</g>
		</g>
		<g>
			<g>
				<path class="st17" d="M79.9,12.8c12.4,1.2,24.9,2.4,37.3,3.6c9.7,0.9,19-0.3,28.6-1.1c0.7-0.1,0.6-2,0-1.9
					c-9.7,0.8-19,2-28.6,1.1c-12.4-1.2-24.9-2.4-37.3-3.6C79.3,10.8,79.2,12.7,79.9,12.8L79.9,12.8z"/>
			</g>
		</g>
		<g>
			<path class="st12" d="M122.8,72.8c0,0-22.7,9.6-46.6,12c-23.1,2.3-47.3-2.5-53.2-9.3"/>
			<g>
				<path class="st17" d="M122.6,71.9c-14.1,5.9-29.4,10-44.6,11.7c-10.5,1.2-21.3,1-31.8-0.5c-7.5-1.1-17.5-2.7-23-8.4
					c-0.6-0.6-0.9,1.2-0.5,1.7c4.7,4.9,12.5,6.6,18.9,7.9c11.3,2.3,23.1,2.7,34.6,1.5c15.9-1.6,32-5.8,46.7-12
					C123.5,73.5,123.3,71.6,122.6,71.9L122.6,71.9z"/>
			</g>
		</g>
		<g>
			<g>
				<path class="st17" d="M87.6,60.9c11.7,3.7,23.4,7.4,35,11.1c0.7,0.2,0.9-1.7,0.3-1.9c-11.7-3.7-23.4-7.4-35-11.1
					C87.1,58.8,87,60.7,87.6,60.9L87.6,60.9z"/>
			</g>
		</g>
		<g>
			<g>
				<path class="st17" d="M38.6,73.6c4.5,3.2,10.5,3.8,15.8,4.1c6.7,0.4,13.6,0.5,20.3-0.1c2.4-0.2,22.5-1.8,20.4-7.3
					c-0.8-2.1-4.8-2.8-6.6-3.3c-5.2-1.4-10.6-2.3-15.9-2.8c-7.8-0.8-15.7,0.6-23.3,2.2c-1.7,0.4-15.5,2.8-10.8,7.1
					c0.6,0.6,0.9-1.3,0.5-1.7c-0.4-0.4-0.3,0.2,0.5-0.5c0.5-0.4,1.3-0.6,1.9-0.9c1.8-0.7,3.7-1.2,5.5-1.6c4.2-1,8.6-1.7,12.9-2.3
					c8.1-1.1,15.8-0.4,23.9,1.3c2.5,0.5,5.1,1.1,7.5,2c0.7,0.3,1.4,0.5,2.1,0.9c1.3,0.8,0.8,0.3,0.6,0.6c-0.8,1.3-6,2.2-7.2,2.5
					c-3.3,0.8-6.7,1.4-10.1,1.7c-6.5,0.7-13.3,0.6-19.9,0.3c-6-0.3-12.7-0.6-17.8-4.2C38.4,71.4,38.1,73.2,38.6,73.6z"/>
			</g>
		</g>
		<g>
			<g>
				<path class="st17" d="M78.9,3.3c12.3,1.5,24.6,3,36.9,4.5c9.6,1.2,19.1,0.9,28.8,0.9c0.7,0,0.7-1.9,0-1.9
					c-9.7,0-19.2,0.3-28.8-0.9c-12.3-1.5-24.6-3-36.9-4.5C78.2,1.3,78.2,3.2,78.9,3.3L78.9,3.3z"/>
			</g>
		</g>
		<g>
			<g>
				<path class="st17" d="M123.3,68.9c0.8-20.4,1.6-40.8,2.4-61.2c0-1.2-0.9-1.2-1,0c-0.8,20.4-1.6,40.8-2.4,61.2
					C122.2,70,123.2,70,123.3,68.9L123.3,68.9z"/>
			</g>
		</g>
		<g>
			<path class="st163" d="M42,72.5c5.3,4.1,17.8,3.9,26.4,3.8c11.3,0,23.2-3.5,23.1-5c-0.2-2.8-18.1-5.7-24.3-5.6
				C62.8,65.7,37.7,69.1,42,72.5z"/>
		</g>
		<polygon class="st15" points="125.7,17.6 144.1,16 136.1,67.4 124.9,69 		"/>
		<polygon class="st166" points="79.9,3.9 121.6,8.7 124.1,8.7 124.1,14.4 121.6,14.4 80.7,10.4 		"/>
	</g>
</g>
<g id="מסך_פתיחה">
</g>
<g id="מקלדת_נפתחת">
</g>
</svg>
