<?xml version="1.0" encoding="utf-8"?>
<!-- Generator: Adobe Illustrator 22.0.1, SVG Export Plug-In . SVG Version: 6.00 Build 0)  -->
<svg version="1.1" xmlns="http://www.w3.org/2000/svg" xmlns:xlink="http://www.w3.org/1999/xlink" x="0px" y="0px"
	 viewBox="0 0 166.6 150.6" style="enable-background:new 0 0 166.6 150.6;" xml:space="preserve">
<style type="text/css">
	.st0{display:none;}
	.st1{display:inline;opacity:0.38;}
	.st2{opacity:0.3;fill-rule:evenodd;clip-rule:evenodd;fill:#CCCCCC;}
	.st3{opacity:0.3;}
	.st4{fill-rule:evenodd;clip-rule:evenodd;fill:#EC2224;}
	.st5{fill:#5DCAE6;}
	.st6{fill:#6FC5A2;}
	.st7{fill:#EFDE65;}
	.st8{fill:#F27557;}
	.st9{display:inline;opacity:0.28;fill:#462267;}
	.st10{display:inline;opacity:0.28;fill:#652369;}
	.st11{display:inline;opacity:0.28;fill:#E8E613;}
	.st12{fill:#FFFFFF;}
	.st13{fill:#69B0B3;}
	.st14{fill:#FFF100;stroke:#231F20;stroke-width:1.2022;stroke-miterlimit:10;}
	.st15{fill:#F4DD56;}
	.st16{fill:none;stroke:#423E3F;stroke-miterlimit:10;}
	.st17{fill:#423E3F;}
	.st18{fill:#FFC6CF;}
	.st19{enable-background:new    ;}
	.st20{clip-path:url(#SVGID_2_);enable-background:new    ;}
	.st21{fill:#939393;}
	.st22{fill:#979797;}
	.st23{fill:#9B9B9B;}
	.st24{fill:#9F9F9F;}
	.st25{fill:#A3A3A3;}
	.st26{fill:#8F8F8F;}
	.st27{fill:#8B8B8B;}
	.st28{fill:#878787;}
	.st29{fill:#838383;}
	.st30{fill:#7E7E7E;}
	.st31{fill:#7A7A7A;}
	.st32{fill:#767676;}
	.st33{clip-path:url(#SVGID_4_);enable-background:new    ;}
	.st34{clip-path:url(#SVGID_6_);enable-background:new    ;}
	.st35{clip-path:url(#SVGID_8_);enable-background:new    ;}
	.st36{fill:#6A6A6A;}
	.st37{clip-path:url(#SVGID_10_);enable-background:new    ;}
	.st38{clip-path:url(#SVGID_12_);enable-background:new    ;}
	.st39{clip-path:url(#SVGID_14_);enable-background:new    ;}
	.st40{fill:#6E6E6E;}
	.st41{fill:#727272;}
	.st42{clip-path:url(#SVGID_16_);enable-background:new    ;}
	.st43{clip-path:url(#SVGID_18_);enable-background:new    ;}
	.st44{clip-path:url(#SVGID_20_);enable-background:new    ;}
	.st45{clip-path:url(#SVGID_22_);enable-background:new    ;}
	.st46{clip-path:url(#SVGID_24_);enable-background:new    ;}
	.st47{clip-path:url(#SVGID_26_);enable-background:new    ;}
	.st48{clip-path:url(#SVGID_28_);enable-background:new    ;}
	.st49{clip-path:url(#SVGID_30_);enable-background:new    ;}
	.st50{fill:#A0A0A0;}
	.st51{clip-path:url(#SVGID_32_);enable-background:new    ;}
	.st52{fill:#9A9A9A;}
	.st53{clip-path:url(#SVGID_34_);enable-background:new    ;}
	.st54{clip-path:url(#SVGID_36_);enable-background:new    ;}
	.st55{fill:#787878;}
	.st56{clip-path:url(#SVGID_38_);enable-background:new    ;}
	.st57{clip-path:url(#SVGID_40_);enable-background:new    ;}
	.st58{clip-path:url(#SVGID_42_);enable-background:new    ;}
	.st59{clip-path:url(#SVGID_44_);enable-background:new    ;}
	.st60{clip-path:url(#SVGID_46_);enable-background:new    ;}
	.st61{clip-path:url(#SVGID_48_);enable-background:new    ;}
	.st62{clip-path:url(#SVGID_50_);enable-background:new    ;}
	.st63{clip-path:url(#SVGID_52_);enable-background:new    ;}
	.st64{clip-path:url(#SVGID_54_);enable-background:new    ;}
	.st65{clip-path:url(#SVGID_56_);enable-background:new    ;}
	.st66{clip-path:url(#SVGID_58_);enable-background:new    ;}
	.st67{clip-path:url(#SVGID_60_);enable-background:new    ;}
	.st68{clip-path:url(#SVGID_62_);enable-background:new    ;}
	.st69{clip-path:url(#SVGID_64_);enable-background:new    ;}
	.st70{clip-path:url(#SVGID_66_);enable-background:new    ;}
	.st71{clip-path:url(#SVGID_68_);enable-background:new    ;}
	.st72{clip-path:url(#SVGID_70_);enable-background:new    ;}
	.st73{clip-path:url(#SVGID_72_);enable-background:new    ;}
	.st74{clip-path:url(#SVGID_74_);enable-background:new    ;}
	.st75{clip-path:url(#SVGID_76_);enable-background:new    ;}
	.st76{clip-path:url(#SVGID_78_);enable-background:new    ;}
	.st77{clip-path:url(#SVGID_80_);enable-background:new    ;}
	.st78{clip-path:url(#SVGID_82_);enable-background:new    ;}
	.st79{clip-path:url(#SVGID_84_);enable-background:new    ;}
	.st80{clip-path:url(#SVGID_86_);enable-background:new    ;}
	.st81{clip-path:url(#SVGID_88_);enable-background:new    ;}
	.st82{clip-path:url(#SVGID_90_);enable-background:new    ;}
	.st83{clip-path:url(#SVGID_92_);enable-background:new    ;}
	.st84{clip-path:url(#SVGID_94_);enable-background:new    ;}
	.st85{clip-path:url(#SVGID_96_);enable-background:new    ;}
	.st86{clip-path:url(#SVGID_98_);enable-background:new    ;}
	.st87{clip-path:url(#SVGID_100_);enable-background:new    ;}
	.st88{clip-path:url(#SVGID_102_);enable-background:new    ;}
	.st89{clip-path:url(#SVGID_104_);enable-background:new    ;}
	.st90{clip-path:url(#SVGID_106_);enable-background:new    ;}
	.st91{fill:#009245;}
	.st92{fill:#F17557;}
	.st93{fill:#DB1919;}
	.st94{fill:#594A42;}
	.st95{fill:#EDAA00;}
	.st96{fill:#443630;}
	.st97{fill:#A7A9AC;}
	.st98{fill:#BCBEC0;}
	.st99{fill:#726658;}
	.st100{fill:#FFD35A;}
	.st101{fill:none;stroke:#F27557;stroke-miterlimit:10;}
	.st102{fill:none;stroke:#C0D9DB;stroke-miterlimit:10;}
	.st103{clip-path:url(#SVGID_108_);enable-background:new    ;}
	.st104{clip-path:url(#SVGID_110_);enable-background:new    ;}
	.st105{clip-path:url(#SVGID_112_);enable-background:new    ;}
	.st106{clip-path:url(#SVGID_114_);enable-background:new    ;}
	.st107{clip-path:url(#SVGID_116_);enable-background:new    ;}
	.st108{clip-path:url(#SVGID_118_);enable-background:new    ;}
	.st109{clip-path:url(#SVGID_120_);enable-background:new    ;}
	.st110{clip-path:url(#SVGID_122_);enable-background:new    ;}
	.st111{clip-path:url(#SVGID_124_);enable-background:new    ;}
	.st112{clip-path:url(#SVGID_126_);enable-background:new    ;}
	.st113{clip-path:url(#SVGID_128_);enable-background:new    ;}
	.st114{clip-path:url(#SVGID_130_);enable-background:new    ;}
	.st115{clip-path:url(#SVGID_132_);enable-background:new    ;}
	.st116{clip-path:url(#SVGID_134_);enable-background:new    ;}
	.st117{clip-path:url(#SVGID_136_);enable-background:new    ;}
	.st118{clip-path:url(#SVGID_138_);enable-background:new    ;}
	.st119{clip-path:url(#SVGID_140_);enable-background:new    ;}
	.st120{clip-path:url(#SVGID_142_);enable-background:new    ;}
	.st121{clip-path:url(#SVGID_144_);enable-background:new    ;}
	.st122{clip-path:url(#SVGID_146_);enable-background:new    ;}
	.st123{clip-path:url(#SVGID_148_);enable-background:new    ;}
	.st124{clip-path:url(#SVGID_150_);enable-background:new    ;}
	.st125{clip-path:url(#SVGID_152_);enable-background:new    ;}
	.st126{clip-path:url(#SVGID_154_);enable-background:new    ;}
	.st127{clip-path:url(#SVGID_156_);enable-background:new    ;}
	.st128{clip-path:url(#SVGID_158_);enable-background:new    ;}
	.st129{clip-path:url(#SVGID_160_);enable-background:new    ;}
	.st130{clip-path:url(#SVGID_162_);enable-background:new    ;}
	.st131{clip-path:url(#SVGID_164_);enable-background:new    ;}
	.st132{clip-path:url(#SVGID_166_);enable-background:new    ;}
	.st133{clip-path:url(#SVGID_168_);enable-background:new    ;}
	.st134{clip-path:url(#SVGID_170_);enable-background:new    ;}
	.st135{clip-path:url(#SVGID_172_);enable-background:new    ;}
	.st136{clip-path:url(#SVGID_174_);enable-background:new    ;}
	.st137{clip-path:url(#SVGID_176_);enable-background:new    ;}
	.st138{clip-path:url(#SVGID_178_);enable-background:new    ;}
	.st139{clip-path:url(#SVGID_180_);enable-background:new    ;}
	.st140{clip-path:url(#SVGID_182_);enable-background:new    ;}
	.st141{clip-path:url(#SVGID_184_);enable-background:new    ;}
	.st142{clip-path:url(#SVGID_186_);enable-background:new    ;}
	.st143{clip-path:url(#SVGID_188_);enable-background:new    ;}
	.st144{clip-path:url(#SVGID_190_);enable-background:new    ;}
	.st145{clip-path:url(#SVGID_192_);enable-background:new    ;}
	.st146{clip-path:url(#SVGID_194_);enable-background:new    ;}
	.st147{clip-path:url(#SVGID_196_);enable-background:new    ;}
	.st148{clip-path:url(#SVGID_198_);enable-background:new    ;}
	.st149{clip-path:url(#SVGID_200_);enable-background:new    ;}
	.st150{clip-path:url(#SVGID_202_);enable-background:new    ;}
	.st151{clip-path:url(#SVGID_204_);enable-background:new    ;}
	.st152{clip-path:url(#SVGID_206_);enable-background:new    ;}
	.st153{fill:none;stroke:#BCE6F4;stroke-width:5;stroke-miterlimit:10;}
	.st154{fill:none;stroke:#231F20;stroke-miterlimit:10;}
	.st155{fill:#FB485D;}
	.st156{fill:#94D2E0;}
	.st157{clip-path:url(#SVGID_208_);fill:#222221;}
	.st158{fill:#222221;}
	.st159{fill:#231F20;}
	.st160{fill:#A6E2C8;}
	.st161{fill:#FFF100;}
	.st162{fill:none;stroke:#1AB17F;stroke-miterlimit:10;}
	.st163{fill:#8DCCDB;}
	.st164{fill:#FEDCD6;}
	.st165{fill:#DB4B5F;}
	.st166{fill:#FDA898;}
	.st167{fill:#AED4D5;}
	.st168{fill:#E8EFEF;}
	.st169{fill:none;stroke:#4C6363;stroke-width:0.405;stroke-miterlimit:10;}
	.st170{clip-path:url(#SVGID_210_);fill:#222221;}
	.st171{clip-path:url(#SVGID_212_);fill:#222221;}
	.st172{clip-path:url(#SVGID_214_);fill:#222221;}
	.st173{clip-path:url(#SVGID_216_);fill:#222221;}
	.st174{clip-path:url(#SVGID_218_);fill:#222221;}
	.st175{clip-path:url(#SVGID_220_);fill:#222221;}
	.st176{fill:#4C6363;}
	.st177{fill:#EEDE65;}
</style>
<g id="קווי_עזר" class="st0">
</g>
<g id="bootstrap_grid" class="st0">
</g>
<g id="Layer_1">
</g>
<g id="המשך_שאלות">
</g>
<g id="המשך_רגשות">
</g>
<g id="מסך_שאלות">
	<g id="שאלות">
	</g>
	<g>
		<g id="פלטת_צבעים_2_">
			<g>
				<rect x="1.2" y="66.8" class="st12" width="164.2" height="40.2"/>
				<g>
					<path class="st17" d="M165.4,105.2c-48,0-96.1,0-144.1,0c-6.7,0-13.4,0-20.1,0c0.3,0.6,0.6,1.2,0.9,1.8c0-13.4,0-26.8,0-40.2
						c-0.3,0.6-0.6,1.2-0.9,1.8c48,0,96.1,0,144.1,0c6.7,0,13.4,0,20.1,0c-0.3-0.6-0.6-1.2-0.9-1.8c0,13.4,0,26.8,0,40.2
						c0,2.2,1.8,2.2,1.8,0c0-13.4,0-26.8,0-40.2c0-0.5-0.2-1.8-0.9-1.8c-48,0-96.1,0-144.1,0c-6.7,0-13.4,0-20.1,0
						c-0.7,0-0.9,1.3-0.9,1.8c0,13.4,0,26.8,0,40.2c0,0.5,0.2,1.8,0.9,1.8c48,0,96.1,0,144.1,0c6.7,0,13.4,0,20.1,0
						C166.6,108.8,166.6,105.2,165.4,105.2z"/>
				</g>
			</g>
			<circle class="st8" cx="21.6" cy="86.9" r="13.8"/>
			<circle class="st7" cx="104.2" cy="86.9" r="13.8"/>
			<circle class="st5" cx="145" cy="86.9" r="13.8"/>
			<circle class="st6" cx="62.9" cy="86.9" r="13.8"/>
			<g>
				<g>
					<path class="st17" d="M41.3,70.6c0,11,0,22,0,33.1c0,2.2,1.8,2.2,1.8,0c0-11,0-22,0-33.1C43.1,68.5,41.3,68.5,41.3,70.6
						L41.3,70.6z"/>
				</g>
			</g>
			<g>
				<g>
					<path class="st17" d="M82.4,70.6c0,11,0,22,0,33.1c0,2.2,1.8,2.2,1.8,0c0-11,0-22,0-33.1C84.2,68.5,82.4,68.5,82.4,70.6
						L82.4,70.6z"/>
				</g>
			</g>
			<g>
				<g>
					<path class="st17" d="M123.4,70.6c0,11,0,22,0,33.1c0,2.2,1.8,2.2,1.8,0c0-11,0-22,0-33.1C125.2,68.5,123.4,68.5,123.4,70.6
						L123.4,70.6z"/>
				</g>
			</g>
		</g>
		<g id="מכחול_2_">
			<path class="st94" d="M164.9,51.4c0.9,1.8-1.9,4.6-3,5.9c-2,2.3-5.1,4.4-8.2,4.6c-2.5,0.1-4.8-0.5-6.8-1.9c0,0-0.1-0.1-0.1-0.1
				c-1.7-1.3-3.3-3-5.3-3.7c-0.2-0.1-0.4-0.1-0.7-0.2c-0.6-0.1-1.4-0.2-2,0.1l0-0.2l-0.1-1l-0.2-1.3c0.2,0.1,0.5,0.1,0.9,0
				c0.8-0.2,1.7-0.8,2.1-1.1c1.1-0.9,1.5-2.7,2.2-3.9c0.7-1.2,1.8-2.4,3.1-3.2c1.3-0.8,2.7-1.3,4.1-1.2c2.4,0,4.6,1.8,6.2,3.6
				c1.7,2,2.4,4.4,5.5,4.2C163.4,51.9,164.2,51.6,164.9,51.4z"/>
			<path class="st95" d="M155.4,45.3c-0.7-0.4-3.8-2.2-4.5-1.5c-0.7,0.7,2.2,1.3,2.6,1.6c1,0.8,2.9,2.7,1.4,3.8
				c-0.6,0.4-1.3,0.5-2,0.6c-0.2,0-1.8,0.4-2,0.3c1.4,1.3,4.4-0.4,4.3,2.5c0,2.7-2.6,2.6-4.7,2.8c0.6,0.6,1.4,0.3,2.1,0.5
				c1.2,0.5,0.4,1.2-0.4,1.3c0.6,0.3,1,0.3,0.9,1c-0.1,0.6-0.6,1-1.1,1.4c-0.9,0.7-1.4,1.4-2.6,1.5c0.5,0.5,1.5,0.5,2.2,0.6
				c1,0.2,2,0.3,3,0.4c1.7,0.1,3.6-0.3,4.9-1.4c2.3-1.8,4.6-4.8,5.5-7.6c0.3-1.1,0.2-2.8,0.8-3.7c0.3-0.5,1.3-0.7,0.5-1.1
				c-0.6-0.3-1.2,0.3-1.5,0.6c-0.8,0.9-1.4,2.2-2.7,2.3c-1.2,0-2.3-1.3-3-2.2C157.9,47.5,157,46.3,155.4,45.3z"/>
			<path class="st96" d="M143.9,49.5c0.9-1.1,2.4-2.8,4-2.9c-0.4,0.6-0.9,1.1-1.3,1.6c-0.6,0.8-1,1.5-1.2,2.4
				c1.1-0.7,2.1-1.6,3.5-1.7c-0.6,0.6-1.3,1.1-1.9,1.7c-0.8,0.8-1.1,2-1.9,2.6c1-0.2,2-0.1,2.9-0.3c0.7-0.2,1.6-1,2.3-0.9
				c-0.4,1.1-2.3,1.8-3.2,2.5c-0.6,0.4-1.3,0.4-1.8,0.9c1.2,0.5,2.6,0.6,3.6,1.4c-0.3,0.2-1.2,0.4-1.6,0.4c-0.4,0-0.8-0.2-1.2-0.1
				c0.7,0.8,1.8,1.7,2.9,2.1c-1.1,0.2-2.3-0.3-3.3-0.6c0.2,0.5,0.7,1,1.1,1.4c0,0-0.1-0.1-0.1-0.1c-1.7-1.3-3.3-3-5.3-3.7
				c-0.9-0.5-1.9-0.7-2.7-0.3c-0.1,0-0.1,0.1-0.2,0.1l0-1.1l0-1c0.3,0,0.5-0.1,0.7-0.2c0.8-0.2,1.7-0.8,2.1-1.1
				c1.1-0.9,1.5-2.7,2.2-3.9c0.7-1.2,1.8-2.4,3.1-3.2c0,0,0.1,0.1,0.1,0.1C145.9,46.5,143.6,47.8,143.9,49.5z"/>
			<path class="st94" d="M126.1,52.7c0,0-108.2-0.7-115.5,0.9c-1.7,0.4-3.5,0.8-5.2,1.2c-1.2,0.3-2.5,0.7-3.7,1.2
				c-0.4,0.2-1.8,0.5-1.7,1.2c0.2,1.1,3.2,0.9,3.9,1c2,0.2,4.1,0.2,6.1,0.3c0,0,98,0.9,116.2-0.4L126.1,52.7z"/>
			<path class="st97" d="M139.7,53.2c0.1,0.9,0.4,1.8,0.3,2.8c-4.6,1.4-9.7,2.5-14.5,2.3c-0.3-1.6-0.7-4.3-0.2-5.7
				C129.5,52.9,132.6,52.5,139.7,53.2L139.7,53.2z"/>
			<path class="st98" d="M135.9,56.4c-1.8,0.4-3.5,0.6-5.3,0.8c-0.7,0.1-2.6,0.8-3.2,0.2c-1-1.1,2.4-1.4,2.9-1.5
				c2.2-0.3,4.3-0.7,6.5-1c0.5-0.1,1.8-0.2,1.3,0.6C137.8,56.1,136.4,56.2,135.9,56.4z"/>
			<path class="st99" d="M119.9,57.4c1.2-0.1,2.7,0.2,3.9-0.2c0.6-0.2,0.9-0.5,0.2-0.8c-0.4-0.2-1.1,0-1.5,0c-1.1,0-2.1,0-3.2-0.1
				c-2.1-0.1-4.2-0.1-6.3,0c-2.6,0.2-5.2-0.2-7.8,0c-0.8,0.1-1.5,0.2-2.2,0.3c-0.6,0.1-1.7,0-1,0.8c0.4,0.5,1.4,0.4,2,0.5
				c1.6,0,3.1-0.2,4.6-0.2C112.3,57.8,116.1,57.6,119.9,57.4z"/>
			<path class="st99" d="M99.4,57.4c0.1,0,0.2,0,0.3-0.1c0,0,0,0,0,0c0.1,0-0.1,0,0,0c0,0,0,0,0,0c0,0,0.1,0.1,0.1,0
				c0-0.2,0-0.4,0.1-0.6c-0.2,0-0.4,0.1-0.6,0.1c0.1,0.1,0.2,0.1,0.3,0.2C99.6,57.3,99.5,57.4,99.4,57.4
				C99.4,57.5,99.4,57.5,99.4,57.4C99.4,57.5,99.4,57.5,99.4,57.4c0-0.2,0.1-0.4,0.2-0.6c-0.1,0-0.1,0-0.2,0c-0.2,0-0.3,0.1-0.4,0.3
				C99,57.3,99.1,57.4,99.4,57.4C99.3,57.5,99.4,57.5,99.4,57.4c0.4,0.1,0.6-0.4,0.3-0.5c-0.2-0.1-0.3-0.1-0.5,0
				c-0.2,0.1-0.3,0.3-0.2,0.6c0,0.1,0.2,0.2,0.3,0.2c0.3,0,0.5-0.1,0.7-0.1c0.2-0.1,0.2-0.4,0.1-0.6c-0.2-0.1-0.3-0.2-0.5-0.2
				c-0.1,0-0.1,0-0.2,0c0,0-0.1,0-0.1,0c0,0,0,0,0,0c0,0,0,0-0.1,0C98.9,56.9,99,57.5,99.4,57.4z"/>
			<path class="st100" d="M162.9,52.7c-0.6,1-1.6,0.6-2.5,0.4c-1.3-0.3-2.1-0.6-3.2-1.3c-0.6-0.4-1.5-2.1-0.3-2.5
				c1.5-0.4,2.2,2.2,3.6,2.4c0.7,0.1,1.3-0.2,1.9-0.1C163,51.7,163.3,52,162.9,52.7z"/>
			<path class="st100" d="M163.8,50.8c-0.1,0.1-0.2,0.2-0.3,0.4c-0.1,0.1-0.1,0.2,0,0.3c0,0,0,0.1,0.1,0.1c0.1,0.2,0.4,0.3,0.6,0.1
				c0.1-0.1,0.1-0.2,0.2-0.2c0,0,0-0.1,0.1-0.1c0,0.1,0,0,0,0c0,0,0-0.1,0.1-0.1c0.2-0.2,0-0.6-0.3-0.5c-0.2,0.1-0.3,0.2-0.4,0.4
				c0,0.1,0.1,0.3,0.2,0.3c0.2,0.1,0.4,0,0.4-0.2c0-0.1,0-0.1,0.1-0.2c0.1-0.2,0-0.4-0.2-0.4C164.1,50.7,163.9,50.7,163.8,50.8
				c-0.1,0.1-0.1,0.2-0.1,0.3c0.2,0.1,0.4,0.1,0.6,0.2c0,0.1,0,0.1,0,0c0,0,0,0,0,0c0,0-0.1,0.1-0.1,0.1
				C164.1,51.2,164,51,163.8,50.8c0,0.1-0.1,0.2-0.1,0.3c0,0,0,0,0,0c0,0,0,0,0,0.1c0,0-0.1,0.1-0.1,0.1c0.2,0,0.4,0,0.6,0.1
				c0,0,0-0.1-0.1-0.1c0,0.1,0,0.2,0,0.3c0.1-0.1,0.2-0.2,0.3-0.4c0.1-0.1,0.1-0.4-0.1-0.5C164.1,50.7,163.9,50.7,163.8,50.8z"/>
		</g>
	</g>
</g>
<g id="מסך_רגשות">
</g>
<g id="מסך_רצונות">
</g>
<g id="מסך_פתיחה">
</g>
<g id="מקלדת_נפתחת">
</g>
</svg>
