<svg xmlns="http://www.w3.org/2000/svg" viewBox="0 0 166.57 150.64"><defs><style>.cls-1{fill:#009245;}</style></defs><title>Artboard 41 copy 33</title><g id="מסך_רצונות" data-name="מסך רצונות"><polygon class="cls-1" points="13.31 77.86 28.58 65.14 61.66 98.22 137.99 21.89 153.26 34.61 61.66 128.75 13.31 77.86"/><path d="M13.58,79.83C18.07,76.08,24,72.52,27.72,68.05c.57-.7,1.6-.81.42-1.07.34.07,1,1,1.24,1.23,1.71,2,3.79,3.79,5.65,5.66L61.14,100a.65.65,0,0,0,1,0L95.75,66.39C109.5,52.64,123.9,39.31,137.11,25c.26-.28.93-1.21,1.32-1.32-.4.11-.83,0-.12.62L141,26.6l12,10-.24-3.72L93.92,93.31,64,124c-.87.9-1.71,1.87-2.63,2.7-.61.55.58.09.73.2A6.71,6.71,0,0,1,61,125.72c-4.12-5.21-9.35-9.84-13.93-14.66L13.82,76.11c-1.25-1.32-1.92,2.57-1,3.51l48.34,50.89a.64.64,0,0,0,1,0l80-82.26,11.56-11.88a3,3,0,0,0-.24-3.73L138.26,19.92c-.25-.21-.61,0-.78.21l-45.2,45.2L66.41,91.2a56.45,56.45,0,0,1-5.13,5.13c-.54.4,1.31.39.72,0a4.89,4.89,0,0,1-1-1c-1.31-1.9-3.61-3.61-5.24-5.23L29.09,63.38c-.17-.16-.53-.41-.78-.2L13,75.9C12,76.79,12.57,80.67,13.58,79.83Z"/></g></svg>